<?xml version="1.0" encoding="UTF-8"?>
<svg version="1.1" xmlns="http://www.w3.org/2000/svg" width="272" height="272">
<path d="M0 0 C0.71140137 0.15597656 1.42280273 0.31195313 2.15576172 0.47265625 C26.10993014 5.87021558 46.75959361 16.58886072 65 33 C66.24719792 34.00349258 67.49665695 35.00419319 68.75 36 C73.47754158 40.06053695 77.1607552 45.1242273 81 50 C81.94939453 51.15048828 81.94939453 51.15048828 82.91796875 52.32421875 C87.40885646 57.84612704 90.76470675 63.67360485 94 70 C94.43183594 70.80179687 94.86367188 71.60359375 95.30859375 72.4296875 C105.15117441 91.13365699 109.18336668 110.94579519 109.24023438 131.89916992 C109.24987179 134.03409848 109.28095148 136.16803319 109.3125 138.30273438 C109.44819999 156.01534951 105.8738444 174.05546508 98 190 C97.41613619 191.23933356 96.83285753 192.47894287 96.25 193.71875 C92.23639421 202.13198162 87.84144478 209.68713069 82 217 C81.278125 217.92425781 80.55625 218.84851563 79.8125 219.80078125 C58.25881241 246.85514952 26.71715735 265.56482121 -7.86175537 269.78659058 C-13.21394125 270.32077029 -18.61440962 270.18590192 -23.98852539 270.18530273 C-26.16507888 270.1874776 -28.34111466 270.20564935 -30.51757812 270.22460938 C-42.75147214 270.27594867 -54.27023602 268.88690541 -66 265.25 C-66.85376221 264.98904541 -67.70752441 264.72809082 -68.5871582 264.45922852 C-75.71230722 262.2167856 -82.36538976 259.45376164 -89 256 C-90.22396484 255.36771484 -90.22396484 255.36771484 -91.47265625 254.72265625 C-100.70125694 249.76802158 -108.96275421 243.69135629 -117 237 C-117.76441406 236.37222656 -118.52882812 235.74445313 -119.31640625 235.09765625 C-140.14566778 217.38372775 -152.78436761 192.08151953 -159.8125 166.125 C-160.0197168 165.36469482 -160.22693359 164.60438965 -160.44042969 163.82104492 C-168.61654733 132.04379849 -162.18174059 94.8656197 -146.0625 66.5625 C-139.23832195 55.21061682 -131.24789057 45.42012086 -122 36 C-121.52046875 35.50967285 -121.0409375 35.0193457 -120.546875 34.51416016 C-90.3704677 4.12013454 -41.65432497 -9.18212445 0 0 Z " fill="#FEFCFC" transform="translate(163,2)"/>
<path d="M0 0 C11.59436546 9.91211044 21.23119544 24.32942528 23.3125 39.75 C23.94468005 49.34666525 23.74142791 58.41524213 21.3125 67.75 C20.70873535 67.44707031 20.1049707 67.14414063 19.48291016 66.83203125 C17.8567662 66.02133721 16.22314528 65.22561148 14.5859375 64.4375 C7.04418525 60.04661459 7.04418525 60.04661459 5.69335938 55.80664062 C5.0458635 51.96667846 4.88587031 48.11392477 4.671875 44.23046875 C3.98814057 32.77791705 -2.89044441 21.98406385 -11.26171875 14.42578125 C-24.32997134 4.34029673 -38.64211894 2.33651532 -54.6875 3.75 C-67.81211282 6.07449035 -77.88833257 14.2943476 -85.6875 24.75 C-87.61435907 27.98751449 -89.25811019 31.26516981 -90.6875 34.75 C-91.23664063 36.08417969 -91.23664063 36.08417969 -91.796875 37.4453125 C-94.72514735 48.3107441 -93.95251319 61.80678624 -88.6875 71.75 C-88.24019531 72.61882812 -87.79289062 73.48765625 -87.33203125 74.3828125 C-80.82385273 86.07310635 -71.13676703 93.11203777 -58.6875 97.75 C-47.40033472 100.77982508 -31.94343764 100.44774313 -21.6875 94.75 C-18.11305653 92.60533392 -17.01071621 91.66261048 -15.625 87.75 C-15.37938231 84.69441051 -15.37938231 84.69441051 -17.37109375 82.69921875 C-19.82313786 80.63586292 -21.80535693 79.63647967 -24.8125 78.5625 C-25.68132812 78.23894531 -26.55015625 77.91539063 -27.4453125 77.58203125 C-37.02122043 75.12459946 -46.99951579 75.62777467 -56.8125 75.6875 C-58.26041511 75.69252748 -59.70833192 75.69708817 -61.15625 75.70117188 C-64.66674412 75.71121333 -68.17699694 75.73080527 -71.6875 75.75 C-71.6875 68.49 -71.6875 61.23 -71.6875 53.75 C-61.54457689 52.62300854 -61.54457689 52.62300854 -57.890625 52.6171875 C-57.08302734 52.61533447 -56.27542969 52.61348145 -55.44335938 52.61157227 C-54.61642578 52.61600342 -53.78949219 52.62043457 -52.9375 52.625 C-52.06931641 52.6262085 -51.20113281 52.62741699 -50.30664062 52.62866211 C-44.23260968 52.66524588 -38.26093623 52.9849364 -32.21875 53.62890625 C-29.78039275 53.74555606 -27.99943424 53.48611114 -25.6875 52.75 C-25.18580585 49.91926564 -25.18580585 49.91926564 -25.6875 46.75 C-34.87500321 38.68292401 -48.21699012 39.60209529 -59.6875 39.6875 C-60.84378906 39.69201172 -62.00007813 39.69652344 -63.19140625 39.70117188 C-66.02346009 39.71287458 -68.85548702 39.73080714 -71.6875 39.75 C-71.6875 32.49 -71.6875 25.23 -71.6875 17.75 C-25.6683137 16.8774452 -25.6683137 16.8774452 -11.5625 30.375 C-6.92128913 35.29329809 -6.24810418 39.40985646 -6.36328125 46.0546875 C-6.98880019 51.25478473 -10.1263555 54.23987476 -13.6875 57.75 C-13.07003906 57.95753906 -12.45257813 58.16507812 -11.81640625 58.37890625 C-4.20675535 61.14710498 2.40533124 64.84349198 7.3125 71.4375 C9.75779073 77.09223481 10.3430567 83.08717801 8.6640625 89.0546875 C4.0331725 100.4933816 -4.94575442 107.26621449 -15.96875 112.2265625 C-33.64015886 119.28686838 -52.78144822 120.60433059 -70.6171875 113.15625 C-86.49035015 106.06426631 -99.86230806 93.68934645 -106.66015625 77.484375 C-112.71255334 61.37533331 -114.55813584 42.82821822 -107.77490234 26.56152344 C-103.91770183 18.22679657 -99.54103255 9.99497364 -92.6875 3.75 C-91.98496094 3.10160156 -91.28242187 2.45320313 -90.55859375 1.78515625 C-64.01571184 -20.99711965 -27.50933051 -21.40452018 0 0 Z " fill="#F11E21" transform="translate(181.6875,48.25)"/>
<path d="M0 0 C0.66 0 1.32 0 2 0 C2 1.98 2 3.96 2 6 C3.3303125 5.7215625 3.3303125 5.7215625 4.6875 5.4375 C12.64839764 4.2863315 21.1077819 5.71522031 29 7 C29 5.35 29 3.7 29 2 C30.98 3.65 32.96 5.3 35 7 C35.33 6.01 35.66 5.02 36 4 C38.31 4.66 40.62 5.32 43 6 C43.33 4.35 43.66 2.7 44 1 C44.66 1 45.32 1 46 1 C46.99 2.98 46.99 2.98 48 5 C49.134375 4.979375 50.26875 4.95875 51.4375 4.9375 C55 5 55 5 56 6 C57.51928038 6.07179964 59.04167482 6.08392007 60.5625 6.0625 C61.38878906 6.05347656 62.21507812 6.04445312 63.06640625 6.03515625 C64.02353516 6.01775391 64.02353516 6.01775391 65 6 C65.33 4.68 65.66 3.36 66 2 C66.30808594 2.66644531 66.61617188 3.33289063 66.93359375 4.01953125 C68.75661609 6.16606258 68.75661609 6.16606258 70.90283203 6.22021484 C73.30511961 6.1313567 75.67145582 5.93613868 78.0625 5.6875 C79.69882104 5.54105882 81.33553479 5.39892258 82.97265625 5.26171875 C83.69718994 5.18912842 84.42172363 5.11653809 85.16821289 5.04174805 C87 5 87 5 89 6 C89.33 5.01 89.66 4.02 90 3 C90.99 3.99 91.98 4.98 93 6 C93.33 4.68 93.66 3.36 94 2 C94.33 2 94.66 2 95 2 C95 3.65 95 5.3 95 7 C95.99 6.67 96.98 6.34 98 6 C100.70123106 6.16011121 103.31875231 6.60440608 106 7 C106.33 5.68 106.66 4.36 107 3 C107.99 4.98 107.99 4.98 109 7 C112.465 6.505 112.465 6.505 116 6 C116 5.34 116 4.68 116 4 C117.32 3.67 118.64 3.34 120 3 C120 3.99 120 4.98 120 6 C121.65 6 123.3 6 125 6 C125.33 4.68 125.66 3.36 126 2 C126.5878125 2.9590625 126.5878125 2.9590625 127.1875 3.9375 C129.38472296 6.43778819 130.75791433 6.64950425 134 7 C134 6.01 134 5.02 134 4 C134.99 4 135.98 4 137 4 C137.33 4.66 137.66 5.32 138 6 C140.02463255 6.65213292 140.02463255 6.65213292 142 7 C142 5.35 142 3.7 142 2 C142.32613281 2.48082031 142.65226563 2.96164063 142.98828125 3.45703125 C146.07397274 5.82372666 149.44155967 5.57299527 153.1875 5.6875 C153.93708984 5.72166016 154.68667969 5.75582031 155.45898438 5.79101562 C157.30546838 5.87334294 159.15270994 5.93835281 161 6 C144.7556826 31.4899493 112.73753943 46.99888149 84.1328125 53.421875 C75.74090916 54.97050554 67.52165543 55.18625158 59.01147461 55.18530273 C56.83492112 55.1874776 54.65888534 55.20564935 52.48242188 55.22460938 C40.24852786 55.27594867 28.72976398 53.88690541 17 50.25 C16.14623779 49.98904541 15.29247559 49.72809082 14.4128418 49.45922852 C7.28769278 47.2167856 0.63461024 44.45376164 -6 41 C-6.81597656 40.57847656 -7.63195312 40.15695312 -8.47265625 39.72265625 C-17.70006467 34.76866168 -25.96663993 28.69446672 -34 22 C-34.79921875 21.33742187 -35.5984375 20.67484375 -36.421875 19.9921875 C-41.39507407 15.73659769 -45.25837954 11.37258322 -49 6 C-46.03 6 -43.06 6 -40 6 C-40 5.34 -40 4.68 -40 4 C-39.01 4 -38.02 4 -37 4 C-37 4.99 -37 5.98 -37 7 C-35.35 7 -33.7 7 -32 7 C-32 5.35 -32 3.7 -32 2 C-31.01 2.66 -30.02 3.32 -29 4 C-29 4.66 -29 5.32 -29 6 C-27.02 6 -25.04 6 -23 6 C-22.67 5.34 -22.34 4.68 -22 4 C-21.34 4.66 -20.68 5.32 -20 6 C-17.99279077 5.71325582 -15.99369031 5.36920191 -14 5 C-6.75420875 4.62289562 -6.75420875 4.62289562 -4 6 C-4 5.01 -4 4.02 -4 3 C-2.68 3 -1.36 3 0 3 C0 2.01 0 1.02 0 0 Z " fill="#FEFDFD" transform="translate(80,217)"/>
<path d="M0 0 C1.32 0 2.64 0 4 0 C4 1.65 4 3.3 4 5 C5.65 5 7.3 5 9 5 C8.98839844 5.85722656 8.97679687 6.71445313 8.96484375 7.59765625 C8.95582031 8.74105469 8.94679687 9.88445312 8.9375 11.0625 C8.92589844 12.18785156 8.91429687 13.31320313 8.90234375 14.47265625 C8.94944302 18.59585488 8.94944302 18.59585488 10 25 C2.08 25 -5.84 25 -14 25 C-14 23.68 -14 22.36 -14 21 C-14.66 21 -15.32 21 -16 21 C-15.67 19.35 -15.34 17.7 -15 16 C-13.02 16 -11.04 16 -9 16 C-9.020625 16.804375 -9.04125 17.60875 -9.0625 18.4375 C-9.29633621 20.93354885 -9.29633621 20.93354885 -8 22 C-8 19.69 -8 17.38 -8 15 C-10.97 15 -13.94 15 -17 15 C-17 18.3 -17 21.6 -17 25 C-17.99 25 -18.98 25 -20 25 C-20.09733092 17.90565767 -20.10087193 11.01805857 -19 4 C-19.66 4 -20.32 4 -21 4 C-21 3.01 -21 2.02 -21 1 C-15.39 1 -9.78 1 -4 1 C-4 1.99 -4 2.98 -4 4 C-2.68 4 -1.36 4 0 4 C0 2.68 0 1.36 0 0 Z " fill="#E00513" transform="translate(232,184)"/>
<path d="M0 0 C1.32 0 2.64 0 4 0 C4 0.66 4 1.32 4 2 C5.32 2 6.64 2 8 2 C8 1.34 8 0.68 8 0 C9.32 0 10.64 0 12 0 C12 0.66 12 1.32 12 2 C14.31 2 16.62 2 19 2 C20 6.75 20 6.75 20 9 C20.31802943 10.66965451 20.64984951 12.33678518 21 14 C20.01 14.66 19.02 15.32 18 16 C17.27034634 18.56282742 17.27034634 18.56282742 17 21 C18.32 21.33 19.64 21.66 21 22 C20.67 22.99 20.34 23.98 20 25 C11.53136531 24.13284133 11.53136531 24.13284133 8.25 23.3125 C5.94708909 22.79849761 5.94708909 22.79849761 3.75 23.9375 C-0.16115276 25.4486272 -3.85496789 25.16255028 -8 25 C-8.33 24.01 -8.66 23.02 -9 22 C-8.09507812 21.96132812 -8.09507812 21.96132812 -7.171875 21.921875 C-1.92185193 21.54929272 0.43401024 21.09428454 4 17 C5.32 17 6.64 17 8 17 C8 17.99 8 18.98 8 20 C9.65 20 11.3 20 13 20 C13 18.68 13 17.36 13 16 C8.38 16 3.76 16 -1 16 C-1 17.65 -1 19.3 -1 21 C-2.32 21 -3.64 21 -5 21 C-5 19.68 -5 18.36 -5 17 C-6.32 17 -7.64 17 -9 17 C-9 16.01 -9 15.02 -9 14 C-7.68 13.67 -6.36 13.34 -5 13 C-5.99 12.67 -6.98 12.34 -8 12 C-8 8.66666667 -8 5.33333333 -8 2 C-5.36 2 -2.72 2 0 2 C0 1.34 0 0.68 0 0 Z " fill="#D71521" transform="translate(149,184)"/>
<path d="M0 0 C1.6777567 0.27206865 3.34450469 0.61500109 5 1 C6.2684375 0.938125 6.2684375 0.938125 7.5625 0.875 C10.57589279 1.02953296 11.78240596 2.0288053 14 4 C14 2.68 14 1.36 14 0 C15.65 0 17.3 0 19 0 C19 2.31 19 4.62 19 7 C20.134375 6.979375 21.26875 6.95875 22.4375 6.9375 C26 7 26 7 27 8 C27.09981214 10.6773138 27.13879875 13.32304175 27.125 16 C27.13080078 17.12535156 27.13080078 17.12535156 27.13671875 18.2734375 C27.12661053 23.87338947 27.12661053 23.87338947 26 25 C24.48071962 25.07179964 22.95832518 25.08392007 21.4375 25.0625 C20.61121094 25.05347656 19.78492187 25.04445312 18.93359375 25.03515625 C17.97646484 25.01775391 17.97646484 25.01775391 17 25 C17 24.01 17 23.02 17 22 C18.98 22 20.96 22 23 22 C23 21.34 23 20.68 23 20 C19.04 20 15.08 20 11 20 C11 21.65 11 23.3 11 25 C9.35 25 7.7 25 6 25 C6 20.71 6 16.42 6 12 C4.35 12.33 2.7 12.66 1 13 C0.01 11.68 -0.98 10.36 -2 9 C-1.34 7.68 -0.68 6.36 0 5 C-0.66 4.01 -1.32 3.02 -2 2 C-1.34 1.34 -0.68 0.68 0 0 Z " fill="#D80716" transform="translate(106,184)"/>
<path d="M0 0 C3.5821125 0.36552168 3.66969865 0.89635425 6.0625 3.3125 C8.32277345 4.5173149 8.32277345 4.5173149 10.75 5.5 C11.55824219 5.84417969 12.36648437 6.18835938 13.19921875 6.54296875 C13.81410156 6.79691406 14.42898437 7.05085937 15.0625 7.3125 C14.4025 8.6325 13.7425 9.9525 13.0625 11.3125 C12.423125 11.126875 11.78375 10.94125 11.125 10.75 C10.1040625 10.5334375 10.1040625 10.5334375 9.0625 10.3125 C8.7325 10.6425 8.4025 10.9725 8.0625 11.3125 C6.06291636 11.35330783 4.06204746 11.35504356 2.0625 11.3125 C2.0625 11.9725 2.0625 12.6325 2.0625 13.3125 C5.3625 13.3125 8.6625 13.3125 12.0625 13.3125 C12.0625 14.3025 12.0625 15.2925 12.0625 16.3125 C10.4125 16.9725 8.7625 17.6325 7.0625 18.3125 C7.0625 17.6525 7.0625 16.9925 7.0625 16.3125 C5.4125 16.3125 3.7625 16.3125 2.0625 16.3125 C2.0625 18.2925 2.0625 20.2725 2.0625 22.3125 C3.3825 22.3125 4.7025 22.3125 6.0625 22.3125 C6.0625 21.3225 6.0625 20.3325 6.0625 19.3125 C6.7225 19.3125 7.3825 19.3125 8.0625 19.3125 C8.0625 20.3025 8.0625 21.2925 8.0625 22.3125 C10.0425 22.3125 12.0225 22.3125 14.0625 22.3125 C14.0625 23.3025 14.0625 24.2925 14.0625 25.3125 C4.4925 25.3125 -5.0775 25.3125 -14.9375 25.3125 C-14.9375 24.3225 -14.9375 23.3325 -14.9375 22.3125 C-12.9575 22.3125 -10.9775 22.3125 -8.9375 22.3125 C-8.9375 21.6525 -8.9375 20.9925 -8.9375 20.3125 C-9.5975 20.3125 -10.2575 20.3125 -10.9375 20.3125 C-10.9375 19.6525 -10.9375 18.9925 -10.9375 18.3125 C-11.5975 17.9825 -12.2575 17.6525 -12.9375 17.3125 C-12.9375 15.9925 -12.9375 14.6725 -12.9375 13.3125 C-9.6375 13.3125 -6.3375 13.3125 -2.9375 13.3125 C-2.9375 12.6525 -2.9375 11.9925 -2.9375 11.3125 C-6.8975 11.3125 -10.8575 11.3125 -14.9375 11.3125 C-15.2675 10.3225 -15.5975 9.3325 -15.9375 8.3125 C-15.16664063 7.90257812 -14.39578125 7.49265625 -13.6015625 7.0703125 C-12.59867188 6.53148437 -11.59578125 5.99265625 -10.5625 5.4375 C-9.56476563 4.90382812 -8.56703125 4.37015625 -7.5390625 3.8203125 C-1.16056238 0.12346408 -1.16056238 0.12346408 0 0 Z " fill="#D61521" transform="translate(190.9375,183.6875)"/>
<path d="M0 0 C2.64590014 -0.02684679 5.29153096 -0.04676357 7.9375 -0.0625 C8.69224609 -0.07087891 9.44699219 -0.07925781 10.22460938 -0.08789062 C12.14994313 -0.09652441 14.07535581 -0.05224333 16 0 C17 1 17 1 17.09765625 3.72265625 C17.08605469 4.82480469 17.07445313 5.92695313 17.0625 7.0625 C17.05347656 8.16722656 17.04445313 9.27195313 17.03515625 10.41015625 C17.02355469 11.26480469 17.01195313 12.11945313 17 13 C14.69 13 12.38 13 10 13 C10 13.99 10 14.98 10 16 C12.31 15.34 14.62 14.68 17 14 C17.33 14.99 17.66 15.98 18 17 C17.01 17.66 16.02 18.32 15 19 C16.32 19.66 17.64 20.32 19 21 C18.34 21.99 17.68 22.98 17 24 C16.2575 23.835 15.515 23.67 14.75 23.5 C10.98994284 22.81635324 7.50584493 22.99922068 3.75 23.5 C1.89375 23.7475 1.89375 23.7475 0 24 C-1.01044795 20.96865616 -1.05032949 19.25604057 -0.87890625 16.11328125 C-0.83056641 15.17548828 -0.78222656 14.23769531 -0.73242188 13.27148438 C-0.67634766 12.29501953 -0.62027344 11.31855469 -0.5625 10.3125 C-0.51029297 9.32443359 -0.45808594 8.33636719 -0.40429688 7.31835938 C-0.27464694 4.87858324 -0.13968258 2.43921895 0 0 Z " fill="#DE0816" transform="translate(80,185)"/>
<path d="M0 0 C1.65 0 3.3 0 5 0 C5.33 1.98 5.66 3.96 6 6 C6.7425 5.46375 7.485 4.9275 8.25 4.375 C9.61125 3.694375 9.61125 3.694375 11 3 C13.3125 3.8125 13.3125 3.8125 15 5 C12.84609098 7.31345784 11.20329748 8.90544303 8.3125 10.25 C5.85710097 11.73880012 5.85710097 11.73880012 5.4609375 13.96484375 C5.21458657 15.96732486 5.09910535 17.98485795 5 20 C6.65 20 8.3 20 10 20 C10 18.35 10 16.7 10 15 C11.65 15 13.3 15 15 15 C15.36670547 20.50058207 15.36670547 20.50058207 13.76953125 22.67578125 C11.54096075 24.34351944 10.26108127 24.40261081 7.5 24.375 C6.7265625 24.38273437 5.953125 24.39046875 5.15625 24.3984375 C2.43436917 23.89548126 1.68726187 23.1713783 0 21 C-0.34057617 18.73168945 -0.34057617 18.73168945 -0.29296875 16.11328125 C-0.28330078 15.17548828 -0.27363281 14.23769531 -0.26367188 13.27148438 C-0.23853516 12.29501953 -0.21339844 11.31855469 -0.1875 10.3125 C-0.17396484 9.32443359 -0.16042969 8.33636719 -0.14648438 7.31835938 C-0.11112203 4.87835769 -0.06177033 2.43945281 0 0 Z " fill="#DB2631" transform="translate(48,185)"/>
<path d="M0 0 C0.33 0 0.66 0 1 0 C1 1.65 1 3.3 1 5 C-0.65 5 -2.3 5 -4 5 C-4 9.29 -4 13.58 -4 18 C-2.68 17.67 -1.36 17.34 0 17 C0 18.32 0 19.64 0 21 C-1.65 21 -3.3 21 -5 21 C-5.33 18.36 -5.66 15.72 -6 13 C-10.29 12.67 -14.58 12.34 -19 12 C-19 9.36 -19 6.72 -19 4 C-19.66 4 -20.32 4 -21 4 C-21 3.01 -21 2.02 -21 1 C-15.39 1 -9.78 1 -4 1 C-4 1.99 -4 2.98 -4 4 C-2.68 4 -1.36 4 0 4 C0 2.68 0 1.36 0 0 Z " fill="#FBD7D8" transform="translate(232,184)"/>
<path d="M0 0 C1.65 0 3.3 0 5 0 C6 3 6 3 5 6 C3.02 6 1.04 6 -1 6 C-1.33 5.34 -1.66 4.68 -2 4 C-1.34 3.34 -0.68 2.68 0 2 C0 1.34 0 0.68 0 0 Z M-7.4375 0.9375 C-6.303125 0.958125 -5.16875 0.97875 -4 1 C-3.79375 1.804375 -3.5875 2.60875 -3.375 3.4375 C-2.92125 4.283125 -2.4675 5.12875 -2 6 C1.05272465 6.89830839 1.05272465 6.89830839 4 7 C4 7.66 4 8.32 4 9 C8.455 8.505 8.455 8.505 13 8 C12.01 8.33 11.02 8.66 10 9 C10 9.66 10 10.32 10 11 C7.70839681 11.02692484 5.41670454 11.04636124 3.125 11.0625 C1.84882813 11.07410156 0.57265625 11.08570313 -0.7421875 11.09765625 C-4 11 -4 11 -6 10 C-5.67 12.31 -5.34 14.62 -5 17 C-6.32 17 -7.64 17 -9 17 C-9 15.68 -9 14.36 -9 13 C-10.32 13 -11.64 13 -13 13 C-13 12.01 -13 11.02 -13 10 C-11.68 9.67 -10.36 9.34 -9 9 C-9.99 8.67 -10.98 8.34 -12 8 C-12.04254356 6.00045254 -12.04080783 3.99958364 -12 2 C-11 1 -11 1 -7.4375 0.9375 Z " fill="#D71824" transform="translate(153,188)"/>
<path d="M0 0 C1.65 0.33 3.3 0.66 5 1 C5 8.92 5 16.84 5 25 C3.35 25 1.7 25 0 25 C0 23.68 0 22.36 0 21 C-0.763125 21.33 -1.52625 21.66 -2.3125 22 C-5 23 -5 23 -8 23 C-8 21.68 -8 20.36 -8 19 C-5.69 18.34 -3.38 17.68 -1 17 C-0.67 15.02 -0.34 13.04 0 11 C-2.31 11 -4.62 11 -7 11 C-7.33 9.68 -7.66 8.36 -8 7 C-5.36 7 -2.72 7 0 7 C0 4.69 0 2.38 0 0 Z " fill="#DB1A27" transform="translate(40,184)"/>
<path d="M0 0 C1.32 0 2.64 0 4 0 C4 0.99 4 1.98 4 3 C5.32 3 6.64 3 8 3 C8 3.99 8 4.98 8 6 C6.02 6.33 4.04 6.66 2 7 C3.65 7.33 5.3 7.66 7 8 C7 8.99 7 9.98 7 11 C6.01 11 5.02 11 4 11 C4 11.99 4 12.98 4 14 C5.32 14 6.64 14 8 14 C8 14.66 8 15.32 8 16 C6.68 16 5.36 16 4 16 C4 17.32 4 18.64 4 20 C5.32 19.67 6.64 19.34 8 19 C7.875 20.875 7.875 20.875 7 23 C3.9375 24.25 3.9375 24.25 1 25 C0 24 0 24 -0.09765625 22.15234375 C-0.06510417 20.1015625 -0.03255208 18.05078125 0 16 C-0.99 16 -1.98 16 -3 16 C-3 15.01 -3 14.02 -3 13 C-2.01 13 -1.02 13 0 13 C0 12.34 0 11.68 0 11 C-0.99 11 -1.98 11 -3 11 C-2.44894091 7.0507432 -1.61064629 3.65079826 0 0 Z " fill="#D8111E" transform="translate(71,184)"/>
<path d="M0 0 C3.96 0 7.92 0 12 0 C12 0.66 12 1.32 12 2 C10.35 2.66 8.7 3.32 7 4 C7 3.34 7 2.68 7 2 C5.35 2 3.7 2 2 2 C2 3.98 2 5.96 2 8 C3.32 8 4.64 8 6 8 C6 7.01 6 6.02 6 5 C6.66 5 7.32 5 8 5 C8 5.99 8 6.98 8 8 C9.98 8 11.96 8 14 8 C14 8.99 14 9.98 14 11 C4.43 11 -5.14 11 -15 11 C-15 10.01 -15 9.02 -15 8 C-13.02 8 -11.04 8 -9 8 C-9 7.34 -9 6.68 -9 6 C-9.66 6 -10.32 6 -11 6 C-11 5.34 -11 4.68 -11 4 C-9.68 3.67 -8.36 3.34 -7 3 C-6.01 4.485 -6.01 4.485 -5 6 C-5.33 6.33 -5.66 6.66 -6 7 C-4.68 7.33 -3.36 7.66 -2 8 C-2 6.02 -2 4.04 -2 2 C-1.34 2 -0.68 2 0 2 C0 1.34 0 0.68 0 0 Z " fill="#DF0614" transform="translate(191,198)"/>
<path d="M0 0 C2.31243792 -0.02685412 4.6249627 -0.04632841 6.9375 -0.0625 C8.22527344 -0.07410156 9.51304687 -0.08570313 10.83984375 -0.09765625 C14 0 14 0 15 1 C15.07226502 2.85287502 15.0838122 4.70833878 15.0625 6.5625 C15.05347656 7.57441406 15.04445312 8.58632812 15.03515625 9.62890625 C15.02355469 10.41136719 15.01195312 11.19382813 15 12 C11.846632 12.70074844 9.27275026 13 6 13 C6 11.68 6 10.36 6 9 C5.34 9 4.68 9 4 9 C4.33 7.35 4.66 5.7 5 4 C6.98 4 8.96 4 11 4 C10.979375 4.804375 10.95875 5.60875 10.9375 6.4375 C10.70366379 8.93354885 10.70366379 8.93354885 12 10 C12 7.69 12 5.38 12 3 C9.03 3 6.06 3 3 3 C3 6.3 3 9.6 3 13 C2.01 13 1.02 13 0 13 C0 8.71 0 4.42 0 0 Z " fill="#D31521" transform="translate(212,196)"/>
<path d="M0 0 C1.32 0 2.64 0 4 0 C4 0.66 4 1.32 4 2 C5.32 2 6.64 2 8 2 C8 1.34 8 0.68 8 0 C9.32 0 10.64 0 12 0 C12 0.66 12 1.32 12 2 C14.31 2 16.62 2 19 2 C19.38218767 3.65614657 19.71395102 5.32457024 20 7 C19 8 19 8 17.15234375 8.09765625 C15.1015625 8.06510417 13.05078125 8.03255208 11 8 C11 9.65 11 11.3 11 13 C10.01 13 9.02 13 8 13 C8 12.34 8 11.68 8 11 C5.69 11 3.38 11 1 11 C1 9.68 1 8.36 1 7 C0.34 6.67 -0.32 6.34 -1 6 C-0.67 5.34 -0.34 4.68 0 4 C-2.64 4 -5.28 4 -8 4 C-8 3.34 -8 2.68 -8 2 C-5.36 2 -2.72 2 0 2 C0 1.34 0 0.68 0 0 Z M4 4 C4 4.99 4 5.98 4 7 C3.34 7.66 2.68 8.32 2 9 C3.12534105 10.35618499 3.12534105 10.35618499 6.0625 10.0625 C7.031875 10.041875 8.00125 10.02125 9 10 C9.38218767 8.34385343 9.71395102 6.67542976 10 5 C8.93354885 3.70366379 8.93354885 3.70366379 6.4375 3.9375 C5.633125 3.958125 4.82875 3.97875 4 4 Z " fill="#D90613" transform="translate(149,184)"/>
<path d="M0 0 C0 3.96 0 7.92 0 12 C-0.33 12 -0.66 12 -1 12 C-1.33 10.35 -1.66 8.7 -2 7 C-2.66 7 -3.32 7 -4 7 C-4 7.99 -4 8.98 -4 10 C-5.32 10 -6.64 10 -8 10 C-8.33 12.64 -8.66 15.28 -9 18 C-10.32 18.33 -11.64 18.66 -13 19 C-13 16.69 -13 14.38 -13 12 C-12.34 12 -11.68 12 -11 12 C-11 11.34 -11 10.68 -11 10 C-11.66 10 -12.32 10 -13 10 C-13 7.03 -13 4.06 -13 1 C-8.59085217 -0.10228696 -4.51617599 -0.07654536 0 0 Z " fill="#DF3E48" transform="translate(97,186)"/>
<path d="M0 0 C1.6777567 0.27206865 3.34450469 0.61500109 5 1 C6.2684375 0.938125 6.2684375 0.938125 7.5625 0.875 C10.57589279 1.02953296 11.78240596 2.0288053 14 4 C14.33 2.68 14.66 1.36 15 0 C15 2.31 15 4.62 15 7 C12.36 7 9.72 7 7 7 C7 12.94 7 18.88 7 25 C6.67 25 6.34 25 6 25 C6 20.71 6 16.42 6 12 C4.35 12.33 2.7 12.66 1 13 C0.01 11.68 -0.98 10.36 -2 9 C-1.34 7.68 -0.68 6.36 0 5 C-0.66 4.01 -1.32 3.02 -2 2 C-1.34 1.34 -0.68 0.68 0 0 Z " fill="#F8D0D1" transform="translate(106,184)"/>
<path d="M0 0 C0.66 0 1.32 0 2 0 C2.04241723 2.33294775 2.04092937 4.66702567 2 7 C1.67 7.33 1.34 7.66 1 8 C3.31 8.66 5.62 9.32 8 10 C7.67 11.98 7.34 13.96 7 16 C2.71 16 -1.58 16 -6 16 C-6 15.01 -6 14.02 -6 13 C-6.66 13 -7.32 13 -8 13 C-8 11.02 -8 9.04 -8 7 C-4.535 6.505 -4.535 6.505 -1 6 C-0.67 4.02 -0.34 2.04 0 0 Z " fill="#E7656D" transform="translate(122,185)"/>
<path d="M0 0 C6.15234375 0.5859375 6.15234375 0.5859375 8 1 C8.33 1.66 8.66 2.32 9 3 C9.66 2.34 10.32 1.68 11 1 C14.625 0.875 14.625 0.875 18 1 C18 1.33 18 1.66 18 2 C16.02 2 14.04 2 12 2 C12 2.66 12 3.32 12 4 C15.3 4 18.6 4 22 4 C22 4.33 22 4.66 22 5 C18.04 5 14.08 5 10 5 C10 5.66 10 6.32 10 7 C9.34 7 8.68 7 8 7 C8 8.98 8 10.96 8 13 C6.35 13 4.7 13 3 13 C3.33 12.01 3.66 11.02 4 10 C1.69 9.34 -0.62 8.68 -3 8 C-3 6.68 -3 5.36 -3 4 C0.3 4 3.6 4 7 4 C7 3.34 7 2.68 7 2 C5.02 2 3.04 2 1 2 C0.67 1.34 0.34 0.68 0 0 Z " fill="#D81A26" transform="translate(181,193)"/>
<path d="M0 0 C0 0.66 0 1.32 0 2 C-1.32 2.33 -2.64 2.66 -4 3 C-4 3.99 -4 4.98 -4 6 C-2.68 6.66 -1.36 7.32 0 8 C-2.375 8.125 -2.375 8.125 -5 8 C-5.66 7.34 -6.32 6.68 -7 6 C-7 5.01 -7 4.02 -7 3 C-7.99 3.495 -7.99 3.495 -9 4 C-9.65213292 6.02463255 -9.65213292 6.02463255 -10 8 C-11.99954746 8.04254356 -14.00041636 8.04080783 -16 8 C-17 7 -17 7 -17.1875 4.5625 C-17 2 -17 2 -15 0 C-9.86390259 -1.37797735 -5.17497114 -0.74749583 0 0 Z " fill="#D37476" transform="translate(133,215)"/>
<path d="M0 0 C2.64 0 5.28 0 8 0 C8 0.33 8 0.66 8 1 C6.35 1 4.7 1 3 1 C3 2.32 3 3.64 3 5 C5.97 5 8.94 5 12 5 C12 5.33 12 5.66 12 6 C9.03 6 6.06 6 3 6 C3 7.32 3 8.64 3 10 C3.66 10 4.32 10 5 10 C5 10.66 5 11.32 5 12 C4.34 12 3.68 12 3 12 C3 14.64 3 17.28 3 20 C3.66 20.33 4.32 20.66 5 21 C3.35 21.33 1.7 21.66 0 22 C0 14.74 0 7.48 0 0 Z " fill="#E10311" transform="translate(81,186)"/>
<path d="M0 0 C3.63 0 7.26 0 11 0 C12 5 12 5 11 7 C10.34 6.34 9.68 5.68 9 5 C8.67 5.99 8.34 6.98 8 8 C5.36 8 2.72 8 0 8 C0 5.36 0 2.72 0 0 Z " fill="#FCDADA" transform="translate(178,216)"/>
<path d="M0 0 C1.97909398 -0.02686553 3.95828971 -0.04633375 5.9375 -0.0625 C7.03964844 -0.07410156 8.14179688 -0.08570313 9.27734375 -0.09765625 C12 0 12 0 13 1 C13 2.65 13 4.3 13 6 C8.71 6 4.42 6 0 6 C0 4.02 0 2.04 0 0 Z " fill="#CB111E" transform="translate(213,189)"/>
<path d="M0 0 C0.66 0 1.32 0 2 0 C2 2.31 2 4.62 2 7 C2.66 7 3.32 7 4 7 C4 4.69 4 2.38 4 0 C5.98 0 7.96 0 10 0 C10 2.97 10 5.94 10 9 C6.7 9 3.4 9 0 9 C0 6.03 0 3.06 0 0 Z " fill="#ECB2B4" transform="translate(96,215)"/>
<path d="M0 0 C2.125 0.9375 2.125 0.9375 4 2 C3.67 2.66 3.34 3.32 3 4 C3.99 4.33 4.98 4.66 6 5 C6 5.66 6 6.32 6 7 C11.61 7 17.22 7 23 7 C23 7.33 23 7.66 23 8 C13.43 8 3.86 8 -6 8 C-6 7.01 -6 6.02 -6 5 C-4.02 5 -2.04 5 0 5 C0 4.34 0 3.68 0 3 C-0.66 3 -1.32 3 -2 3 C-2 2.34 -2 1.68 -2 1 C-1.34 0.67 -0.68 0.34 0 0 Z " fill="#D01D29" transform="translate(182,201)"/>
<path d="M0 0 C1.51400391 0.01740234 1.51400391 0.01740234 3.05859375 0.03515625 C4.07050781 0.04417969 5.08242187 0.05320313 6.125 0.0625 C7.29869141 0.07990234 7.29869141 0.07990234 8.49609375 0.09765625 C7.50609375 0.42765625 6.51609375 0.75765625 5.49609375 1.09765625 C5.49609375 1.75765625 5.49609375 2.41765625 5.49609375 3.09765625 C6.48609375 3.42765625 7.47609375 3.75765625 8.49609375 4.09765625 C7.50609375 4.09765625 6.51609375 4.09765625 5.49609375 4.09765625 C5.49609375 4.75765625 5.49609375 5.41765625 5.49609375 6.09765625 C6.48609375 6.42765625 7.47609375 6.75765625 8.49609375 7.09765625 C6.68367323 7.12452904 4.87114142 7.1439934 3.05859375 7.16015625 C2.04925781 7.17175781 1.03992188 7.18335938 0 7.1953125 C-2.50390625 7.09765625 -2.50390625 7.09765625 -3.50390625 6.09765625 C-3.62890625 3.59765625 -3.62890625 3.59765625 -3.50390625 1.09765625 C-2.50390625 0.09765625 -2.50390625 0.09765625 0 0 Z " fill="#DB7F84" transform="translate(232.50390625,215.90234375)"/>
<path d="M0 0 C0.33 0 0.66 0 1 0 C1.02684679 2.64590014 1.04676357 5.29153096 1.0625 7.9375 C1.07087891 8.69224609 1.07925781 9.44699219 1.08789062 10.22460938 C1.09652441 12.14994313 1.05224333 14.07535581 1 16 C0 17 0 17 -2.06640625 17.09765625 C-2.89011719 17.08605469 -3.71382812 17.07445312 -4.5625 17.0625 C-5.38878906 17.05347656 -6.21507813 17.04445312 -7.06640625 17.03515625 C-8.02353516 17.01775391 -8.02353516 17.01775391 -9 17 C-9 16.01 -9 15.02 -9 14 C-7.02 14 -5.04 14 -3 14 C-3 13.34 -3 12.68 -3 12 C-6.96 12 -10.92 12 -15 12 C-15 11.67 -15 11.34 -15 11 C-14.16855469 10.93941406 -13.33710937 10.87882813 -12.48046875 10.81640625 C-11.39378906 10.73261719 -10.30710937 10.64882812 -9.1875 10.5625 C-8.10855469 10.48128906 -7.02960938 10.40007812 -5.91796875 10.31640625 C-2.94010095 10.09787539 -2.94010095 10.09787539 0 9 C0 6.03 0 3.06 0 0 Z " fill="#D4131F" transform="translate(132,192)"/>
<path d="M0 0 C1.32 0 2.64 0 4 0 C4 0.99 4 1.98 4 3 C5.32 3 6.64 3 8 3 C8 3.99 8 4.98 8 6 C6.02 6.33 4.04 6.66 2 7 C2 9.31 2 11.62 2 14 C1.01 14.495 1.01 14.495 0 15 C-0.99 14.34 -1.98 13.68 -3 13 C-2.01 13 -1.02 13 0 13 C0 12.34 0 11.68 0 11 C-0.99 11 -1.98 11 -3 11 C-2.44894091 7.0507432 -1.61064629 3.65079826 0 0 Z " fill="#D61A26" transform="translate(71,184)"/>
<path d="M0 0 C4.3177458 0.50797009 8.03302114 1.19682779 12 3 C11.34 4.32 10.68 5.64 10 7 C9.319375 6.814375 8.63875 6.62875 7.9375 6.4375 C2.98663274 5.70013679 -0.82954142 6.21969428 -5 9 C-5 8.01 -5 7.02 -5 6 C-6.65 6 -8.3 6 -10 6 C-10 5.67 -10 5.34 -10 5 C-5.71 5 -1.42 5 3 5 C3 4.34 3 3.68 3 3 C2.01 2.67 1.02 2.34 0 2 C0 1.34 0 0.68 0 0 Z " fill="#E20311" transform="translate(194,188)"/>
<path d="M0 0 C0.66 0.66 1.32 1.32 2 2 C2.99 2 3.98 2 5 2 C5 6.95 5 11.9 5 17 C3.35 17 1.7 17 0 17 C-0.33 17.66 -0.66 18.32 -1 19 C-1 18.01 -1 17.02 -1 16 C0.65 16 2.3 16 4 16 C3.67 15.01 3.34 14.02 3 13 C2.01 13 1.02 13 0 13 C0 8.71 0 4.42 0 0 Z " fill="#DC4C55" transform="translate(228,189)"/>
<path d="M0 0 C2.97 0 5.94 0 9 0 C9 0.99 9 1.98 9 3 C7.68 3 6.36 3 5 3 C4.67 5.64 4.34 8.28 4 11 C2.68 11.33 1.36 11.66 0 12 C0 9.69 0 7.38 0 5 C0.66 5 1.32 5 2 5 C2 4.34 2 3.68 2 3 C1.34 3 0.68 3 0 3 C0 2.01 0 1.02 0 0 Z " fill="#EB858B" transform="translate(84,193)"/>
<path d="M0 0 C0.33 0 0.66 0 1 0 C1 6.27 1 12.54 1 19 C0.67 18.01 0.34 17.02 0 16 C-1.32 16.33 -2.64 16.66 -4 17 C-4 15.68 -4 14.36 -4 13 C-2.68 13 -1.36 13 0 13 C0 12.34 0 11.68 0 11 C-1.32 11 -2.64 11 -4 11 C-4 10.01 -4 9.02 -4 8 C-3.01 8 -2.02 8 -1 8 C-1 7.01 -1 6.02 -1 5 C-2.98 5 -4.96 5 -7 5 C-6.67 4.34 -6.34 3.68 -6 3 C-4.02 3 -2.04 3 0 3 C0 2.01 0 1.02 0 0 Z " fill="#FAC7CA" transform="translate(79,187)"/>
<path d="M0 0 C3.63 0 7.26 0 11 0 C10.01 0.33 9.02 0.66 8 1 C8 1.66 8 2.32 8 3 C8.99 3.33 9.98 3.66 11 4 C10.01 4 9.02 4 8 4 C8 4.66 8 5.32 8 6 C8.99 6.33 9.98 6.66 11 7 C7.37 7 3.74 7 0 7 C0 4.69 0 2.38 0 0 Z " fill="#D24F55" transform="translate(83,216)"/>
<path d="M0 0 C1.32 0 2.64 0 4 0 C4 0.66 4 1.32 4 2 C5.32 2 6.64 2 8 2 C8 2.66 8 3.32 8 4 C6.68 4 5.36 4 4 4 C4.33 4.99 4.66 5.98 5 7 C3.02 7.99 3.02 7.99 1 9 C1 8.34 1 7.68 1 7 C0.34 6.67 -0.32 6.34 -1 6 C-0.67 5.34 -0.34 4.68 0 4 C-2.64 4 -5.28 4 -8 4 C-8 3.34 -8 2.68 -8 2 C-5.36 2 -2.72 2 0 2 C0 1.34 0 0.68 0 0 Z " fill="#CE0F1C" transform="translate(149,184)"/>
<path d="M0 0 C1.65 0 3.3 0 5 0 C5.36619718 5.49295775 5.36619718 5.49295775 3.78125 7.6875 C1.47956546 9.38347808 0.13893251 9.31038837 -2.6875 9.1875 C-3.89986328 9.14689453 -3.89986328 9.14689453 -5.13671875 9.10546875 C-5.75160156 9.07066406 -6.36648437 9.03585938 -7 9 C-7 8.67 -7 8.34 -7 8 C-5.02 7.67 -3.04 7.34 -1 7 C-3.97 6.505 -3.97 6.505 -7 6 C-7 5.34 -7 4.68 -7 4 C-4.69 4.33 -2.38 4.66 0 5 C0 3.35 0 1.7 0 0 Z " fill="#D91E29" transform="translate(58,200)"/>
<path d="M0 0 C0.33 0 0.66 0 1 0 C1 3.96 1 7.92 1 12 C0.01 12.33 -0.98 12.66 -2 13 C-2 13.99 -2 14.98 -2 16 C-2.66 16 -3.32 16 -4 16 C-4 11.38 -4 6.76 -4 2 C-3.01 2 -2.02 2 -1 2 C-0.67 1.34 -0.34 0.68 0 0 Z " fill="#E15D64" transform="translate(240,189)"/>
<path d="M0 0 C0.125 5.75 0.125 5.75 -1 8 C-2.66611905 8.042721 -4.33382885 8.04063832 -6 8 C-7 7 -7 7 -7.0625 3.4375 C-7.041875 2.303125 -7.02125 1.16875 -7 0 C-3.86650268 -1.04449911 -3.01031744 -0.93423645 0 0 Z " fill="#E49597" transform="translate(166,215)"/>
<path d="M0 0 C3 0.125 3 0.125 4 1.125 C4.125 3.625 4.125 3.625 4 6.125 C3 7.125 3 7.125 0 7.25 C-3 7.125 -3 7.125 -4 6.125 C-4.125 3.625 -4.125 3.625 -4 1.125 C-3 0.125 -3 0.125 0 0 Z " fill="#C7393E" transform="translate(138,215.875)"/>
<path d="M0 0 C5.28 0 10.56 0 16 0 C16 0.33 16 0.66 16 1 C11.05 1 6.1 1 1 1 C1.33 7.93 1.66 14.86 2 22 C3.98 22 5.96 22 8 22 C4.77208445 24.1519437 3.71599191 24.20086443 0 24 C-1.01044795 20.96865616 -1.05032949 19.25604057 -0.87890625 16.11328125 C-0.83056641 15.17548828 -0.78222656 14.23769531 -0.73242188 13.27148438 C-0.67634766 12.29501953 -0.62027344 11.31855469 -0.5625 10.3125 C-0.51029297 9.32443359 -0.45808594 8.33636719 -0.40429688 7.31835938 C-0.27464936 4.87862889 -0.13799193 2.43927275 0 0 Z " fill="#C91720" transform="translate(80,185)"/>
<path d="M0 0 C2.5625 0.1875 2.5625 0.1875 4.5625 2.1875 C4.02678571 5.72321429 4.02678571 5.72321429 2.5625 7.1875 C0.0625 7.3125 0.0625 7.3125 -2.4375 7.1875 C-3.4375 6.1875 -3.4375 6.1875 -3.5625 3.6875 C-3.39599509 0.35740177 -3.31519894 0.2550153 0 0 Z " fill="#BE2930" transform="translate(68.4375,215.8125)"/>
<path d="M0 0 C0.66 0 1.32 0 2 0 C2.12375 1.11375 2.2475 2.2275 2.375 3.375 C2.6465813 7.03103677 2.6465813 7.03103677 5 9 C4.01 9.495 4.01 9.495 3 10 C3 12.64 3 15.28 3 18 C2.01 18 1.02 18 0 18 C0 12.06 0 6.12 0 0 Z " fill="#E20212" transform="translate(50,186)"/>
<path d="M0 0 C2.97 0.33 5.94 0.66 9 1 C9.33 2.65 9.66 4.3 10 6 C8.35 6.66 6.7 7.32 5 8 C5 7.34 5 6.68 5 6 C3.35 5.67 1.7 5.34 0 5 C0 3.35 0 1.7 0 0 Z " fill="#D52430" transform="translate(160,192)"/>
<path d="M0 0 C5.28 0 10.56 0 16 0 C16 0.99 16 1.98 16 3 C10.72 3 5.44 3 0 3 C0 2.01 0 1.02 0 0 Z " fill="#CD1B25" transform="translate(211,185)"/>
<path d="M0 0 C0.99 0 1.98 0 3 0 C3.33 2.31 3.66 4.62 4 7 C-0.62 7 -5.24 7 -10 7 C-10 6.01 -10 5.02 -10 4 C-7.36 4.33 -4.72 4.66 -2 5 C-2 4.34 -2 3.68 -2 3 C-1.34 3 -0.68 3 0 3 C0 2.01 0 1.02 0 0 Z " fill="#D41522" transform="translate(238,202)"/>
<path d="M0 0 C1.66611905 -0.042721 3.33382885 -0.04063832 5 0 C5.33 0.33 5.66 0.66 6 1 C6.99 1 7.98 1 9 1 C8.67 1.99 8.34 2.98 8 4 C9.65 4.33 11.3 4.66 13 5 C12.67 5.99 12.34 6.98 12 8 C12 7.34 12 6.68 12 6 C10.02 6 8.04 6 6 6 C6 5.01 6 4.02 6 3 C5.34 3 4.68 3 4 3 C4 3.99 4 4.98 4 6 C2.68 6 1.36 6 0 6 C0 4.02 0 2.04 0 0 Z " fill="#E88488" transform="translate(193,200)"/>
<path d="M0 0 C0 0.66 0 1.32 0 2 C-0.99 2.66 -1.98 3.32 -3 4 C-1.68 4.66 -0.36 5.32 1 6 C0.01 7.485 0.01 7.485 -1 9 C-2.65 8.67 -4.3 8.34 -6 8 C-6 4 -6 4 -5 2 C-5.99 1.67 -6.98 1.34 -8 1 C-3.375 -1.125 -3.375 -1.125 0 0 Z " fill="#D41320" transform="translate(98,200)"/>
<path d="M0 0 C0.7734375 0.61875 0.7734375 0.61875 1.5625 1.25 C-1.4280167 4.58557632 -4.36934627 6.40083921 -8.4375 8.25 C-8.7675 6.6 -9.0975 4.95 -9.4375 3.25 C-3.0375 -0.93461538 -3.0375 -0.93461538 0 0 Z " fill="#D61723" transform="translate(61.4375,188.75)"/>
<path d="M0 0 C1.32 0 2.64 0 4 0 C3.125 7.75 3.125 7.75 2 10 C0.68 10 -0.64 10 -2 10 C-1.54177532 6.53058454 -1.10868317 3.32604951 0 0 Z " fill="#D71925" transform="translate(106,199)"/>
<path d="M0 0 C1.32 0 2.64 0 4 0 C4 2.31 4 4.62 4 7 C6.31 7 8.62 7 11 7 C9.85546875 8.48828125 9.85546875 8.48828125 8 10 C5.30078125 10.29296875 5.30078125 10.29296875 2.3125 10.1875 C1.31863281 10.16042969 0.32476562 10.13335937 -0.69921875 10.10546875 C-1.45847656 10.07066406 -2.21773438 10.03585938 -3 10 C-3 9.67 -3 9.34 -3 9 C-1.35 8.67 0.3 8.34 2 8 C2.33 5.69 2.66 3.38 3 1 C2.34 1 1.68 1 1 1 C1 2.98 1 4.96 1 7 C0.67 7 0.34 7 0 7 C0 4.69 0 2.38 0 0 Z " fill="#CD0D19" transform="translate(121,184)"/>
<path d="M0 0 C0.99 0 1.98 0 3 0 C3.66 0.99 4.32 1.98 5 3 C5.66 2.01 6.32 1.02 7 0 C7.66 0 8.32 0 9 0 C9 2.31 9 4.62 9 7 C8.34 6.01 7.68 5.02 7 4 C6.67 4.99 6.34 5.98 6 7 C4 7 2 7 0 7 C0 4.69 0 2.38 0 0 Z " fill="#C73B44" transform="translate(167,216)"/>
<path d="M0 0 C1.9375 0.375 1.9375 0.375 4 1 C4.33 1.66 4.66 2.32 5 3 C5.33 2.01 5.66 1.02 6 0 C6.66 0 7.32 0 8 0 C8 2.31 8 4.62 8 7 C7.01 7 6.02 7 5 7 C4.34 6.01 3.68 5.02 3 4 C2.67 4.99 2.34 5.98 2 7 C1.34 7 0.68 7 0 7 C0 4.69 0 2.38 0 0 Z " fill="#CC444B" transform="translate(143,216)"/>
<path d="M0 0 C1.98 0 3.96 0 6 0 C6 3.63 6 7.26 6 11 C4.02 11.99 4.02 11.99 2 13 C2.66 9.7 3.32 6.4 4 3 C2.68 3 1.36 3 0 3 C0 2.01 0 1.02 0 0 Z " fill="#F8E0E0" transform="translate(106,196)"/>
<path d="M0 0 C3.3 0 6.6 0 10 0 C10 0.33 10 0.66 10 1 C7.03 1 4.06 1 1 1 C1 1.66 1 2.32 1 3 C3.97 3 6.94 3 10 3 C10 4.98 10 6.96 10 9 C8.68 8.67 7.36 8.34 6 8 C6 7.01 6 6.02 6 5 C3.03 4.505 3.03 4.505 0 4 C0 2.68 0 1.36 0 0 Z " fill="#E98B90" transform="translate(178,197)"/>
<path d="M0 0 C0.99 0 1.98 0 3 0 C3.66 0.99 4.32 1.98 5 3 C5.33 2.01 5.66 1.02 6 0 C6.66 0 7.32 0 8 0 C8 2.31 8 4.62 8 7 C7.01 7 6.02 7 5 7 C4.34 6.01 3.68 5.02 3 4 C2.67 4.99 2.34 5.98 2 7 C1.34 7 0.68 7 0 7 C0 4.69 0 2.38 0 0 Z " fill="#CA3D45" transform="translate(46,216)"/>
<path d="M0 0 C0.99 0 1.98 0 3 0 C3.66 0.99 4.32 1.98 5 3 C5.33 2.01 5.66 1.02 6 0 C6.66 0 7.32 0 8 0 C8 2.31 8 4.62 8 7 C7.01 7 6.02 7 5 7 C4.34 6.01 3.68 5.02 3 4 C2.67 4.99 2.34 5.98 2 7 C1.34 7 0.68 7 0 7 C0 4.69 0 2.38 0 0 Z " fill="#D5444D" transform="translate(203,216)"/>
<path d="M0 0 C5.94 0 11.88 0 18 0 C18.33 1.98 18.66 3.96 19 6 C17.68 6 16.36 6 15 6 C15 4.68 15 3.36 15 2 C10.05 2 5.1 2 0 2 C0 1.34 0 0.68 0 0 Z " fill="#D80B17" transform="translate(147,198)"/>
<path d="M0 0 C0.66 0 1.32 0 2 0 C2 2.31 2 4.62 2 7 C2.66 7 3.32 7 4 7 C4 5.02 4 3.04 4 1 C4.66 1 5.32 1 6 1 C6.125 6.75 6.125 6.75 5 9 C3.35 9 1.7 9 0 9 C0 6.03 0 3.06 0 0 Z " fill="#D8666A" transform="translate(96,215)"/>
<path d="M0 0 C-0.33 2.64 -0.66 5.28 -1 8 C-2.65 7.67 -4.3 7.34 -6 7 C-5.979375 6.21625 -5.95875 5.4325 -5.9375 4.625 C-5.81315937 2.01885039 -5.81315937 2.01885039 -7 0 C-3.86650268 -1.04449911 -3.01031744 -0.93423645 0 0 Z " fill="#F8D5D5" transform="translate(97,215)"/>
<path d="M0 0 C0.99 1.32 1.98 2.64 3 4 C2.67 4.66 2.34 5.32 2 6 C-0.02328299 11.94339377 -0.57075682 17.7533822 -1 24 C-1.33 24 -1.66 24 -2 24 C-2.2144997 15.72984476 -2.07422976 8.03764031 0 0 Z " fill="#E74343" transform="translate(72,82)"/>
<path d="M0 0 C1.65 0 3.3 0 5 0 C6.125 4.75 6.125 4.75 5 7 C4.34 6.34 3.68 5.68 3 5 C2.67 5.66 2.34 6.32 2 7 C1.34 7 0.68 7 0 7 C0 4.69 0 2.38 0 0 Z " fill="#CD454B" transform="translate(184,216)"/>
<path d="M0 0 C2.475 0.495 2.475 0.495 5 1 C5 2.65 5 4.3 5 6 C3.35 6.33 1.7 6.66 0 7 C0 4.69 0 2.38 0 0 Z " fill="#D24C53" transform="translate(32,216)"/>
<path d="M0 0 C4.62 0 9.24 0 14 0 C14 1.32 14 2.64 14 4 C14.66 4.33 15.32 4.66 16 5 C13.69 4.67 11.38 4.34 9 4 C9 3.01 9 2.02 9 1 C6.03 1 3.06 1 0 1 C0 0.67 0 0.34 0 0 Z " fill="#FAC1C3" transform="translate(148,200)"/>
<path d="M0 0 C0 4.49780869 -2.72738841 6.58054862 -5.625 9.8125 C-7 11 -7 11 -9 11 C-9.33 11.99 -9.66 12.98 -10 14 C-10.33 13.34 -10.66 12.68 -11 12 C-9.73452987 10.37081993 -8.46242272 8.74679358 -7.1875 7.125 C-6.47980469 6.22007813 -5.77210937 5.31515625 -5.04296875 4.3828125 C-3 2 -3 2 0 0 Z " fill="#EE433F" transform="translate(92,50)"/>
<path d="M0 0 C0.99 0 1.98 0 3 0 C3.66 0.99 4.32 1.98 5 3 C5.66 2.01 6.32 1.02 7 0 C7 2.31 7 4.62 7 7 C6.01 6.67 5.02 6.34 4 6 C3.67 5.34 3.34 4.68 3 4 C2.67 4.99 2.34 5.98 2 7 C1.34 7 0.68 7 0 7 C0 4.69 0 2.38 0 0 Z " fill="#CC323A" transform="translate(220,216)"/>
<path d="M0 0 C3.63 0 7.26 0 11 0 C10.01 0.495 10.01 0.495 9 1 C9 1.66 9 2.32 9 3 C4.545 3.495 4.545 3.495 0 4 C0 2.68 0 1.36 0 0 Z " fill="#E63C46" transform="translate(214,190)"/>
<path d="M0 0 C5.27749285 0.53851968 9.25645564 1.77343836 14 4 C10.95781049 5.01406317 8.18819752 5.66083005 5 6 C4.34 5.34 3.68 4.68 3 4 C3.33 3.67 3.66 3.34 4 3 C2.68 2.01 1.36 1.02 0 0 Z " fill="#EF352F" transform="translate(147,68)"/>
<path d="M0 0 C-0.33 1.98 -0.66 3.96 -1 6 C-2.98 5.34 -4.96 4.68 -7 4 C-6.67 2.68 -6.34 1.36 -6 0 C-2.25 -1.125 -2.25 -1.125 0 0 Z " fill="#FBE8E8" transform="translate(135,217)"/>
<path d="M0 0 C3.875 1.875 3.875 1.875 5 3 C5.66 2.01 6.32 1.02 7 0 C7 2.31 7 4.62 7 7 C6.01 6.67 5.02 6.34 4 6 C3.67 5.34 3.34 4.68 3 4 C2.67 4.99 2.34 5.98 2 7 C1.34 7 0.68 7 0 7 C0 4.69 0 2.38 0 0 Z " fill="#C82C35" transform="translate(107,216)"/>
<path d="M0 0 C1.65 0 3.3 0 5 0 C6 3 6 3 5 6 C3.35 6 1.7 6 0 6 C0 4.02 0 2.04 0 0 Z " fill="#DD565F" transform="translate(153,188)"/>
<path d="M0 0 C0.99 0 1.98 0 3 0 C3 1.32 3 2.64 3 4 C4.32 4 5.64 4 7 4 C7 2.68 7 1.36 7 0 C8.65 0 10.3 0 12 0 C10.25 3.875 10.25 3.875 8 5 C5.6670134 5.04022391 3.33293334 5.04320247 1 5 C1.33 3.68 1.66 2.36 2 1 C1.34 0.67 0.68 0.34 0 0 Z " fill="#FCE5E4" transform="translate(141,201)"/>
<path d="M0 0 C4.95 0 9.9 0 15 0 C14.01 0.33 13.02 0.66 12 1 C12 1.66 12 2.32 12 3 C7.71 2.67 3.42 2.34 -1 2 C-0.67 1.34 -0.34 0.68 0 0 Z " fill="#F1A6AB" transform="translate(151,196)"/>
<path d="M0 0 C2.375 -0.125 2.375 -0.125 5 0 C5.66 0.66 6.32 1.32 7 2 C9.57061311 2.64767793 9.57061311 2.64767793 12 3 C9.31158141 5.25245881 7.35358125 6.88213958 4 8 C4 5.69 4 3.38 4 1 C2.68 0.67 1.36 0.34 0 0 Z " fill="#F8D0D0" transform="translate(49,184)"/>
<path d="M0 0 C0.78375 0.185625 1.5675 0.37125 2.375 0.5625 C4.97089775 1.25962266 4.97089775 1.25962266 7 0 C6.67 0.99 6.34 1.98 6 3 C3.11788698 3.96070434 1.30149956 4.10581883 -1.6875 4.0625 C-2.89986328 4.04896484 -2.89986328 4.04896484 -4.13671875 4.03515625 C-5.05904297 4.01775391 -5.05904297 4.01775391 -6 4 C-6 3.34 -6 2.68 -6 2 C-4.02 2 -2.04 2 0 2 C0 1.34 0 0.68 0 0 Z " fill="#FDE0E1" transform="translate(199,193)"/>
<path d="M0 0 C2.64 0.99 5.28 1.98 8 3 C7.34 4.32 6.68 5.64 6 7 C3.5625 6.3125 3.5625 6.3125 1 5 C0.1875 2.375 0.1875 2.375 0 0 Z " fill="#D61C28" transform="translate(198,188)"/>
<path d="M0 0 C2.31 0 4.62 0 7 0 C7 1.66666667 7 3.33333333 7 5 C5.35 5 3.7 5 2 5 C2 4.01 2 3.02 2 2 C1.34 2 0.68 2 0 2 C-0.33 2.99 -0.66 3.98 -1 5 C-0.67 3.35 -0.34 1.7 0 0 Z " fill="#DC555C" transform="translate(142,189)"/>
<path d="M0 0 C0 0.66 0 1.32 0 2 C-1.32 2 -2.64 2 -4 2 C-3.67 2.99 -3.34 3.98 -3 5 C-4.98 5.99 -4.98 5.99 -7 7 C-7 6.34 -7 5.68 -7 5 C-7.66 4.67 -8.32 4.34 -9 4 C-8.34 4 -7.68 4 -7 4 C-7 3.01 -7 2.02 -7 1 C-4.53721199 -0.231394 -2.7204945 -0.07159196 0 0 Z " fill="#DC0513" transform="translate(157,186)"/>
<path d="M0 0 C3.62528568 -0.20140476 5.86501708 0.14223235 9 2 C9 3.65 9 5.3 9 7 C5.18315774 5.44499019 2.80804268 2.96404505 0 0 Z " fill="#E5272B" transform="translate(194,109)"/>
<path d="M0 0 C4 0 4 0 6 1 C5.01 2.485 5.01 2.485 4 4 C4.99 5.485 4.99 5.485 6 7 C4 7 2 7 0 7 C0 4.69 0 2.38 0 0 Z " fill="#C83A42" transform="translate(55,216)"/>
<path d="M0 0 C0.99 0 1.98 0 3 0 C3.66 2.31 4.32 4.62 5 7 C2.525 6.01 2.525 6.01 0 5 C0 5.66 0 6.32 0 7 C-0.66 7 -1.32 7 -2 7 C-1.34 4.69 -0.68 2.38 0 0 Z " fill="#CD3C42" transform="translate(40,216)"/>
<path d="M0 0 C-0.33 1.65 -0.66 3.3 -1 5 C-3.31 5 -5.62 5 -8 5 C-8 4.67 -8 4.34 -8 4 C-6.02 4 -4.04 4 -2 4 C-2 3.34 -2 2.68 -2 2 C-3.98 2.33 -5.96 2.66 -8 3 C-8 2.34 -8 1.68 -8 1 C-5.10765685 0.17361624 -3.11257569 0 0 0 Z " fill="#DA4852" transform="translate(169,187)"/>
<path d="M0 0 C0.99 0.33 1.98 0.66 3 1 C4.1875 4.0625 4.1875 4.0625 5 7 C4.34 7 3.68 7 3 7 C3 6.34 3 5.68 3 5 C1.35 5.66 -0.3 6.32 -2 7 C-1.34 4.69 -0.68 2.38 0 0 Z " fill="#CA383F" transform="translate(214,216)"/>
<path d="M0 0 C4.875 1.75 4.875 1.75 6 4 C2.37 4 -1.26 4 -5 4 C-3.35 2.68 -1.7 1.36 0 0 Z " fill="#FCDFDF" transform="translate(190,188)"/>
<path d="M0 0 C1.98 0.66 3.96 1.32 6 2 C5.67 2.99 5.34 3.98 5 5 C2.03 4.67 -0.94 4.34 -4 4 C-2.68 3.67 -1.36 3.34 0 3 C0 2.01 0 1.02 0 0 Z " fill="#D53840" transform="translate(164,204)"/>
<path d="M0 0 C1.98 0 3.96 0 6 0 C6 0.99 6 1.98 6 3 C5.01 3 4.02 3 3 3 C3 3.66 3 4.32 3 5 C2.01 5 1.02 5 0 5 C0 3.35 0 1.7 0 0 Z " fill="#D60A16" transform="translate(72,192)"/>
<path d="M0 0 C1.65 0.99 3.3 1.98 5 3 C4.67 3.99 4.34 4.98 4 6 C1.525 5.01 1.525 5.01 -1 4 C-1 1 -1 1 0 0 Z " fill="#D32832" transform="translate(106,184)"/>
<path d="M0 0 C1.98 0.495 1.98 0.495 4 1 C3.01 1.495 3.01 1.495 2 2 C2.99 2.99 3.98 3.98 5 5 C4.67 5.66 4.34 6.32 4 7 C2.35 7 0.7 7 -1 7 C-0.67 6.34 -0.34 5.68 0 5 C0.66 5 1.32 5 2 5 C1.01 4.34 0.02 3.68 -1 3 C-0.67 2.01 -0.34 1.02 0 0 Z " fill="#C1363D" transform="translate(153,216)"/>
<path d="M0 0 C1.22589844 0.15275391 1.22589844 0.15275391 2.4765625 0.30859375 C3.41628906 0.43427734 3.41628906 0.43427734 4.375 0.5625 C4.375 1.2225 4.375 1.8825 4.375 2.5625 C2.91707116 2.61649736 1.45857288 2.65529177 0 2.6875 C-0.81210938 2.71070313 -1.62421875 2.73390625 -2.4609375 2.7578125 C-4.625 2.5625 -4.625 2.5625 -6.625 0.5625 C-4.10446405 -0.69776798 -2.7707902 -0.35624445 0 0 Z " fill="#FCE1E1" transform="translate(183.625,194.4375)"/>
<path d="M0 0 C2.475 0.99 2.475 0.99 5 2 C5 2.99 5 3.98 5 5 C3.68 5 2.36 5 1 5 C0.34 4.01 -0.32 3.02 -1 2 C-0.67 1.34 -0.34 0.68 0 0 Z " fill="#D1222C" transform="translate(105,191)"/>
<path d="M0 0 C1.65 0 3.3 0 5 0 C4.01 0.33 3.02 0.66 2 1 C2 1.66 2 2.32 2 3 C2.66 3.33 3.32 3.66 4 4 C3.34 4 2.68 4 2 4 C2 4.66 2 5.32 2 6 C2.99 6.33 3.98 6.66 5 7 C3.35 7 1.7 7 0 7 C0 4.69 0 2.38 0 0 Z " fill="#C22C34" transform="translate(178,216)"/>
<path d="M0 0 C1 3 1 3 -0.375 6.0625 C-0.91125 7.031875 -1.4475 8.00125 -2 9 C-2.33 9.66 -2.66 10.32 -3 11 C-3.66 11 -4.32 11 -5 11 C-3.77472971 6.94718288 -2.30119506 3.55639236 0 0 Z " fill="#EC3A36" transform="translate(80,64)"/>
<path d="M0 0 C1.98 0.495 1.98 0.495 4 1 C3.67 2.32 3.34 3.64 3 5 C1.68 4.67 0.36 4.34 -1 4 C-0.67 2.68 -0.34 1.36 0 0 Z " fill="#FDE7E6" transform="translate(67,217)"/>
<path d="M0 0 C0.66 0 1.32 0 2 0 C2.04241723 2.33294775 2.04092937 4.66702567 2 7 C1 8 1 8 -2.0625 8.0625 C-3.031875 8.041875 -4.00125 8.02125 -5 8 C-4.0409375 7.690625 -4.0409375 7.690625 -3.0625 7.375 C-0.65074923 6.10461791 -0.65074923 6.10461791 -0.25 2.875 C-0.1675 1.92625 -0.085 0.9775 0 0 Z " fill="#E50211" transform="translate(122,185)"/>
<path d="M0 0 C0.99 0.33 1.98 0.66 3 1 C2.34 2.32 1.68 3.64 1 5 C-0.65 4.67 -2.3 4.34 -4 4 C-2.68 2.68 -1.36 1.36 0 0 Z " fill="#CF1D25" transform="translate(130,185)"/>
<path d="M0 0 C1.32 0 2.64 0 4 0 C4 1.65 4 3.3 4 5 C2.68 5 1.36 5 0 5 C0 3.35 0 1.7 0 0 Z " fill="#FAE2E3" transform="translate(136,217)"/>
<path d="M0 0 C0.33 0.66 0.66 1.32 1 2 C0.34 2.66 -0.32 3.32 -1 4 C-1 4.66 -1 5.32 -1 6 C-2.32 5.67 -3.64 5.34 -5 5 C-4.67 3.68 -4.34 2.36 -4 1 C-2.68 0.67 -1.36 0.34 0 0 Z " fill="#F5CCCE" transform="translate(122,216)"/>
<path d="M0 0 C1.65 0 3.3 0 5 0 C4.01 0.33 3.02 0.66 2 1 C2 1.66 2 2.32 2 3 C2.99 3.33 3.98 3.66 5 4 C4.01 4 3.02 4 2 4 C2 4.99 2 5.98 2 7 C1.34 7 0.68 7 0 7 C0 4.69 0 2.38 0 0 Z " fill="#C4333B" transform="translate(74,216)"/>
<path d="M0 0 C1.27875 -0.061875 2.5575 -0.12375 3.875 -0.1875 C4.95394531 -0.23970703 4.95394531 -0.23970703 6.0546875 -0.29296875 C6.69664062 -0.19628906 7.33859375 -0.09960938 8 0 C8.66 0.99 9.32 1.98 10 3 C7.03 3 4.06 3 1 3 C0.67 2.01 0.34 1.02 0 0 Z " fill="#D12C35" transform="translate(140,206)"/>
<path d="M0 0 C3.63 0.33 7.26 0.66 11 1 C11 1.33 11 1.66 11 2 C7.37 2.33 3.74 2.66 0 3 C0 2.01 0 1.02 0 0 Z " fill="#D41F2B" transform="translate(228,206)"/>
<path d="M0 0 C1.9375 0.8125 1.9375 0.8125 4 2 C4.33 2.99 4.66 3.98 5 5 C3.35 4.67 1.7 4.34 0 4 C0 2.68 0 1.36 0 0 Z " fill="#D11721" transform="translate(114,185)"/>
<path d="M0 0 C1.5625 1.125 1.5625 1.125 3 3 C2.875 6.0625 2.875 6.0625 2 9 C1.01 9.66 0.02 10.32 -1 11 C-0.9278125 10.37351563 -0.855625 9.74703125 -0.78125 9.1015625 C-0.6884375 8.28429687 -0.595625 7.46703125 -0.5 6.625 C-0.4071875 5.81289062 -0.314375 5.00078125 -0.21875 4.1640625 C0.03352351 2.03087175 0.03352351 2.03087175 0 0 Z " fill="#F8D9D8" transform="translate(164,130)"/>
<path d="M0 0 C0.66 0 1.32 0 2 0 C2 2.31 2 4.62 2 7 C1.34 6.01 0.68 5.02 0 4 C-0.33 4.99 -0.66 5.98 -1 7 C-1.66 7 -2.32 7 -3 7 C-1.125 1.125 -1.125 1.125 0 0 Z " fill="#C5292E" transform="translate(174,216)"/>
<path d="M0 0 C1.65 0 3.3 0 5 0 C4.01 0.33 3.02 0.66 2 1 C2 1.66 2 2.32 2 3 C2.66 3.33 3.32 3.66 4 4 C3.34 4 2.68 4 2 4 C2 4.99 2 5.98 2 7 C1.34 7 0.68 7 0 7 C0 4.69 0 2.38 0 0 Z " fill="#C0333C" transform="translate(194,216)"/>
<path d="M0 0 C0.33 2.31 0.66 4.62 1 7 C0.01 6.67 -0.98 6.34 -2 6 C-2 5.01 -2 4.02 -2 3 C-2.99 2.67 -3.98 2.34 -5 2 C-2 0 -2 0 0 0 Z " fill="#FAD6D9" transform="translate(159,216)"/>
<path d="M0 0 C-0.57344937 2.86724686 -0.8614515 3.8614515 -3 6 C-3 5.01 -3 4.02 -3 3 C-3.66 3 -4.32 3 -5 3 C-5 2.34 -5 1.68 -5 1 C-5.66 0.67 -6.32 0.34 -7 0 C-3.86650268 -1.04449911 -3.01031744 -0.93423645 0 0 Z " fill="#F8D7D7" transform="translate(62,215)"/>
<path d="M0 0 C1.98 0.99 1.98 0.99 4 2 C3.01 3.485 3.01 3.485 2 5 C2.99 5.66 3.98 6.32 5 7 C3.35 7 1.7 7 0 7 C0 4.69 0 2.38 0 0 Z " fill="#F9CED0" transform="translate(125,184)"/>
<path d="M0 0 C2.475 0.99 2.475 0.99 5 2 C4.67 4.31 4.34 6.62 4 9 C2.00902154 6.01353231 1.05875074 3.40312738 0 0 Z " fill="#EC3734" transform="translate(183,79)"/>
<path d="M0 0 C2.125 0.9375 2.125 0.9375 4 2 C3.01 3.485 3.01 3.485 2 5 C1.34 5 0.68 5 0 5 C0 4.34 0 3.68 0 3 C-0.66 3 -1.32 3 -2 3 C-2 2.34 -2 1.68 -2 1 C-1.34 0.67 -0.68 0.34 0 0 Z " fill="#D31724" transform="translate(182,201)"/>
<path d="M0 0 C1.65 0 3.3 0 5 0 C5 1.98 5 3.96 5 6 C4.34 4.68 3.68 3.36 3 2 C2.01 2.99 1.02 3.98 0 5 C0 3.35 0 1.7 0 0 Z " fill="#D33B44" transform="translate(58,200)"/>
<path d="M0 0 C2.86724686 0.57344937 3.8614515 0.8614515 6 3 C6 3.66 6 4.32 6 5 C4.125 4.75 4.125 4.75 2 4 C0.75 1.9375 0.75 1.9375 0 0 Z " fill="#E0121F" transform="translate(89,144)"/>
</svg>
