<?xml version="1.0" encoding="UTF-8"?>
<svg version="1.1" xmlns="http://www.w3.org/2000/svg" width="408" height="408">
<path d="M0 0 C134.64 0 269.28 0 408 0 C408 134.64 408 269.28 408 408 C273.36 408 138.72 408 0 408 C0 273.36 0 138.72 0 0 Z " fill="#3B80CE" transform="translate(0,0)"/>
<path d="M0 0 C4.24474149 3.23279846 5.53838294 7.28424492 7.2421875 12.140625 C7.5330423 12.94046814 7.82389709 13.74031128 8.12356567 14.56439209 C9.05128065 17.12258841 9.96349157 19.68599008 10.875 22.25 C11.47941794 23.92746233 12.08487757 25.6045497 12.69140625 27.28125 C13.59533146 29.78159365 14.49817201 32.28228926 15.39678955 34.7845459 C17.43022472 40.44592952 19.51459998 46.08564996 21.63705444 51.71417236 C23.81306476 57.48821259 25.95657618 63.2739807 28.09375 69.0625 C28.63130417 70.51822418 28.63130417 70.51822418 29.17971802 72.00335693 C30.65821312 76.00824653 32.13597256 80.01340744 33.61376953 84.01855469 C34.34963368 86.01261369 35.08571564 88.00659233 35.82202148 90.00048828 C36.53848229 91.94127267 37.25415435 93.88234843 37.96899414 95.82373047 C39.57532524 100.17951147 41.19520837 104.52832319 42.8671875 108.859375 C43.15025757 109.59679932 43.43332764 110.33422363 43.72497559 111.09399414 C44.24404387 112.44176416 44.76845164 113.78749614 45.29943848 115.13061523 C46.54566941 118.37342905 47 120.44661538 47 124 C47.67052997 123.99723462 48.34105993 123.99446924 49.03190899 123.99162006 C65.34851123 123.9253627 81.66507085 123.87572066 97.98177624 123.84456348 C105.87242146 123.82909556 113.76297687 123.80800752 121.65356445 123.77368164 C128.53112371 123.74377693 135.40861793 123.72442445 142.2862404 123.71773452 C145.92780345 123.71382405 149.56918042 123.70463564 153.21068382 123.68280983 C157.27620061 123.65864036 161.34139403 123.65803069 165.40698242 123.65942383 C166.61395279 123.648638 167.82092316 123.63785217 169.06446838 123.6267395 C170.17359589 123.63086349 171.28272339 123.63498749 172.42546082 123.63923645 C173.3868909 123.63647107 174.34832098 123.63370569 175.33888531 123.63085651 C178.55412979 124.07686756 180.42920027 125.03479925 183 127 C183.75 130.25 183.75 130.25 183 134 C181.04783728 136.77783154 178.597203 138.83339785 176 141 C175.18917969 141.67804688 174.37835938 142.35609375 173.54296875 143.0546875 C171.71119513 144.56194485 169.87084757 146.05882415 168.0234375 147.546875 C164.80994974 150.15420099 161.65092655 152.81784484 158.5 155.5 C153.64722429 159.62450306 148.7418586 163.67666493 143.80078125 167.6953125 C140.73224401 170.2203292 137.70954078 172.79477805 134.6875 175.375 C130.15092309 179.24529048 125.52500805 182.97138182 120.8125 186.625 C115.79400829 190.51819541 111.03177211 194.59153995 106.3515625 198.890625 C103.22891937 201.69166701 99.96159499 204.28017536 96.6640625 206.87109375 C94.6725029 208.46258933 92.71617679 210.07345326 90.7734375 211.72265625 C90.22929199 212.18357666 89.68514648 212.64449707 89.12451172 213.11938477 C87.56969288 214.44077047 86.01911873 215.76714583 84.46875 217.09375 C82 219 82 219 80 219 C80.22550537 219.72662842 80.45101074 220.45325684 80.68334961 221.2019043 C81.36995699 223.41430585 82.05656152 225.62670828 82.74316406 227.83911133 C83.5484757 230.434009 84.35381771 233.02889725 85.15917969 235.6237793 C87.24853965 242.35580425 89.33757877 249.08792841 91.42578125 255.8203125 C93.61582945 262.88063029 95.80710774 269.94056503 98 277 C98.25233398 277.81243164 98.50466797 278.62486328 98.76464844 279.46191406 C103.22002441 293.79631752 107.77405397 308.09968009 112.37890625 322.38671875 C112.98460449 324.26665527 112.98460449 324.26665527 113.60253906 326.18457031 C114.39376116 328.63869986 115.18603548 331.09249047 115.97949219 333.54589844 C121.57857749 350.90851813 121.57857749 350.90851813 121 356 C119.9375 357.875 119.9375 357.875 118 359 C112.74872391 359.42981975 109.99791284 358.89668821 105.75 355.8125 C104.72003906 355.08417969 103.69007813 354.35585938 102.62890625 353.60546875 C102.0580127 353.19345215 101.48711914 352.78143555 100.89892578 352.35693359 C97.20506525 349.71737628 93.43842629 347.18244974 89.6875 344.625 C88.04033058 343.49614336 86.39319501 342.36723734 84.74609375 341.23828125 C78.83484912 337.19649594 72.87635816 333.22787049 66.91011047 329.26799011 C56.35846409 322.26348254 45.8452986 315.20447021 35.36212158 308.09790039 C33.13775079 306.59130419 30.91166846 305.08726919 28.68505859 303.58398438 C22.41595208 299.35053454 16.14930499 295.11639992 9.93359375 290.8046875 C9.09739502 290.23024902 8.26119629 289.65581055 7.3996582 289.06396484 C5.93407691 288.05628922 4.47499257 287.03906504 3.02416992 286.01025391 C-0.18769037 283.62906567 -0.18769037 283.62906567 -3.99020386 283.26542664 C-7.38800359 284.50731039 -10.23749458 286.66455641 -13.1953125 288.70703125 C-13.89596329 289.18390381 -14.59661407 289.66077637 -15.3184967 290.15209961 C-17.59096441 291.70031602 -19.85790943 293.25642314 -22.125 294.8125 C-23.68355141 295.87590286 -25.24255291 296.93864635 -26.80200195 298.00073242 C-29.84965 300.07665443 -32.89581042 302.15472855 -35.94091797 304.234375 C-40.66828894 307.45948495 -45.41955537 310.64770779 -50.1875 313.8125 C-50.87980713 314.27285645 -51.57211426 314.73321289 -52.28540039 315.20751953 C-54.77981897 316.86519699 -57.27603667 318.52014992 -59.77246094 320.17480469 C-68.38992303 325.88934034 -76.95345716 331.67985301 -85.5 337.5 C-92.5689159 342.31327137 -99.63760677 347.12610975 -106.75 351.875 C-107.32685547 352.26107422 -107.90371094 352.64714844 -108.49804688 353.04492188 C-109.99246014 354.03938597 -111.49587533 355.02028636 -113 356 C-113.87785156 356.57234375 -114.75570312 357.1446875 -115.66015625 357.734375 C-118.91605518 359.49549562 -121.36480087 359.41153198 -125 359 C-127.99117563 354.51323655 -126.97158878 351.15224423 -126 346 C-125.28850153 343.6861769 -124.53192124 341.38595868 -123.7421875 339.09765625 C-123.28690038 337.76193184 -122.83274988 336.42581957 -122.37963867 335.08935547 C-122.14900726 334.41024109 -121.91837585 333.73112671 -121.68075562 333.03143311 C-119.75389349 327.28151136 -117.98743728 321.47818224 -116.1875 315.6875 C-115.75089833 314.28700164 -115.31421052 312.88653013 -114.87744141 311.48608398 C-111.85954788 301.80138553 -108.87962169 292.10522889 -105.90795898 282.40625 C-103.24829576 273.75070892 -100.49803005 265.12558394 -97.72705078 256.50512695 C-95.73425903 250.30416852 -93.75677757 244.10139019 -91.8828125 237.86328125 C-91.22355655 235.72507501 -90.5242381 233.59914552 -89.8046875 231.48046875 C-89.41539063 230.31128906 -89.02609375 229.14210937 -88.625 227.9375 C-88.26664062 226.89464844 -87.90828125 225.85179687 -87.5390625 224.77734375 C-86.81523627 222.11078658 -86.81523627 222.11078658 -87.52734375 219.953125 C-89.64230346 217.14813865 -92.22996123 215.01570475 -94.9375 212.8125 C-95.52233154 212.32765137 -96.10716309 211.84280273 -96.7097168 211.34326172 C-98.4676616 209.88869069 -100.23304697 208.44360572 -102 207 C-102.90492187 206.25363281 -103.80984375 205.50726563 -104.7421875 204.73828125 C-108.7401836 201.45117503 -112.7612086 198.19273835 -116.78515625 194.9375 C-125.28020073 188.06026631 -133.68411933 181.09250633 -142 174 C-148.72789058 168.26744147 -155.47691992 162.58321928 -162.40625 157.09375 C-166.04545523 154.15607831 -169.59936614 151.12147476 -173.15722656 148.08618164 C-177.41145875 144.46729711 -181.75855037 140.98247947 -186.171875 137.55859375 C-188.89102005 135.24034829 -188.98201827 134.19779902 -189.3125 130.5625 C-189 127 -189 127 -187.32136154 125.29989147 C-184.50832177 123.72467523 -182.7603707 123.62999893 -179.54571533 123.63923645 C-178.43796249 123.63511246 -177.33020966 123.63098846 -176.18888855 123.6267395 C-174.97832291 123.63752533 -173.76775726 123.64831116 -172.52050781 123.65942383 C-170.60305504 123.65876671 -170.60305504 123.65876671 -168.64686584 123.65809631 C-165.14502159 123.65723571 -161.64348574 123.67487172 -158.14171314 123.69581819 C-154.48086422 123.71457427 -150.82000821 123.71633458 -147.15911865 123.71989441 C-140.22827889 123.72921804 -133.29758112 123.75383605 -126.36680388 123.78394288 C-118.4757084 123.81747705 -110.58460613 123.83397041 -102.69345713 123.84902918 C-86.46222163 123.88038538 -70.23112894 123.93315198 -54 124 C-53.70200752 122.992558 -53.70200752 122.992558 -53.397995 121.96476364 C-53.00122307 120.63119764 -53.00122307 120.63119764 -52.59643555 119.27069092 C-52.3358989 118.39281292 -52.07536224 117.51493492 -51.80693054 116.61045456 C-50.62605068 112.79025808 -49.23697886 109.06292695 -47.8125 105.328125 C-47.51333679 104.53500916 -47.21417358 103.74189331 -46.90594482 102.92474365 C-46.26875258 101.2362397 -45.63011249 99.54828149 -44.9901123 97.86083984 C-43.30413615 93.41506769 -41.62908003 88.96518246 -39.953125 84.515625 C-39.61750549 83.62532593 -39.28188599 82.73502686 -38.93609619 81.81774902 C-34.5802788 70.25076041 -30.34089286 58.64134629 -26.11230469 47.02734375 C-25.01434614 44.03904567 -23.89925431 41.05769882 -22.77935791 38.07757568 C-22.02024028 36.0539556 -21.26613898 34.02854273 -20.51367188 32.00244141 C-19.14682161 28.32464651 -17.76775618 24.65155006 -16.38427734 20.97998047 C-15.79122246 19.40057478 -15.20174328 17.81982213 -14.61572266 16.23779297 C-13.76339315 13.9388274 -12.89864557 11.64487898 -12.03125 9.3515625 C-11.64205383 8.28912827 -11.64205383 8.28912827 -11.24499512 7.20523071 C-8.93410474 1.16187126 -6.55681958 -0.80287587 0 0 Z " fill="#4182CB" transform="translate(207,22)"/>
<path d="M0 0 C4.24474149 3.23279846 5.53838294 7.28424492 7.2421875 12.140625 C7.5330423 12.94046814 7.82389709 13.74031128 8.12356567 14.56439209 C9.05128065 17.12258841 9.96349157 19.68599008 10.875 22.25 C11.47941794 23.92746233 12.08487757 25.6045497 12.69140625 27.28125 C13.59533146 29.78159365 14.49817201 32.28228926 15.39678955 34.7845459 C17.43022472 40.44592952 19.51459998 46.08564996 21.63705444 51.71417236 C23.81306476 57.48821259 25.95657618 63.2739807 28.09375 69.0625 C28.63130417 70.51822418 28.63130417 70.51822418 29.17971802 72.00335693 C30.65821312 76.00824653 32.13597256 80.01340744 33.61376953 84.01855469 C34.34963368 86.01261369 35.08571564 88.00659233 35.82202148 90.00048828 C36.53848229 91.94127267 37.25415435 93.88234843 37.96899414 95.82373047 C39.57532524 100.17951147 41.19520837 104.52832319 42.8671875 108.859375 C43.15025757 109.59679932 43.43332764 110.33422363 43.72497559 111.09399414 C44.24404387 112.44176416 44.76845164 113.78749614 45.29943848 115.13061523 C46.54566941 118.37342905 47 120.44661538 47 124 C47.67052997 123.99723462 48.34105993 123.99446924 49.03190899 123.99162006 C65.34851123 123.9253627 81.66507085 123.87572066 97.98177624 123.84456348 C105.87242146 123.82909556 113.76297687 123.80800752 121.65356445 123.77368164 C128.53112371 123.74377693 135.40861793 123.72442445 142.2862404 123.71773452 C145.92780345 123.71382405 149.56918042 123.70463564 153.21068382 123.68280983 C157.27620061 123.65864036 161.34139403 123.65803069 165.40698242 123.65942383 C166.61395279 123.648638 167.82092316 123.63785217 169.06446838 123.6267395 C170.17359589 123.63086349 171.28272339 123.63498749 172.42546082 123.63923645 C173.3868909 123.63647107 174.34832098 123.63370569 175.33888531 123.63085651 C178.55412979 124.07686756 180.42920027 125.03479925 183 127 C183.75 130.25 183.75 130.25 183 134 C181.04783728 136.77783154 178.597203 138.83339785 176 141 C175.18917969 141.67804688 174.37835938 142.35609375 173.54296875 143.0546875 C171.71119513 144.56194485 169.87084757 146.05882415 168.0234375 147.546875 C164.80994974 150.15420099 161.65092655 152.81784484 158.5 155.5 C153.64722429 159.62450306 148.7418586 163.67666493 143.80078125 167.6953125 C140.73224401 170.2203292 137.70954078 172.79477805 134.6875 175.375 C130.15092309 179.24529048 125.52500805 182.97138182 120.8125 186.625 C115.79400829 190.51819541 111.03177211 194.59153995 106.3515625 198.890625 C103.22891937 201.69166701 99.96159499 204.28017536 96.6640625 206.87109375 C94.6725029 208.46258933 92.71617679 210.07345326 90.7734375 211.72265625 C90.22929199 212.18357666 89.68514648 212.64449707 89.12451172 213.11938477 C87.56969288 214.44077047 86.01911873 215.76714583 84.46875 217.09375 C82 219 82 219 80 219 C80.22550537 219.72662842 80.45101074 220.45325684 80.68334961 221.2019043 C81.36995699 223.41430585 82.05656152 225.62670828 82.74316406 227.83911133 C83.5484757 230.434009 84.35381771 233.02889725 85.15917969 235.6237793 C87.24853965 242.35580425 89.33757877 249.08792841 91.42578125 255.8203125 C93.61582945 262.88063029 95.80710774 269.94056503 98 277 C98.25233398 277.81243164 98.50466797 278.62486328 98.76464844 279.46191406 C103.22002441 293.79631752 107.77405397 308.09968009 112.37890625 322.38671875 C112.98460449 324.26665527 112.98460449 324.26665527 113.60253906 326.18457031 C114.39376116 328.63869986 115.18603548 331.09249047 115.97949219 333.54589844 C121.57857749 350.90851813 121.57857749 350.90851813 121 356 C119.9375 357.875 119.9375 357.875 118 359 C112.74872391 359.42981975 109.99791284 358.89668821 105.75 355.8125 C104.72003906 355.08417969 103.69007813 354.35585938 102.62890625 353.60546875 C102.0580127 353.19345215 101.48711914 352.78143555 100.89892578 352.35693359 C97.20506525 349.71737628 93.43842629 347.18244974 89.6875 344.625 C88.04033058 343.49614336 86.39319501 342.36723734 84.74609375 341.23828125 C78.83484912 337.19649594 72.87635816 333.22787049 66.91011047 329.26799011 C56.35846409 322.26348254 45.8452986 315.20447021 35.36212158 308.09790039 C33.13775079 306.59130419 30.91166846 305.08726919 28.68505859 303.58398438 C22.41595208 299.35053454 16.14930499 295.11639992 9.93359375 290.8046875 C9.09739502 290.23024902 8.26119629 289.65581055 7.3996582 289.06396484 C5.93407691 288.05628922 4.47499257 287.03906504 3.02416992 286.01025391 C-0.18769037 283.62906567 -0.18769037 283.62906567 -3.99020386 283.26542664 C-7.38800359 284.50731039 -10.23749458 286.66455641 -13.1953125 288.70703125 C-13.89596329 289.18390381 -14.59661407 289.66077637 -15.3184967 290.15209961 C-17.59096441 291.70031602 -19.85790943 293.25642314 -22.125 294.8125 C-23.68355141 295.87590286 -25.24255291 296.93864635 -26.80200195 298.00073242 C-29.84965 300.07665443 -32.89581042 302.15472855 -35.94091797 304.234375 C-40.66828894 307.45948495 -45.41955537 310.64770779 -50.1875 313.8125 C-50.87980713 314.27285645 -51.57211426 314.73321289 -52.28540039 315.20751953 C-54.77981897 316.86519699 -57.27603667 318.52014992 -59.77246094 320.17480469 C-68.38992303 325.88934034 -76.95345716 331.67985301 -85.5 337.5 C-92.5689159 342.31327137 -99.63760677 347.12610975 -106.75 351.875 C-107.32685547 352.26107422 -107.90371094 352.64714844 -108.49804688 353.04492188 C-109.99246014 354.03938597 -111.49587533 355.02028636 -113 356 C-113.87785156 356.57234375 -114.75570312 357.1446875 -115.66015625 357.734375 C-118.91605518 359.49549562 -121.36480087 359.41153198 -125 359 C-127.99117563 354.51323655 -126.97158878 351.15224423 -126 346 C-125.28850153 343.6861769 -124.53192124 341.38595868 -123.7421875 339.09765625 C-123.28690038 337.76193184 -122.83274988 336.42581957 -122.37963867 335.08935547 C-122.14900726 334.41024109 -121.91837585 333.73112671 -121.68075562 333.03143311 C-119.75389349 327.28151136 -117.98743728 321.47818224 -116.1875 315.6875 C-115.75089833 314.28700164 -115.31421052 312.88653013 -114.87744141 311.48608398 C-111.85954788 301.80138553 -108.87962169 292.10522889 -105.90795898 282.40625 C-103.24829576 273.75070892 -100.49803005 265.12558394 -97.72705078 256.50512695 C-95.73425903 250.30416852 -93.75677757 244.10139019 -91.8828125 237.86328125 C-91.22355655 235.72507501 -90.5242381 233.59914552 -89.8046875 231.48046875 C-89.41539063 230.31128906 -89.02609375 229.14210937 -88.625 227.9375 C-88.26664062 226.89464844 -87.90828125 225.85179687 -87.5390625 224.77734375 C-86.81523627 222.11078658 -86.81523627 222.11078658 -87.52734375 219.953125 C-89.64230346 217.14813865 -92.22996123 215.01570475 -94.9375 212.8125 C-95.52233154 212.32765137 -96.10716309 211.84280273 -96.7097168 211.34326172 C-98.4676616 209.88869069 -100.23304697 208.44360572 -102 207 C-102.90492187 206.25363281 -103.80984375 205.50726563 -104.7421875 204.73828125 C-108.7401836 201.45117503 -112.7612086 198.19273835 -116.78515625 194.9375 C-125.28020073 188.06026631 -133.68411933 181.09250633 -142 174 C-148.72789058 168.26744147 -155.47691992 162.58321928 -162.40625 157.09375 C-166.04545523 154.15607831 -169.59936614 151.12147476 -173.15722656 148.08618164 C-177.41145875 144.46729711 -181.75855037 140.98247947 -186.171875 137.55859375 C-188.89102005 135.24034829 -188.98201827 134.19779902 -189.3125 130.5625 C-189 127 -189 127 -187.32136154 125.29989147 C-184.50832177 123.72467523 -182.7603707 123.62999893 -179.54571533 123.63923645 C-178.43796249 123.63511246 -177.33020966 123.63098846 -176.18888855 123.6267395 C-174.97832291 123.63752533 -173.76775726 123.64831116 -172.52050781 123.65942383 C-170.60305504 123.65876671 -170.60305504 123.65876671 -168.64686584 123.65809631 C-165.14502159 123.65723571 -161.64348574 123.67487172 -158.14171314 123.69581819 C-154.48086422 123.71457427 -150.82000821 123.71633458 -147.15911865 123.71989441 C-140.22827889 123.72921804 -133.29758112 123.75383605 -126.36680388 123.78394288 C-118.4757084 123.81747705 -110.58460613 123.83397041 -102.69345713 123.84902918 C-86.46222163 123.88038538 -70.23112894 123.93315198 -54 124 C-53.70200752 122.992558 -53.70200752 122.992558 -53.397995 121.96476364 C-53.00122307 120.63119764 -53.00122307 120.63119764 -52.59643555 119.27069092 C-52.3358989 118.39281292 -52.07536224 117.51493492 -51.80693054 116.61045456 C-50.62605068 112.79025808 -49.23697886 109.06292695 -47.8125 105.328125 C-47.51333679 104.53500916 -47.21417358 103.74189331 -46.90594482 102.92474365 C-46.26875258 101.2362397 -45.63011249 99.54828149 -44.9901123 97.86083984 C-43.30413615 93.41506769 -41.62908003 88.96518246 -39.953125 84.515625 C-39.61750549 83.62532593 -39.28188599 82.73502686 -38.93609619 81.81774902 C-34.5802788 70.25076041 -30.34089286 58.64134629 -26.11230469 47.02734375 C-25.01434614 44.03904567 -23.89925431 41.05769882 -22.77935791 38.07757568 C-22.02024028 36.0539556 -21.26613898 34.02854273 -20.51367188 32.00244141 C-19.14682161 28.32464651 -17.76775618 24.65155006 -16.38427734 20.97998047 C-15.79122246 19.40057478 -15.20174328 17.81982213 -14.61572266 16.23779297 C-13.76339315 13.9388274 -12.89864557 11.64487898 -12.03125 9.3515625 C-11.64205383 8.28912827 -11.64205383 8.28912827 -11.24499512 7.20523071 C-8.93410474 1.16187126 -6.55681958 -0.80287587 0 0 Z M-4 21 C-10.49894088 38.00119349 -16.89753925 55.03929478 -23.25372314 72.09432983 C-24.49923943 75.43545975 -25.74644397 78.7759565 -26.99365234 82.11645508 C-30.55832473 91.6748412 -34.10833889 101.23606671 -37.52734375 110.84765625 C-38.035109 112.26702537 -38.54291932 113.68637836 -39.05078125 115.10571289 C-39.94966644 117.61990808 -40.83084933 120.1380877 -41.703125 122.66186523 C-42.08855469 123.74282471 -42.47398437 124.82378418 -42.87109375 125.9375 C-43.19005615 126.85402344 -43.50901855 127.77054687 -43.83764648 128.71484375 C-45.22217363 131.43678747 -46.41134105 132.40261438 -49 134 C-51.35065842 134.38476086 -51.35065842 134.38476086 -53.99871826 134.39872742 C-55.00550125 134.41126556 -56.01228424 134.42380371 -57.04957581 134.4367218 C-58.14793259 134.43528671 -59.24628937 134.43385162 -60.37792969 134.43237305 C-61.53918869 134.4425647 -62.70044769 134.45275635 -63.89689636 134.46325684 C-67.73860444 134.49347207 -71.58006353 134.50266609 -75.421875 134.51171875 C-78.08418569 134.52855911 -80.74646298 134.54656244 -83.40875244 134.56611633 C-89.70201012 134.60978397 -95.99524189 134.63832922 -102.28860497 134.66143972 C-109.45429722 134.68849004 -116.6198551 134.7324016 -123.78545141 134.77772844 C-138.52355485 134.87057838 -153.2617162 134.9422575 -168 135 C-168 135.99 -168 136.98 -168 138 C-165.99056852 139.99911901 -165.99056852 139.99911901 -163.3125 142 C-162.30832031 142.7940625 -161.30414063 143.588125 -160.26953125 144.40625 C-159.73408691 144.82777344 -159.19864258 145.24929687 -158.64697266 145.68359375 C-155.88002614 147.89518219 -153.19355681 150.20008285 -150.5 152.5 C-146.53181261 155.87380506 -142.5397994 159.21179119 -138.5 162.5 C-134.460163 165.78823942 -130.46923965 169.12739778 -126.5 172.5 C-119.48619636 178.4550196 -112.36806551 184.27578412 -105.21484375 190.0625 C-98.1645552 195.77056458 -91.14736862 201.50712514 -84.24853516 207.39794922 C-81.90678513 209.39643843 -79.75342774 211.14188604 -77.07421875 212.68359375 C-75 215 -75 215 -74.81225586 217.14111328 C-75.27951661 223.16008505 -76.93670752 228.75077413 -78.875 234.4375 C-79.50517891 236.35114387 -80.13398269 238.2652409 -80.76171875 240.1796875 C-81.11282715 241.2428418 -81.46393555 242.30599609 -81.82568359 243.40136719 C-83.92447257 249.8329991 -85.93902762 256.29121474 -87.96173096 262.74710083 C-88.67026599 265.00751884 -89.38051321 267.26739147 -90.09130859 269.52709961 C-91.39823733 273.68347604 -92.70038371 277.84133187 -94 282 C-94.37906494 283.21171875 -94.75812988 284.4234375 -95.14868164 285.671875 C-97.29309708 292.57531381 -99.20885945 299.48241997 -100.97265625 306.4921875 C-102 310 -102 310 -103.453125 313.37109375 C-105.24449965 317.5735863 -106.48685519 321.78755391 -107.6875 326.1875 C-107.91244141 326.98091797 -108.13738281 327.77433594 -108.36914062 328.59179688 C-108.58119141 329.35943359 -108.79324219 330.12707031 -109.01171875 330.91796875 C-109.20209717 331.60656982 -109.39247559 332.2951709 -109.58862305 333.00463867 C-110.13461335 335.31338032 -110.13461335 335.31338032 -110 339 C-105.30099427 337.4156609 -101.63257409 334.83514809 -97.625 332 C-96.1920357 331.00039914 -94.7584271 330.00172135 -93.32421875 329.00390625 C-92.60153809 328.50004395 -91.87885742 327.99618164 -91.13427734 327.47705078 C-87.92789097 325.25803481 -84.68629363 323.09376755 -81.4375 320.9375 C-80.82052246 320.52733643 -80.20354492 320.11717285 -79.56787109 319.69458008 C-77.11095952 318.06230998 -74.65243109 316.43248474 -72.19384766 314.80273438 C-64.58919502 309.75910587 -57.02471359 304.66229477 -49.5 299.5 C-43.24578886 295.20961739 -36.9803913 290.93937496 -30.65258789 286.75805664 C-27.17060587 284.45663054 -23.71619187 282.12121793 -20.28125 279.75 C-19.07384155 278.92447632 -19.07384155 278.92447632 -17.84204102 278.08227539 C-16.27689854 277.01167281 -14.7171589 275.93311427 -13.16381836 274.84545898 C-5.80239406 269.83862923 -5.80239406 269.83862923 -1 270 C1.56789224 271.2543046 3.62534085 272.49427342 5.9375 274.125 C6.63987793 274.59929443 7.34225586 275.07358887 8.06591797 275.56225586 C9.72434518 276.6852029 11.37719556 277.81640879 13.02587891 278.95361328 C16.4972688 281.34215294 19.98762503 283.70159237 23.48046875 286.05859375 C28.13878172 289.20382114 32.79302679 292.35482048 37.44030762 295.5163269 C43.85549687 299.88008557 50.2947767 304.20525601 56.75523376 308.50169373 C61.76192258 311.83395971 66.73346487 315.21491715 71.6875 318.625 C77.87267262 322.87120218 84.0811784 327.07370443 90.33984375 331.2109375 C93.96177331 333.64683139 97.50527227 336.18828799 101.0390625 338.75 C102.89350499 340.17917583 102.89350499 340.17917583 105 340 C104.34789634 336.53482389 103.52843891 333.17514931 102.546875 329.7890625 C102.11677124 328.305271 102.11677124 328.305271 101.67797852 326.79150391 C101.37174561 325.74655762 101.0655127 324.70161133 100.75 323.625 C100.27421509 321.99763916 100.27421509 321.99763916 99.78881836 320.33740234 C97.78830893 313.5454931 95.65769787 306.8282748 93.3671875 300.12890625 C91.52092559 294.64458663 89.87220822 289.09802743 88.1875 283.5625 C85.57174761 274.97133025 82.83007128 266.43922386 79.9375 257.9375 C77.07674881 249.47523845 74.44323352 240.96738269 72 232.375 C71.69698975 231.32562256 71.39397949 230.27624512 71.08178711 229.19506836 C68.2779467 219.13597198 68.2779467 219.13597198 69 215 C70.6953125 212.83203125 70.6953125 212.83203125 73.125 210.8125 C74.03378906 210.04679688 74.94257813 209.28109375 75.87890625 208.4921875 C79.86236794 205.31140082 83.85770879 202.14702486 87.88623047 199.0234375 C92.04095106 195.79488518 95.99226725 192.40664813 99.890625 188.87109375 C102.83975258 186.25510836 105.92585732 183.82967821 109.015625 181.3828125 C118.21768453 174.03561837 127.28542171 166.52011901 136.1875 158.8125 C141.93014415 153.84264978 147.83975814 149.12191961 153.84375 144.47265625 C154.89690013 143.64980104 155.9489778 142.82557145 157 142 C157.57363281 141.55253418 158.14726562 141.10506836 158.73828125 140.64404297 C160.19733264 139.47586218 161.60384109 138.24266553 163 137 C163 136.34 163 135.68 163 135 C162.37916377 134.99761165 161.75832754 134.99522329 161.11867809 134.99276257 C146.02103643 134.93365861 130.92357415 134.85813836 115.8261137 134.76428509 C108.52512237 134.71929553 101.22418016 134.67988828 93.9230957 134.65356445 C87.56038884 134.63060982 81.19783702 134.59724049 74.83525306 134.55129844 C71.46544414 134.52733167 68.09578909 134.50862569 64.72589684 134.50238609 C60.96636283 134.49280906 57.20739422 134.46482587 53.44799805 134.43237305 C52.32734451 134.43380814 51.20669098 134.43524323 50.05207825 134.4367218 C49.02984161 134.42418365 48.00760498 134.41164551 46.95439148 134.39872742 C46.06486125 134.39411845 45.17533102 134.38950949 44.25884533 134.38476086 C41.52594202 133.91925124 40.67809592 133.16405463 39 131 C37.93530273 128.66723633 37.93530273 128.66723633 36.93359375 125.83203125 C36.53986572 124.73584473 36.1461377 123.6396582 35.74047852 122.51025391 C35.31049561 121.28999512 34.8805127 120.06973633 34.4375 118.8125 C33.46035208 116.08556955 32.47612196 113.36120667 31.4921875 110.63671875 C31.09021904 109.52031006 31.09021904 109.52031006 30.68013 108.38134766 C26.90655898 97.9258874 22.97447568 87.52924702 19.0625 77.125 C18.28384123 75.05187461 17.50527651 72.9787139 16.72680664 70.90551758 C15.20428817 66.85120712 13.6812266 62.79710137 12.15771484 58.74316406 C9.32102174 51.19412688 6.4898396 43.64302545 3.65914917 36.09173584 C2.43709903 32.83188914 1.21462976 29.57219968 -0.0078125 26.3125 C-0.671875 24.54166667 -1.3359375 22.77083333 -2 21 C-2.66 21 -3.32 21 -4 21 Z " fill="#EAD291" transform="translate(207,22)"/>
<path d="M0 0 C0.66 0 1.32 0 2 0 C2.43231934 1.19149658 2.86463867 2.38299316 3.31005859 3.6105957 C7.16129916 14.22248763 11.01853319 24.83217597 14.8835144 35.43907166 C16.75603278 40.57897158 18.62397786 45.72045394 20.48300171 50.86524963 C21.60820299 53.97466303 22.74218459 57.08085276 23.875 60.1875 C24.27251465 61.29456299 24.6700293 62.40162598 25.07958984 63.54223633 C25.44262207 64.53247803 25.8056543 65.52271973 26.1796875 66.54296875 C26.63964111 67.8117688 26.63964111 67.8117688 27.10888672 69.10620117 C27.84666989 71.18121056 27.84666989 71.18121056 30 72 C32.37806461 72.15108952 34.7311317 72.24530768 37.11181641 72.29711914 C37.84362625 72.31677231 38.5754361 72.33642548 39.329422 72.35667419 C41.75337606 72.42065236 44.17744056 72.47792301 46.6015625 72.53515625 C48.28023318 72.57815561 49.95889321 72.62157212 51.63754272 72.66539001 C56.05975745 72.77969801 60.48209437 72.8883239 64.90447998 72.99578857 C69.41557368 73.10640768 73.92652962 73.22237034 78.4375 73.33789062 C87.29153967 73.56383974 96.14571754 73.78378956 105 74 C101.89311609 78.01614435 98.60104757 81.08048787 94.5625 84.125 C89.77310823 87.80722066 85.08314131 91.56393191 80.5 95.5 C76.08465461 99.28266075 71.58846945 102.92956946 67 106.5 C65.84078394 107.41230076 64.68192961 108.32506135 63.5234375 109.23828125 C61.73281524 110.64921134 59.93639708 112.04810651 58.11816406 113.42333984 C56.26922978 114.82316541 54.44638514 116.25210376 52.625 117.6875 C52.05910156 118.10257812 51.49320313 118.51765625 50.91015625 118.9453125 C47.80370262 121.44448948 47.02934236 122.78688184 46.48046875 126.7734375 C46.83403023 131.38644468 48.18908896 135.58426201 49.6875 139.9375 C50.32012493 141.85379909 50.9515198 143.77050448 51.58203125 145.6875 C51.95150879 146.79996094 52.32098633 147.91242188 52.70166016 149.05859375 C55.18552458 156.57012465 57.58218936 164.11016461 59.98403931 171.64822388 C60.86527947 174.40706854 61.75404726 177.16341044 62.64331055 179.91967773 C63.19744696 181.65337313 63.75125305 183.38717415 64.3046875 185.12109375 C64.56170944 185.91205444 64.81873138 186.70301514 65.08354187 187.51794434 C66.51088851 192.01954582 67.47144519 196.30489197 68 201 C64.52423643 199.72741531 61.7175665 198.25905726 58.73046875 196.08203125 C54.2347754 192.86559347 49.6927502 189.73190564 45.11328125 186.63671875 C44.40283661 186.15606964 43.69239197 185.67542053 42.9604187 185.1802063 C41.48826021 184.18463748 40.01585482 183.18943367 38.54321289 182.19458008 C35.60381513 180.20870918 32.6660109 178.22048622 29.72824097 176.23220825 C28.28235593 175.25576825 26.83487536 174.28168651 25.38577271 173.31002808 C21.83388717 170.92766152 18.30761667 168.51971379 14.82177734 166.04150391 C14.15333298 165.57452591 13.48488861 165.10754791 12.79618835 164.62641907 C11.54409875 163.75099888 10.30048159 162.86327267 9.06770325 161.96086121 C4.92298206 159.09297946 1.99168315 158.46421667 -3 159 C-5.44044495 160.20697557 -5.44044495 160.20697557 -7.625 162.125 C-12.92691858 166.24306553 -18.39563109 169.99139051 -24 173.6875 C-31.09572914 178.38985613 -38.16440629 183.12723875 -45.1875 187.9375 C-46.36687134 188.74453369 -46.36687134 188.74453369 -47.57006836 189.56787109 C-52.51814059 192.96189389 -57.42904252 196.40104492 -62.28515625 199.92578125 C-64 201 -64 201 -66 201 C-65.22706275 194.98139531 -63.42306485 189.2949344 -61.6875 183.5 C-61.17703125 181.77765137 -61.17703125 181.77765137 -60.65625 180.02050781 C-58.45492462 172.65765373 -56.15768283 165.33012025 -53.80078125 158.015625 C-53.52803879 157.16581055 -53.25529633 156.31599609 -52.97428894 155.44042969 C-51.61617577 151.20927198 -50.2481531 146.98184182 -48.86206055 142.75976562 C-48.35552229 141.18894221 -47.84939985 139.61798462 -47.34375 138.046875 C-46.98806694 136.98270355 -46.98806694 136.98270355 -46.62519836 135.89703369 C-45.21694365 131.47578042 -44.646039 127.6326184 -45 123 C-46.41425178 120.84385907 -46.41425178 120.84385907 -48.625 119.25 C-49.44742188 118.58097656 -50.26984375 117.91195312 -51.1171875 117.22265625 C-52.06851563 116.48917969 -53.01984375 115.75570312 -54 115 C-55.08683752 114.14567498 -56.17273363 113.29015132 -57.2578125 112.43359375 C-59.02251866 111.04364373 -60.78937592 109.65689431 -62.56298828 108.27832031 C-66.62791276 105.1136957 -70.58878985 101.85220934 -74.5 98.5 C-79.01598272 94.63024493 -83.61835203 90.90156225 -88.3125 87.25 C-99.10501627 78.84659884 -99.10501627 78.84659884 -103 75 C-103 74.67 -103 74.34 -103 74 C-101.60058418 73.97573944 -101.60058418 73.97573944 -100.17289734 73.95098877 C-91.38781318 73.79612893 -82.60335099 73.62066884 -73.8190794 73.42494583 C-69.30277012 73.32498243 -64.78655522 73.23232509 -60.26977539 73.15625 C-55.91212522 73.08258805 -51.55526127 72.98988475 -47.19828224 72.88387299 C-45.53462302 72.84676082 -43.87079518 72.81655358 -42.20688438 72.79331207 C-39.87888168 72.75962347 -37.55268408 72.70157787 -35.2253418 72.63769531 C-34.53482224 72.63337494 -33.84430267 72.62905457 -33.13285828 72.62460327 C-30.06805523 72.51687451 -28.41279643 72.39680225 -26.15930176 70.23062134 C-25.0334292 68.06432138 -24.06403371 65.96541302 -23.22583008 63.67236328 C-22.91152542 62.82272003 -22.59722076 61.97307678 -22.27339172 61.09768677 C-21.77648079 59.72288651 -21.77648079 59.72288651 -21.26953125 58.3203125 C-20.91541672 57.35713104 -20.56130219 56.39394958 -20.19645691 55.40158081 C-19.06216493 52.31165539 -17.93722586 49.21841858 -16.8125 46.125 C-16.07547918 44.11305791 -15.33785451 42.10133692 -14.59960938 40.08984375 C-12.3902781 34.06332887 -10.19381476 28.03217771 -8 22 C-7.22184543 19.86165256 -6.44368787 17.72330621 -5.66552734 15.58496094 C-3.77568972 10.3904564 -1.88724935 5.19544543 0 0 Z " fill="#3C80CD" transform="translate(203,106)"/>
<path d="M0 0 C3.78571746 1.28875488 4.12961577 2.4932946 5.9375 6 C6.86580648 8.30362 7.73984059 10.62946995 8.57421875 12.96875 C8.81472458 13.63745117 9.05523041 14.30615234 9.30302429 14.99511719 C9.81606531 16.42293919 10.32679341 17.85159405 10.83538818 19.28100586 C12.16746858 23.02446376 13.5161332 26.76194376 14.86328125 30.5 C15.26166199 31.6074054 15.26166199 31.6074054 15.66809082 32.73718262 C17.81223347 38.68567448 20.03688069 44.60051934 22.3125 50.5 C24.72890782 56.79071504 27.10335004 63.09287959 29.375 69.4375 C29.62233887 70.118125 29.86967773 70.79875 30.12451172 71.5 C31.47714957 75.32330185 32.31896549 79.00009661 32.9375 83 C33.57023331 82.99777939 34.20296661 82.99555878 34.85487366 82.99327087 C88.39859178 82.81409285 88.39859178 82.81409285 107.75 83.3125 C108.98435791 83.33497803 110.21871582 83.35745605 111.49047852 83.38061523 C112.59319092 83.41614502 113.69590332 83.4516748 114.83203125 83.48828125 C115.75862549 83.51446533 116.68521973 83.54064941 117.63989258 83.56762695 C120.36958083 84.08131072 121.28903007 84.7970538 122.9375 87 C123.4140625 89.3984375 123.4140625 89.3984375 122.9375 92 C121.0234375 94.2890625 121.0234375 94.2890625 118.3125 96.625 C117.81959473 97.05393555 117.32668945 97.48287109 116.81884766 97.92480469 C112.51358216 101.62575187 108.04764007 105.1305047 103.56079102 108.60742188 C98.71802289 112.3607144 93.97234925 116.22151897 89.25 120.125 C88.52433838 120.72449463 87.79867676 121.32398926 87.05102539 121.94165039 C85.01252903 123.62697755 82.97497339 125.31343642 80.9375 127 C72.70580616 133.7996337 64.3515057 140.4284773 55.9375 147 C57.13657787 152.7877278 58.59519122 158.3862633 60.4375 164 C62.45576615 170.26055967 64.41437925 176.53671147 66.30859375 182.8359375 C66.51671692 183.52770081 66.72484009 184.21946411 66.93927002 184.93218994 C67.80192203 187.80130052 68.66393772 190.67059874 69.52386475 193.54052734 C72.43613903 203.24938932 75.44094675 212.90756409 78.95678711 222.41943359 C80.77001558 227.55350629 81.81278072 232.54355477 80.9375 238 C80.2775 238.66 79.6175 239.32 78.9375 240 C72.53983204 239.91932323 68.61375842 237.23799362 63.5 233.625 C62.70996582 233.08262695 61.91993164 232.54025391 61.10595703 231.98144531 C58.70829717 230.33242389 56.32241985 228.66737357 53.9375 227 C52.02119073 225.6758009 50.10216377 224.35563295 48.18261719 223.03613281 C46.92305199 222.16989398 45.66460867 221.30202184 44.40722656 220.43261719 C37.20404016 215.46259468 29.91149643 210.6261324 22.61132812 205.80004883 C18.26049827 202.9172413 13.92637919 200.03608847 9.72265625 196.94140625 C9.13057373 196.50908691 8.53849121 196.07676758 7.9284668 195.63134766 C6.44915399 194.53845755 4.98543349 193.42454307 3.5234375 192.30859375 C0.13889388 190.59587153 -1.41731492 191.10446814 -5.0625 192 C-7.60807275 193.3131992 -7.60807275 193.3131992 -10.00390625 195.0625 C-10.91849609 195.69542969 -11.83308594 196.32835937 -12.77539062 196.98046875 C-13.71576172 197.64691406 -14.65613281 198.31335938 -15.625 199 C-16.53830078 199.63550781 -17.45160156 200.27101563 -18.39257812 200.92578125 C-20.29347195 202.24964171 -22.19140736 203.57775818 -24.08666992 204.90966797 C-35.3768092 212.84027528 -46.7946519 220.5775831 -58.23022461 228.29589844 C-60.269945 229.67297699 -62.30883779 231.0512741 -64.34765625 232.4296875 C-64.96431656 232.84531952 -65.58097687 233.26095154 -66.21632385 233.68917847 C-68.62371502 235.31730032 -70.98907201 236.94099931 -73.25561523 238.76220703 C-76.15853077 240.75082773 -78.66709921 240.37726675 -82.0625 240 C-84.3245559 236.60691616 -84.17822644 235.26180525 -83.56591797 231.3515625 C-82.59054613 226.7954124 -81.09947049 222.41488235 -79.625 218 C-78.89981915 215.78295159 -78.17592604 213.56548167 -77.453125 211.34765625 C-76.87401367 209.57672607 -76.87401367 209.57672607 -76.28320312 207.77001953 C-74.09409346 201.00917324 -71.98736635 194.22263413 -69.875 187.4375 C-69.26750794 185.48905728 -68.65979491 183.54068359 -68.05206299 181.59231567 C-67.46020034 179.69375946 -66.86937956 177.79487855 -66.27856445 175.89599609 C-65.42381986 173.15218676 -64.56181461 170.41076009 -63.69604492 167.67041016 C-63.47007126 166.95313248 -63.2440976 166.2358548 -63.01127625 165.49684143 C-62.57932642 164.1263459 -62.14592047 162.7563081 -61.71076965 161.38682556 C-60.21333166 156.62839586 -59.02354667 151.89260121 -58.0625 147 C-58.92230469 146.33355469 -59.78210938 145.66710937 -60.66796875 144.98046875 C-66.72894447 140.26176391 -72.72827533 135.49741108 -78.5625 130.5 C-82.90002587 126.78756688 -87.30604714 123.19294503 -91.8125 119.6875 C-97.25284708 115.45286811 -102.61465619 111.1314955 -107.9375 106.75 C-108.62682617 106.18369873 -109.31615234 105.61739746 -110.02636719 105.03393555 C-121.50618422 95.55631578 -121.50618422 95.55631578 -125.0625 92 C-125.3125 89.0625 -125.3125 89.0625 -125.0625 86 C-121.75488074 83.79492049 -120.59109233 83.7176266 -116.72558594 83.60571289 C-115.63046692 83.56989609 -114.5353479 83.53407928 -113.40704346 83.49717712 C-111.62001007 83.45410179 -111.62001007 83.45410179 -109.796875 83.41015625 C-107.93370636 83.35493553 -107.93370636 83.35493553 -106.03289795 83.29859924 C-102.04297178 83.18561005 -98.05302291 83.0886692 -94.0625 83 C-92.13603638 82.95706818 -92.13603638 82.95706818 -90.1706543 82.91326904 C-81.2184049 82.72296197 -72.26567134 82.57633082 -63.3125 82.4375 C-60.64582402 82.39443384 -57.97916301 82.3505088 -55.3125 82.30664062 C-48.89587632 82.20160403 -42.47921117 82.09954081 -36.0625 82 C-35.5699029 80.65934344 -35.0773093 79.31868559 -34.5847168 77.97802734 C-34.25947525 77.09286438 -33.9342337 76.20770142 -33.59913635 75.29571533 C-32.86272538 73.29132176 -32.12643125 71.28688525 -31.39024353 69.28240967 C-29.35093287 63.73019554 -27.30977689 58.17867186 -25.26513672 52.62841797 C-21.6553746 42.82384 -18.05087884 33.01900249 -14.55859375 23.171875 C-13.82581989 21.11952507 -13.09228031 19.06745041 -12.35855103 17.01544189 C-11.70079557 15.16245544 -11.05667184 13.30464814 -10.4128418 11.44677734 C-10.02136963 10.35316895 -9.62989746 9.25956055 -9.2265625 8.1328125 C-8.90123535 7.20355957 -8.5759082 6.27430664 -8.24072266 5.31689453 C-6.27720872 1.45577823 -4.33320383 0 0 0 Z M-2.0625 20 C-2.35198769 20.80661827 -2.35198769 20.80661827 -2.64732361 21.62953186 C-4.7047283 27.36014929 -6.7668068 33.08907081 -8.83129883 38.81713867 C-9.59545669 40.93912539 -10.35852321 43.06150551 -11.12036133 45.18432617 C-15.29482376 56.81377703 -19.54233189 68.41079511 -24.00390625 79.93359375 C-24.38127426 80.91731461 -24.75864227 81.90103546 -25.14744568 82.91456604 C-25.50041214 83.81730759 -25.8533786 84.72004913 -26.21704102 85.65014648 C-26.52593765 86.44452621 -26.83483429 87.23890594 -27.15309143 88.05735779 C-28.0625 90 -28.0625 90 -30.0625 92 C-32.46685506 92.24639762 -34.76446003 92.37068043 -37.17431641 92.41064453 C-37.90612625 92.43044373 -38.6379361 92.45024292 -39.391922 92.47064209 C-41.81583628 92.53392139 -44.23982903 92.58340447 -46.6640625 92.6328125 C-48.34274354 92.67394747 -50.02140377 92.71594031 -51.70004272 92.75875854 C-56.12218387 92.86924315 -60.54451261 92.96804188 -64.96697998 93.06445312 C-69.47815686 93.16485219 -73.9890607 93.27624034 -78.5 93.38671875 C-87.35393352 93.60193435 -96.20810392 93.80481215 -105.0625 94 C-104.2984082 94.9384375 -103.53431641 95.876875 -102.74707031 96.84375 C-102.31726868 97.37162109 -101.88746704 97.89949219 -101.44464111 98.44335938 C-99.18994842 100.98271386 -96.51638927 102.97111098 -93.8125 105 C-92.56366958 105.95907238 -91.31634079 106.92010239 -90.0703125 107.8828125 C-89.41708008 108.3871582 -88.76384766 108.89150391 -88.09082031 109.41113281 C-84.57064834 112.1686291 -81.13085179 115.02256824 -77.6875 117.875 C-71.2905117 123.16752481 -64.86707207 128.42520827 -58.41455078 133.64990234 C-57.19943771 134.63453549 -55.98889775 135.62484741 -54.78369141 136.62158203 C-53.64554248 137.53306981 -52.47493477 138.40556606 -51.27490234 139.23388672 C-49.60546875 140.43359375 -49.60546875 140.43359375 -47.0625 143 C-46.09627312 149.93646697 -48.76788644 156.27500797 -50.89453125 162.80078125 C-51.28694504 164.03233444 -51.67935883 165.26388763 -52.08366394 166.53276062 C-53.12418889 169.79832626 -54.17658407 173.0599413 -55.23175049 176.32080078 C-56.29472376 179.61209442 -57.34737935 182.90668015 -58.40039062 186.20117188 C-59.58938837 189.92063066 -60.7800415 193.63952009 -61.97822571 197.35603333 C-63.01323802 200.56853221 -64.0403827 203.78337752 -65.0625 207 C-65.36924652 207.95764252 -65.67599304 208.91528503 -65.99203491 209.90194702 C-66.40529526 211.22508408 -66.40529526 211.22508408 -66.8269043 212.57495117 C-67.06716843 213.3375676 -67.30743256 214.10018402 -67.55497742 214.88591003 C-68.21812285 217.28588901 -68.21812285 217.28588901 -68.0625 221 C-64.26476411 219.64849257 -61.39055587 217.9347216 -58.1875 215.5 C-54.01097396 212.4007525 -49.77764296 209.42651411 -45.4375 206.5625 C-38.83896772 202.19969532 -32.28278595 197.77597247 -25.74102783 193.32858276 C-24.09653564 192.21063782 -22.45135119 191.09371139 -20.80615234 189.97680664 C-19.77699707 189.27676514 -18.7478418 188.57672363 -17.6875 187.85546875 C-16.70652344 187.19208496 -15.72554688 186.52870117 -14.71484375 185.84521484 C-12.4872355 184.29548517 -10.3753883 182.67166926 -8.25 180.98828125 C-4.35236757 178.55703749 -2.59982946 178.51914091 1.9375 179 C4.49067074 180.35827882 6.60308667 181.660656 8.91015625 183.34765625 C10.2331681 184.27239486 11.55624966 185.19703376 12.87939453 186.12158203 C13.55125793 186.59976379 14.22312134 187.07794556 14.91534424 187.57061768 C18.11298837 189.83090646 21.36965819 192.00179166 24.62109375 194.18359375 C25.90455553 195.05174737 27.18751193 195.92064859 28.4699707 196.7902832 C31.13319284 198.59581132 33.79712956 200.40027524 36.46166992 202.20385742 C42.13481094 206.04636868 47.80404047 209.89278522 53.4296875 213.8046875 C54.18193604 214.32748291 54.93418457 214.85027832 55.70922852 215.38891602 C57.02525529 216.30693876 58.33847201 217.22900951 59.64819336 218.15600586 C62.51800171 220.33515767 62.51800171 220.33515767 65.9375 221 C64.71608001 211.84750962 61.96019728 203.33354889 59.05627441 194.6109314 C58.2380638 192.15162317 57.42977256 189.68924708 56.62402344 187.22583008 C54.3016318 180.13262885 51.95416502 173.04808356 49.58984375 165.96875 C48.95558775 164.0417132 48.32145946 162.11463437 47.6875 160.1875 C47.40044189 159.34920654 47.11338379 158.51091309 46.81762695 157.6472168 C45.1558293 152.57128561 44.35587526 148.34866674 44.9375 143 C46.4140625 140.85546875 46.4140625 140.85546875 48.5625 139.1875 C49.79613281 138.1975 49.79613281 138.1975 51.0546875 137.1875 C52.48167969 136.1046875 52.48167969 136.1046875 53.9375 135 C55.02516256 134.14803104 56.11102026 133.29375421 57.1953125 132.4375 C58.95985273 131.04592964 60.72630164 129.65733546 62.50048828 128.27807617 C66.56564135 125.11381663 70.52632847 121.85217624 74.4375 118.5 C78.95348272 114.63024493 83.55585203 110.90156225 88.25 107.25 C95.83723545 101.40917523 95.83723545 101.40917523 102.9375 95 C102.9375 94.67 102.9375 94.34 102.9375 94 C102.00233551 93.97716446 101.06717102 93.95432892 100.10366821 93.93080139 C91.30390691 93.71530596 82.50428199 93.49485384 73.70476723 93.26950932 C69.18051484 93.15380936 64.65623216 93.03987519 60.13183594 92.92993164 C55.76808058 92.82382743 51.40446353 92.7131435 47.040905 92.59924126 C45.37353005 92.55653124 43.70611152 92.51549037 42.03865433 92.4761219 C39.7087386 92.42083161 37.37904648 92.35968536 35.04931641 92.29711914 C34.35520157 92.28201294 33.66108673 92.26690674 32.94593811 92.25134277 C28.16560432 92.11405216 28.16560432 92.11405216 25.9375 91 C25.0871582 89.27612305 25.0871582 89.27612305 24.23828125 87.01171875 C23.92012451 86.17133057 23.60196777 85.33094238 23.27416992 84.46508789 C22.93619385 83.54848389 22.59821777 82.63187988 22.25 81.6875 C21.89333252 80.73544678 21.53666504 79.78339355 21.16918945 78.80249023 C18.62375892 71.96698283 16.19013711 65.09530577 13.80957031 58.20092773 C10.97244163 50.01412843 7.98934118 41.88213179 5 33.75 C4.74858246 33.06600128 4.49716492 32.38200256 4.23812866 31.67727661 C2.80658799 27.78411209 1.37291905 23.89173652 -0.0625 20 C-0.7225 20 -1.3825 20 -2.0625 20 Z " fill="#E8CF8D" transform="translate(205.0625,86)"/>
<path d="M0 0 C1.98 0 3.96 0 6 0 C5.34162372 6.81959907 3.24714194 13.11339154 1.1875 19.625 C0.84396484 20.72457031 0.50042969 21.82414062 0.14648438 22.95703125 C-0.5489377 25.18290378 -1.24580253 27.40832606 -1.9440918 29.63330078 C-4.84393312 38.87926883 -7.6081838 48.09518542 -9.97265625 57.4921875 C-11 61 -11 61 -12.45703125 64.37109375 C-14.24366486 68.57307508 -15.44881664 72.78407279 -16.625 77.1875 C-16.8415625 77.98091797 -17.058125 78.77433594 -17.28125 79.59179688 C-18.22284655 83.05303604 -19.13768426 86.51809569 -20 90 C-18.90945312 89.27296875 -17.81890625 88.5459375 -16.6953125 87.796875 C2.67578125 74.8828125 2.67578125 74.8828125 4.94165039 73.37231445 C6.44744703 72.36839546 7.95314253 71.36432474 9.45874023 70.36010742 C12.90248259 68.06340511 16.34729703 65.76839862 19.796875 63.48046875 C26.73567081 58.87436033 33.63213087 54.2113117 40.5 49.5 C46.75422831 45.20964175 53.01960818 40.93937531 59.34741211 36.75805664 C62.82939413 34.45663054 66.28380813 32.12121793 69.71875 29.75 C70.52368896 29.19965088 71.32862793 28.64930176 72.15795898 28.08227539 C73.72310146 27.01167281 75.2828411 25.93311427 76.83618164 24.84545898 C84.19760594 19.83862923 84.19760594 19.83862923 89 20 C91.56789224 21.2543046 93.62534085 22.49427342 95.9375 24.125 C96.63987793 24.59929443 97.34225586 25.07358887 98.06591797 25.56225586 C99.72434518 26.6852029 101.37719556 27.81640879 103.02587891 28.95361328 C106.4972688 31.34215294 109.98762503 33.70159237 113.48046875 36.05859375 C118.13878172 39.20382114 122.79302679 42.35482048 127.44030762 45.5163269 C133.85549687 49.88008557 140.2947767 54.20525601 146.75523376 58.50169373 C151.76192459 61.83396105 156.73336815 65.21505554 161.6875 68.625 C168.75473932 73.47437062 175.85464381 78.26632609 183 83 C185.25091588 84.4986274 187.50045845 85.9993107 189.75 87.5 C190.75546875 88.1703125 191.7609375 88.840625 192.796875 89.53125 C193.52390625 90.0159375 194.2509375 90.500625 195 91 C194.8141333 90.45287354 194.6282666 89.90574707 194.43676758 89.34204102 C190.84072833 78.72901547 187.34392992 68.11127781 184.265625 57.3359375 C183.35262018 54.15519419 182.37106414 51.00228493 181.359375 47.8515625 C181.0816626 46.97185791 180.8039502 46.09215332 180.51782227 45.18579102 C179.98270804 43.4951699 179.43709806 41.80781744 178.87866211 40.12475586 C177.05902704 34.31018654 176.68993164 29.07557717 177 23 C181.15663782 21.61445406 183.03645564 22.17747737 187 24 C188.64584832 26.73780538 189.27262714 29.65946835 190 32.75 C190.49112094 34.58917581 190.98469526 36.42769788 191.48046875 38.265625 C191.85244385 39.69358398 191.85244385 39.69358398 192.23193359 41.15039062 C193.44426617 45.64827551 194.87650193 50.0694455 196.3125 54.5 C196.89603702 56.32415361 197.4793634 58.1483746 198.0625 59.97265625 C199.49703563 64.43975802 200.93585428 68.90547531 202.375 73.37109375 C202.77936279 74.62664062 203.18372559 75.8821875 203.6003418 77.17578125 C204.39221458 79.63321846 205.18529362 82.09026739 205.97973633 84.546875 C211.57865272 101.90785606 211.57865272 101.90785606 211 107 C209.9375 108.875 209.9375 108.875 208 110 C202.74872391 110.42981975 199.99791284 109.89668821 195.75 106.8125 C194.20505859 105.72001953 194.20505859 105.72001953 192.62890625 104.60546875 C192.0580127 104.19345215 191.48711914 103.78143555 190.89892578 103.35693359 C187.20506525 100.71737628 183.43842629 98.18244974 179.6875 95.625 C178.04033058 94.49614336 176.39319501 93.36723734 174.74609375 92.23828125 C168.83484912 88.19649594 162.87635816 84.22787049 156.91011047 80.26799011 C146.35846409 73.26348254 135.8452986 66.20447021 125.36212158 59.09790039 C123.13775079 57.59130419 120.91166846 56.08726919 118.68505859 54.58398438 C112.41595208 50.35053454 106.14930499 46.11639992 99.93359375 41.8046875 C99.09739502 41.23024902 98.26119629 40.65581055 97.3996582 40.06396484 C95.93407691 39.05628922 94.47499257 38.03906504 93.02416992 37.01025391 C89.81230963 34.62906567 89.81230963 34.62906567 86.00979614 34.26542664 C82.61199641 35.50731039 79.76250542 37.66455641 76.8046875 39.70703125 C76.10403671 40.18390381 75.40338593 40.66077637 74.6815033 41.15209961 C72.40903559 42.70031602 70.14209057 44.25642314 67.875 45.8125 C66.31644859 46.87590286 64.75744709 47.93864635 63.19799805 49.00073242 C60.15035 51.07665443 57.10418958 53.15472855 54.05908203 55.234375 C49.33171106 58.45948495 44.58044463 61.64770779 39.8125 64.8125 C38.77403931 65.50303467 38.77403931 65.50303467 37.71459961 66.20751953 C35.22018103 67.86519699 32.72396333 69.52014992 30.22753906 71.17480469 C21.61007697 76.88934034 13.04654284 82.67985301 4.5 88.5 C-2.5689159 93.31327137 -9.63760677 98.12610975 -16.75 102.875 C-17.6152832 103.45411133 -17.6152832 103.45411133 -18.49804688 104.04492188 C-19.99246014 105.03938597 -21.49587533 106.02028636 -23 107 C-23.87785156 107.57234375 -24.75570312 108.1446875 -25.66015625 108.734375 C-28.91605518 110.49549562 -31.36480087 110.41153198 -35 110 C-37.99117563 105.51323655 -36.97158878 102.15224423 -36 97 C-35.28850153 94.6861769 -34.53192124 92.38595868 -33.7421875 90.09765625 C-33.28690038 88.76193184 -32.83274988 87.42581957 -32.37963867 86.08935547 C-32.14900726 85.41024109 -31.91837585 84.73112671 -31.68075562 84.03143311 C-29.75389533 78.28151686 -27.98728854 72.47822438 -26.1875 66.6875 C-25.7530859 65.29359647 -25.31859559 63.89971668 -24.8840332 62.50585938 C-22.47467318 54.77180203 -20.08015885 47.03321603 -17.69946289 39.2902832 C-17.03367154 37.12553771 -16.36623616 34.96129707 -15.69702148 32.79760742 C-14.27009822 28.17759989 -12.86245688 23.55594715 -11.53515625 18.90625 C-11.31448486 18.15085937 -11.09381348 17.39546875 -10.86645508 16.6171875 C-10.30097048 14.67505585 -9.75125818 12.72834994 -9.203125 10.78125 C-8 8 -8 8 -5.90625 6.7265625 C-5.2771875 6.48679687 -4.648125 6.24703125 -4 6 C-3.19471111 3.94999129 -3.19471111 3.94999129 -3 2 C-3 2.99 -3 3.98 -3 5 C-2.34 5 -1.68 5 -1 5 C-0.67 3.35 -0.34 1.7 0 0 Z " fill="#C69749" transform="translate(117,271)"/>
<path d="M0 0 C1.32 0 2.64 0 4 0 C7.79484691 11.16450053 11.47656875 22.34351042 14.78613281 33.66235352 C16.00236911 37.7902726 17.28023288 41.87704615 18.70703125 45.9375 C18.98603271 46.73647705 19.26503418 47.5354541 19.55249023 48.35864258 C20.08007912 49.85245985 20.61899155 51.34235388 21.17211914 52.8269043 C22.93064826 57.81403376 23.81267749 62.71069754 23 68 C22.34 68.66 21.68 69.32 21 70 C14.60233204 69.91932323 10.67625842 67.23799362 5.5625 63.625 C4.37744873 62.81144043 4.37744873 62.81144043 3.16845703 61.98144531 C0.77079717 60.33242389 -1.61508015 58.66737357 -4 57 C-5.91630927 55.6758009 -7.83533623 54.35563295 -9.75488281 53.03613281 C-11.01444801 52.16989398 -12.27289133 51.30202184 -13.53027344 50.43261719 C-20.73345984 45.46259468 -28.02600357 40.6261324 -35.32617188 35.80004883 C-39.67700173 32.9172413 -44.01112081 30.03608847 -48.21484375 26.94140625 C-48.80692627 26.50908691 -49.39900879 26.07676758 -50.0090332 25.63134766 C-51.48834601 24.53845755 -52.95206651 23.42454307 -54.4140625 22.30859375 C-57.79860612 20.59587153 -59.35481492 21.10446814 -63 22 C-65.54557275 23.3131992 -65.54557275 23.3131992 -67.94140625 25.0625 C-68.85599609 25.69542969 -69.77058594 26.32835937 -70.71289062 26.98046875 C-71.65326172 27.64691406 -72.59363281 28.31335938 -73.5625 29 C-74.47580078 29.63550781 -75.38910156 30.27101563 -76.33007812 30.92578125 C-78.23097195 32.24964171 -80.12890736 33.57775818 -82.02416992 34.90966797 C-93.3143092 42.84027528 -104.7321519 50.5775831 -116.16772461 58.29589844 C-118.207445 59.67297699 -120.24633779 61.0512741 -122.28515625 62.4296875 C-122.90181656 62.84531952 -123.51847687 63.26095154 -124.15382385 63.68917847 C-126.56121502 65.31730032 -128.92657201 66.94099931 -131.19311523 68.76220703 C-134.09603077 70.75082773 -136.60459921 70.37726675 -140 70 C-142.24709109 66.62936337 -142.13534409 65.3228325 -141.52978516 61.43945312 C-140.44307837 56.43559405 -138.79723248 51.60549073 -137.1875 46.75 C-136.84396484 45.69425781 -136.50042969 44.63851562 -136.14648438 43.55078125 C-133.79946792 36.3556126 -131.39981334 29.17770405 -129 22 C-128.34 22 -127.68 22 -127 22 C-127 21.01 -127 20.02 -127 19 C-122.77777778 16 -122.77777778 16 -120 16 C-120 15.34 -120 14.68 -120 14 C-119.34 14 -118.68 14 -118 14 C-117.28159361 22.63833799 -119.40683233 29.94250473 -122 38.125 C-122.57234375 39.98898437 -122.57234375 39.98898437 -123.15625 41.890625 C-124.09179923 44.93116 -125.03990442 47.96714487 -126 51 C-118.26323433 45.87884238 -110.58500919 40.67832133 -102.93334961 35.4309082 C-98.1175955 32.12966087 -93.29537361 28.8381825 -88.46484375 25.55859375 C-87.62950859 24.99133324 -87.62950859 24.99133324 -86.77729797 24.41261292 C-84.03236076 22.54880897 -81.28675124 20.68601128 -78.5402832 18.82446289 C-77.02760864 17.79760376 -77.02760864 17.79760376 -75.484375 16.75 C-74.52853516 16.10546875 -73.57269531 15.4609375 -72.58789062 14.796875 C-70.38640699 13.26829768 -68.30238298 11.66259364 -66.203125 10 C-62.29460628 7.55955905 -60.55020162 7.51652435 -56 8 C-53.44423542 9.35955386 -51.32912392 10.66315827 -49.01953125 12.3515625 C-47.69614512 13.27639412 -46.3727396 14.20119798 -45.04931641 15.12597656 C-44.37821838 15.60377563 -43.70712036 16.08157471 -43.01568604 16.57385254 C-39.84223821 18.81914495 -36.61202677 20.97867065 -33.38671875 23.1484375 C-32.11355676 24.01145198 -30.84085447 24.875145 -29.56860352 25.73950195 C-17.08409959 34.21773868 -4.58060183 42.66470414 8 51 C6.62990744 46.37353516 5.25455869 41.74865013 3.875 37.125 C3.56986984 36.10206848 3.56986984 36.10206848 3.25857544 35.05847168 C0.55310992 26.00416438 -2.22926171 16.98597052 -5.32275391 8.05517578 C-7 3.18695397 -7 3.18695397 -7 1 C-5 1 -5 1 -3.375 2.5 C-2.92125 2.995 -2.4675 3.49 -2 4 C-1.34 2.68 -0.68 1.36 0 0 Z " fill="#CB9E4E" transform="translate(263,256)"/>
<path d="M0 0 C1.41112312 0.00022659 1.41112312 0.00022659 2.85075378 0.00045776 C3.86333755 0.01078033 4.87592133 0.02110291 5.91918945 0.03173828 C7.47764336 0.03598312 7.47764336 0.03598312 9.06758118 0.04031372 C12.38932767 0.05151797 15.71080556 0.07662314 19.0324707 0.10205078 C21.28311785 0.11208026 23.53376923 0.12120616 25.78442383 0.12939453 C31.30469793 0.15145808 36.82481513 0.18493807 42.3449707 0.22705078 C41.63993169 4.52850092 40.81397471 6.45184758 37.3449707 9.22705078 C34.42351051 10.16376432 31.63438087 10.40637212 28.5793457 10.54345703 C27.24516602 10.60629883 27.24516602 10.60629883 25.8840332 10.67041016 C24.50344727 10.72938477 24.50344727 10.72938477 23.0949707 10.78955078 C22.15911133 10.83273438 21.22325195 10.87591797 20.2590332 10.92041016 C17.95448429 11.02623128 15.64983231 11.12831635 13.3449707 11.22705078 C18.98299888 16.43253183 24.85189465 21.24553874 30.90795898 25.94702148 C34.9712827 29.1141994 38.93349094 32.37461036 42.8449707 35.72705078 C47.36106575 39.5969021 51.96509389 43.32309934 56.6574707 46.97705078 C57.82314358 47.89332537 58.98851882 48.80997877 60.15356445 49.72705078 C62.08919051 51.2503168 64.03590468 52.7465195 66.00512695 54.22705078 C66.73602539 54.80455078 67.46692383 55.38205078 68.2199707 55.97705078 C68.83614258 56.44626953 69.45231445 56.91548828 70.0871582 57.39892578 C72.09966129 60.32393027 71.57032914 62.72025894 71.3449707 66.22705078 C70.58820651 69.50941406 69.55742753 72.68247611 68.5012207 75.87939453 C68.21267212 76.77952774 67.92412354 77.67966095 67.62683105 78.60707092 C66.70902158 81.4627246 65.7772424 84.31358981 64.8449707 87.16455078 C64.21773863 89.10761019 63.59142655 91.05096685 62.96606445 92.99462891 C61.4363281 97.74227641 59.8940524 102.48568186 58.3449707 107.22705078 C58.0149707 107.22705078 57.6849707 107.22705078 57.3449707 107.22705078 C57.3449707 104.91705078 57.3449707 102.60705078 57.3449707 100.22705078 C56.6849707 100.22705078 56.0249707 100.22705078 55.3449707 100.22705078 C55.3449707 100.88705078 55.3449707 101.54705078 55.3449707 102.22705078 C50.96035532 105.22705078 50.96035532 105.22705078 48.3449707 105.22705078 C47.8499707 106.71205078 47.8499707 106.71205078 47.3449707 108.22705078 C47.89055639 101.89825682 49.44795858 96.5379934 51.6574707 90.60205078 C57.0417635 77.21923431 57.0417635 77.21923431 59.3449707 63.22705078 C57.32319963 61.43261529 55.32354935 59.83012986 53.1574707 58.22705078 C51.86024743 57.23963185 50.56471119 56.2499932 49.27075195 55.25830078 C48.61155762 54.75427734 47.95236328 54.25025391 47.27319336 53.73095703 C44.38939669 51.48175628 41.61627656 49.11244062 38.8449707 46.72705078 C34.50844766 43.01350453 30.10136184 39.4199478 25.5949707 35.91455078 C20.15462362 31.67991889 14.79281451 27.35854628 9.4699707 22.97705078 C8.78064453 22.41074951 8.09131836 21.84444824 7.38110352 21.26098633 C-4.09871352 11.78336656 -4.09871352 11.78336656 -7.6550293 8.22705078 C-7.9050293 5.28955078 -7.9050293 5.28955078 -7.6550293 2.22705078 C-4.45457454 0.09341428 -3.66873493 -0.0196715 0 0 Z " fill="#E7CA83" transform="translate(87.655029296875,169.77294921875)"/>
<path d="M0 0 C4.03805866 1.36266644 6.54368118 3.1409151 9.625 6.0625 C14.37687372 10.45850652 19.29340586 14.56786257 24.32470703 18.63818359 C27.73130691 21.40734916 31.11331267 24.20654944 34.5 27 C39.24025913 30.90795239 43.98621719 34.80822072 48.75 38.6875 C49.5853125 39.38359375 50.420625 40.0796875 51.28125 40.796875 C53.35509614 42.47740549 55.44182638 44.06632298 57.59375 45.640625 C58.81271668 46.57263334 60.0314697 47.5049212 61.25 48.4375 C61.83620117 48.84379639 62.42240234 49.25009277 63.02636719 49.66870117 C64.640625 50.93359375 64.640625 50.93359375 67 54 C67.83642646 61.21955293 64.80627916 68.68788327 62.5625 75.4375 C62.24990234 76.41654297 61.93730469 77.39558594 61.61523438 78.40429688 C59.28490736 85.57263896 59.28490736 85.57263896 57 89 C54.375 89.1875 54.375 89.1875 52 89 C51.79375 89.61875 51.5875 90.2375 51.375 90.875 C49.45224112 93.84653645 47.33405473 94.13024659 44 95 C45.97644437 86.71575444 48.35516538 78.73309555 51.1484375 70.6953125 C51.53257813 69.53773438 51.91671875 68.38015625 52.3125 67.1875 C52.67988281 66.10855469 53.04726562 65.02960938 53.42578125 63.91796875 C54.1904028 61.13245123 54.1904028 61.13245123 53.4765625 58.9375 C51.35089485 56.14826414 48.76604593 54.01245566 46.0625 51.8125 C45.18525269 51.08522705 45.18525269 51.08522705 44.2902832 50.34326172 C42.5323384 48.88869069 40.76695303 47.44360572 39 46 C38.09507813 45.25363281 37.19015625 44.50726563 36.2578125 43.73828125 C32.2598164 40.45117503 28.2387914 37.19273835 24.21484375 33.9375 C17.1645552 28.22943542 10.14736862 22.49287486 3.24853516 16.60205078 C0.93599781 14.62849217 -1.37757186 12.71734551 -3.8125 10.89453125 C-6 9 -6 9 -6.8125 5.75 C-6.874375 4.8425 -6.93625 3.935 -7 3 C-4.525 3.99 -4.525 3.99 -2 5 C-2 4.01 -2 3.02 -2 2 C-1.34 2 -0.68 2 0 2 C0 1.34 0 0.68 0 0 Z " fill="#E4C37A" transform="translate(66,183)"/>
<path d="M0 0 C0.92140849 2.93175429 1.25551549 4.43901863 -0.0390625 7.28125 C-2.62225622 10.86272975 -5.69022752 13.48912233 -9.0625 16.3125 C-9.69994141 16.86228516 -10.33738281 17.41207031 -10.99414062 17.97851562 C-15.73499612 22 -15.73499612 22 -18 22 C-16.64727817 26.37544781 -15.29273838 30.75033115 -13.9375 35.125 C-13.63478683 36.10274887 -13.63478683 36.10274887 -13.32595825 37.10025024 C-10.28774996 46.90983981 -7.20661592 56.70437996 -4.03295898 66.47119141 C-3.76298096 67.30956543 -3.49300293 68.14793945 -3.21484375 69.01171875 C-2.86087524 70.10166138 -2.86087524 70.10166138 -2.49975586 71.21362305 C-2 73 -2 73 -2 75 C-2.94875 74.979375 -3.8975 74.95875 -4.875 74.9375 C-7.90666283 74.77448174 -7.90666283 74.77448174 -10 76 C-10.65772428 79.02934491 -10.65772428 79.02934491 -11 82 C-13.20757494 78.68863759 -14.19806511 75.45414809 -15.3125 71.6875 C-16.85838276 66.58197367 -18.49694107 61.55826071 -20.375 56.5625 C-22.82921333 49.79577124 -24.84247192 42.92192166 -26.8125 36 C-27.12687012 34.91275635 -27.44124023 33.8255127 -27.76513672 32.70532227 C-28.05533691 31.66819092 -28.34553711 30.63105957 -28.64453125 29.5625 C-28.90596924 28.63566406 -29.16740723 27.70882812 -29.43676758 26.75390625 C-30.05638266 23.72431886 -30.23406628 21.08388361 -30 18 C-27.9453125 15.5078125 -27.9453125 15.5078125 -25.125 13.125 C-24.12597656 12.27292969 -23.12695312 11.42085937 -22.09765625 10.54296875 C-21.06555285 9.69476624 -20.03300858 8.84709988 -19 8 C-18.07058594 7.21238281 -17.14117187 6.42476562 -16.18359375 5.61328125 C-7.24077268 -1.81019317 -7.24077268 -1.81019317 0 0 Z " fill="#E1BD70" transform="translate(305,219)"/>
<path d="M0 0 C2.98046875 1.51953125 2.98046875 1.51953125 6.1875 3.8125 C7.47342126 4.71300701 8.75993709 5.61266525 10.046875 6.51171875 C10.79517578 7.04200684 11.54347656 7.57229492 12.31445312 8.11865234 C17.49596105 11.74853417 22.75348804 15.26790085 27.99478149 18.81063843 C31.13372556 20.93431586 34.26809762 23.06471024 37.40234375 25.1953125 C38.47991943 25.92766113 39.55749512 26.66000977 40.66772461 27.41455078 C41.43737549 27.93774902 42.20702637 28.46094727 43 29 C42 32 42 32 40 33 C39.34227572 36.02934491 39.34227572 36.02934491 39 39 C33.77648428 36.70165308 29.23231472 33.85035752 24.625 30.5 C18.94590105 26.39476899 13.26286841 22.29973098 7.5 18.3125 C6.7467041 17.77109375 5.9934082 17.2296875 5.21728516 16.671875 C2.06266065 14.51289142 -0.08935855 13.06521835 -3.9453125 12.7890625 C-8.51552298 14.60078277 -12.35621186 17.25832167 -16.375 20.0625 C-17.62216797 20.91424805 -17.62216797 20.91424805 -18.89453125 21.78320312 C-20.93629617 23.17958258 -22.9709375 24.58525542 -25 26 C-25.33 25.34 -25.66 24.68 -26 24 C-26.66 24 -27.32 24 -28 24 C-28 23.01 -28 22.02 -28 21 C-29.65 21.33 -31.3 21.66 -33 22 C-32.48483812 17.46581083 -32.48483812 17.46581083 -30.34521484 15.41015625 C-29.64090332 14.96542969 -28.9365918 14.52070313 -28.2109375 14.0625 C-27.43363281 13.55976563 -26.65632812 13.05703125 -25.85546875 12.5390625 C-25.03691406 12.03117187 -24.21835938 11.52328125 -23.375 11 C-21.77799074 9.98019182 -20.18162784 8.95937066 -18.5859375 7.9375 C-17.80573242 7.44894531 -17.02552734 6.96039063 -16.22167969 6.45703125 C-14.1647807 5.10806717 -12.27642388 3.65283855 -10.3515625 2.125 C-6.4105035 -0.37376002 -4.58031856 -0.73139855 0 0 Z " fill="#D4AC61" transform="translate(207,264)"/>
<path d="M0 0 C0 0.66 0 1.32 0 2 C0.99 2.33 1.98 2.66 3 3 C1.79936908 6.60189277 0.60185363 7.34305857 -2.375 9.625 C-6.04107312 12.47581323 -9.67007393 15.3540151 -13.25 18.3125 C-19.75053586 23.64722958 -26.37292002 28.82410541 -33 34 C-31.81089719 39.67110569 -30.40238409 45.13733136 -28.5859375 50.640625 C-27.95634898 53.1757681 -27.89850716 55.39809253 -28 58 C-29.485 57.505 -29.485 57.505 -31 57 C-31.495 59.475 -31.495 59.475 -32 62 C-33.32 61.67 -34.64 61.34 -36 61 C-36 60.01 -36 59.02 -36 58 C-36.66 58 -37.32 58 -38 58 C-39.18782974 54.84087836 -40.34624633 51.67170892 -41.5 48.5 C-41.83386719 47.613125 -42.16773438 46.72625 -42.51171875 45.8125 C-44.49097256 40.31906084 -45.77061115 35.8427485 -45 30 C-43.3046875 27.63671875 -43.3046875 27.63671875 -40.875 25.6875 C-39.96105469 24.93597656 -39.04710937 24.18445313 -38.10546875 23.41015625 C-37.08066406 22.61480469 -36.05585938 21.81945312 -35 21 C-33.8912442 20.12456211 -32.78319082 19.24823397 -31.67578125 18.37109375 C-29.92493065 16.98768424 -28.17008299 15.61164236 -26.39941406 14.25366211 C-23.3180528 11.88251704 -20.3552326 9.45692213 -17.49609375 6.8203125 C-16.92930908 6.30645996 -16.36252441 5.79260742 -15.77856445 5.26318359 C-14.70643001 4.28206898 -13.65023285 3.28313413 -12.61401367 2.26416016 C-8.20614476 -1.73031212 -5.46699 -1.20439089 0 0 Z " fill="#E2C073" transform="translate(294,199)"/>
<path d="M0 0 C0.99 0.66 1.98 1.32 3 2 C3.96462158 2.22055054 3.96462158 2.22055054 4.94873047 2.44555664 C7.45446485 3.12283857 8.82518427 4.22060612 10.8203125 5.87109375 C11.52027344 6.44537109 12.22023437 7.01964844 12.94140625 7.61132812 C13.66199219 8.21396484 14.38257813 8.81660156 15.125 9.4375 C16.21748047 10.3356543 16.21748047 10.3356543 17.33203125 11.25195312 C24.95418454 17.54269516 24.95418454 17.54269516 25.30273438 21.02172852 C24.93294756 25.88114479 23.6786123 30.04446966 22.15625 34.65234375 C21.86770142 35.55247696 21.57915283 36.45261017 21.28186035 37.38002014 C20.36405088 40.23567382 19.4322717 43.08653903 18.5 45.9375 C17.87276792 47.88055941 17.24645585 49.82391607 16.62109375 51.76757812 C15.0913574 56.51522563 13.5490817 61.25863107 12 66 C11.67 66 11.34 66 11 66 C11 63.69 11 61.38 11 59 C10.34 59 9.68 59 9 59 C9 59.66 9 60.32 9 61 C4.61538462 64 4.61538462 64 2 64 C1.67 64.99 1.34 65.98 1 67 C1.54558569 60.67120604 3.10298788 55.31094262 5.3125 49.375 C10.6967928 35.99218352 10.6967928 35.99218352 13 22 C10.79119863 20.03924585 8.60756605 18.26349683 6.25 16.5 C5.61578125 16.01402344 4.9815625 15.52804688 4.328125 15.02734375 C1.7709999 13.07220851 -0.78450225 11.14815471 -3.4375 9.32421875 C-5 8 -5 8 -5.25 5.3125 C-5.1675 4.549375 -5.085 3.78625 -5 3 C-4.01 3 -3.02 3 -2 3 C-2 2.34 -2 1.68 -2 1 C-1.34 0.67 -0.68 0.34 0 0 Z " fill="#E0BF75" transform="translate(134,211)"/>
<path d="M0 0 C2.72138545 1.94384675 5.3591229 3.94886933 8 6 C8.61617187 6.46164551 9.23234375 6.92329102 9.8671875 7.39892578 C11.96060864 8.98252668 14.01178287 10.61158621 16.0625 12.25 C16.7541626 12.76199951 17.4458252 13.27399902 18.15844727 13.80151367 C20.90010267 16.0482007 22.80240654 17.64307367 23.32739258 21.24829102 C22.84761612 27.84014467 20.63602527 34.20003194 18.5625 40.4375 C18.24990234 41.41654297 17.93730469 42.39558594 17.61523438 43.40429688 C15.28490736 50.57263896 15.28490736 50.57263896 13 54 C10.375 54.1875 10.375 54.1875 8 54 C7.79375 54.61875 7.5875 55.2375 7.375 55.875 C5.45224112 58.84653645 3.33405473 59.13024659 0 60 C1.97644437 51.71575444 4.35516538 43.73309555 7.1484375 35.6953125 C7.72464844 33.95894531 7.72464844 33.95894531 8.3125 32.1875 C8.86357422 30.56908203 8.86357422 30.56908203 9.42578125 28.91796875 C10.18389247 26.13936247 10.18389247 26.13936247 9.5078125 23.96484375 C7.22646291 20.991997 4.4543304 18.73903185 1.5625 16.375 C0.97662109 15.88515625 0.39074219 15.3953125 -0.21289062 14.890625 C-2.74143851 12.78972029 -5.26268444 10.82487704 -8 9 C-8 8.34 -8 7.68 -8 7 C-7.34 7 -6.68 7 -6 7 C-6 7.66 -6 8.32 -6 9 C-4.35 9.33 -2.7 9.66 -1 10 C0.48320272 6.16112237 1.22419163 3.93795909 0 0 Z " fill="#E1BD72" transform="translate(110,218)"/>
<path d="M0 0 C0.66 0.33 1.32 0.66 2 1 C0.73046875 2.49739583 -0.5390625 3.99479167 -1.80859375 5.4921875 C-3.0878152 7.00594079 -3.0878152 7.00594079 -4 9 C-4.825 9.309375 -5.65 9.61875 -6.5 9.9375 C-7.325 10.288125 -8.15 10.63875 -9 11 C-9.33 11.99 -9.66 12.98 -10 14 C-8.68 14.33 -7.36 14.66 -6 15 C-6.33 15.99 -6.66 16.98 -7 18 C-3.18586998 16.8321734 -3.18586998 16.8321734 -0.6875 13.875 C-0.460625 13.25625 -0.23375 12.6375 0 12 C0.66 12.33 1.32 12.66 2 13 C2.33 12.01 2.66 11.02 3 10 C3.66 10.66 4.32 11.32 5 12 C-2.04367536 18.08963288 -9.09357597 24.13879204 -16.40234375 29.91015625 C-21.69111171 34.16502972 -26.83519268 38.59615175 -32 43 C-32.89130413 40.3260876 -33.47731534 37.76276177 -34 35 C-36.31 35 -38.62 35 -41 35 C-37.00541074 30.84284025 -32.72057752 27.19724935 -28.25 23.5625 C-26.74345657 22.32946742 -25.23694721 21.09639321 -23.73046875 19.86328125 C-22.95622559 19.23115723 -22.18198242 18.5990332 -21.38427734 17.94775391 C-17.43706642 14.72321482 -13.49938288 11.4871337 -9.5625 8.25 C-8.83514648 7.65388916 -8.10779297 7.05777832 -7.35839844 6.44360352 C-6.68454102 5.88987061 -6.01068359 5.3361377 -5.31640625 4.765625 C-4.72287354 4.27868164 -4.12934082 3.79173828 -3.51782227 3.29003906 C-1.87556265 1.92946782 -1.87556265 1.92946782 0 0 Z " fill="#E4C67E" transform="translate(338,184)"/>
<path d="M0 0 C1.75979091 2.63968637 2.51130194 4.28314212 3.3671875 7.24609375 C3.61130371 8.07834473 3.85541992 8.9105957 4.10693359 9.76806641 C4.36039551 10.64897949 4.61385742 11.52989258 4.875 12.4375 C6.88738539 19.30975288 8.9794546 26.11989817 11.3359375 32.8828125 C12 35 12 35 12 37 C10.576875 36.9690625 10.576875 36.9690625 9.125 36.9375 C6.09333717 36.77448174 6.09333717 36.77448174 4 38 C3.34227572 41.02934491 3.34227572 41.02934491 3 44 C0.79252567 40.68878851 -0.19847452 37.45422092 -1.3125 33.6875 C-2.96359689 28.2187085 -4.75356628 22.85275707 -6.75 17.5 C-8.54463302 12.58304308 -9.68688365 8.2186058 -10 3 C-7.1875 2.375 -7.1875 2.375 -4 2 C-3.01 2.66 -2.02 3.32 -1 4 C-0.67 2.68 -0.34 1.36 0 0 Z " fill="#D1A75A" transform="translate(291,257)"/>
<path d="M0 0 C1.32 0 2.64 0 4 0 C5.18969888 3.30466888 6.34735253 6.61974445 7.5 9.9375 C7.83386719 10.86369141 8.16773438 11.78988281 8.51171875 12.74414062 C10.32045193 18.00423202 11.37480569 22.45389347 11.02539062 28.02954102 C10.91481345 30.05814146 10.91481345 30.05814146 11.55273438 32.19116211 C11.77413086 33.08653687 11.77413086 33.08653687 12 34 C11.67 34.33 11.34 34.66 11 35 C12.485 35.495 12.485 35.495 14 36 C14.33 38.64 14.66 41.28 15 44 C14.01 44 13.02 44 12 44 C11.67 43.34 11.34 42.68 11 42 C10.34 42.99 9.68 43.98 9 45 C5.816835 42.87789 5.5548678 42.53164093 4.46606445 39.1328125 C4.20602127 38.33858887 3.94597809 37.54436523 3.67805481 36.72607422 C3.2747419 35.43854248 3.2747419 35.43854248 2.86328125 34.125 C2.57897751 33.24473145 2.29467377 32.36446289 2.00175476 31.45751953 C1.40271288 29.59631285 0.80874905 27.73346526 0.21948242 25.86914062 C-0.68490139 23.00822043 -1.60368854 20.15225739 -2.52539062 17.296875 C-3.10501046 15.48985377 -3.68381439 13.68257059 -4.26171875 11.875 C-4.6741407 10.58746826 -4.6741407 10.58746826 -5.09489441 9.27392578 C-5.47077446 8.08259033 -5.47077446 8.08259033 -5.85424805 6.8671875 C-6.07614304 6.16706543 -6.29803802 5.46694336 -6.5266571 4.74560547 C-7 3 -7 3 -7 1 C-5 1 -5 1 -3.375 2.5 C-2.92125 2.995 -2.4675 3.49 -2 4 C-1.34 2.68 -0.68 1.36 0 0 Z " fill="#D8AE5E" transform="translate(263,256)"/>
<path d="M0 0 C1.98 0 3.96 0 6 0 C5.34366506 6.94705286 3.16196723 13.37088578 1.0625 20 C0.34448315 22.29148847 -0.37298063 24.58315033 -1.08984375 26.875 C-1.59451172 28.47299438 -1.59451172 28.47299438 -2.109375 30.10327148 C-2.83624853 32.46740371 -3.49711849 34.83023931 -4.12109375 37.22265625 C-5 40 -5 40 -7.125 41.4375 C-8.053125 41.7159375 -8.053125 41.7159375 -9 42 C-9.33 41.34 -9.66 40.68 -10 40 C-10.99 40 -11.98 40 -13 40 C-12.505 37.03 -12.505 37.03 -12 34 C-12.66 34 -13.32 34 -14 34 C-13.835 33.46375 -13.67 32.9275 -13.5 32.375 C-12.89273411 29.97440151 -12.89273411 29.97440151 -13.109375 27.3671875 C-12.97432338 23.20952698 -11.98657172 19.69835179 -10.75 15.75 C-10.44255859 14.67105469 -10.44255859 14.67105469 -10.12890625 13.5703125 C-8.5074741 8.32276845 -8.5074741 8.32276845 -5.875 6.6484375 C-5.25625 6.43445313 -4.6375 6.22046875 -4 6 C-3.19471111 3.94999129 -3.19471111 3.94999129 -3 2 C-3 2.99 -3 3.98 -3 5 C-2.34 5 -1.68 5 -1 5 C-0.67 3.35 -0.34 1.7 0 0 Z " fill="#CFA352" transform="translate(117,271)"/>
<path d="M0 0 C0.33 0.33 0.66 0.66 1 1 C1.66 1 2.32 1 3 1 C3 0.34 3 -0.32 3 -1 C6.97920991 0.42908576 10.23626477 2.33566503 13.73828125 4.6953125 C14.80498047 5.41074219 15.87167969 6.12617188 16.97070312 6.86328125 C18.08470367 7.61708665 19.19863511 8.37099417 20.3125 9.125 C21.44567682 9.88714522 22.57913765 10.64886836 23.71289062 11.41015625 C26.4780815 13.26930586 29.24030379 15.13270814 32 17 C31 20 31 20 29 21 C28.34227572 24.02934491 28.34227572 24.02934491 28 27 C22.0281093 24.37236809 16.91043911 20.90580187 11.65917969 17.07910156 C4.9141737 12.17265947 -2.03433067 7.58524452 -9 3 C-7.03494404 -0.93011192 -3.92316174 -1.48809583 0 0 Z " fill="#D2A758" transform="translate(218,276)"/>
<path d="M0 0 C4.13405805 1.38292333 6.70975815 3.27689743 9.875 6.25 C10.73609375 7.04792969 11.5971875 7.84585938 12.484375 8.66796875 C13.31453125 9.43753906 14.1446875 10.20710937 15 11 C17.31465892 13.02327455 19.65499125 15.0118404 22 17 C21.67 18.65 21.34 20.3 21 22 C19.02 22.66 17.04 23.32 15 24 C15.66 24.33 16.32 24.66 17 25 C11.97867908 24.59717015 9.10059512 21.91633994 5.5 18.6875 C4.38589719 17.71169069 3.27132078 16.7364218 2.15625 15.76171875 C1.62539795 15.29008301 1.0945459 14.81844727 0.54760742 14.33251953 C-0.87081805 13.11122812 -2.36076455 11.97430743 -3.85546875 10.84765625 C-6 9 -6 9 -6.8125 5.75 C-6.874375 4.8425 -6.93625 3.935 -7 3 C-4.525 3.99 -4.525 3.99 -2 5 C-2 4.01 -2 3.02 -2 2 C-1.34 2 -0.68 2 0 2 C0 1.34 0 0.68 0 0 Z " fill="#E7C983" transform="translate(66,183)"/>
<path d="M0 0 C0.66 0 1.32 0 2 0 C2.474375 0.969375 2.94875 1.93875 3.4375 2.9375 C4.70193947 5.80477437 4.70193947 5.80477437 6 7 C5.57655693 14.33967993 3.2785983 21.04762566 1 28 C-0.98 28 -2.96 28 -5 28 C-5.20625 28.61875 -5.4125 29.2375 -5.625 29.875 C-7.54775888 32.84653645 -9.66594527 33.13024659 -13 34 C-11.30087283 26.87812652 -9.45806658 19.89802978 -7 13 C-6.76410156 12.2884375 -6.52820313 11.576875 -6.28515625 10.84375 C-4.81335378 6.57950069 -3.20003435 3.30326126 0 0 Z " fill="#D6AF63" transform="translate(123,244)"/>
<path d="M0 0 C1.92057292 0.390625 3.84114583 0.78125 5.76171875 1.171875 C5.76171875 1.831875 5.76171875 2.491875 5.76171875 3.171875 C6.75171875 3.501875 7.74171875 3.831875 8.76171875 4.171875 C7.55110887 7.80370463 6.26013459 8.60828253 3.26171875 10.921875 C2.36710937 11.61796875 1.4725 12.3140625 0.55078125 13.03125 C-0.36960937 13.73765625 -1.29 14.4440625 -2.23828125 15.171875 C-3.94697019 16.50475259 -5.65533284 17.83804863 -7.36328125 19.171875 C-8.65438964 20.17259569 -9.94583502 21.17288275 -11.23828125 22.171875 C-12.69890975 19.52448584 -13.23828125 18.27739166 -13.23828125 15.171875 C-13.65078125 15.749375 -14.06328125 16.326875 -14.48828125 16.921875 C-16.2578548 19.19704099 -18.16680503 21.17182899 -20.23828125 23.171875 C-22.21828125 22.511875 -24.19828125 21.851875 -26.23828125 21.171875 C-22.42191793 17.24709227 -18.40941111 13.65216158 -14.23828125 10.109375 C-13.635 9.59310547 -13.03171875 9.07683594 -12.41015625 8.54492188 C-11.23312006 7.54060295 -10.05185737 6.54121149 -8.8659668 5.54736328 C-7.41214153 4.31879698 -5.98892354 3.05422118 -4.5703125 1.78515625 C-2.23828125 0.171875 -2.23828125 0.171875 0 0 Z " fill="#E3C57E" transform="translate(288.23828125,197.828125)"/>
<path d="M0 0 C-0.58001109 6.86210302 -2.40165478 12.97895423 -4.5625 19.5 C-4.89185547 20.51320313 -5.22121094 21.52640625 -5.56054688 22.5703125 C-6.3673043 25.04904547 -7.18057108 27.52543319 -8 30 C-8.33 30 -8.66 30 -9 30 C-9 27.69 -9 25.38 -9 23 C-9.66 23 -10.32 23 -11 23 C-11 23.66 -11 24.32 -11 25 C-15.38461538 28 -15.38461538 28 -18 28 C-18.33 28.99 -18.66 29.98 -19 31 C-18.43560568 23.97455423 -16.49674524 17.76355618 -14.1875 11.125 C-13.84396484 10.08085937 -13.50042969 9.03671875 -13.14648438 7.9609375 C-12.80294922 6.96578125 -12.45941406 5.970625 -12.10546875 4.9453125 C-11.79762451 4.04312988 -11.48978027 3.14094727 -11.17260742 2.21142578 C-8.37900053 -3.05705044 -4.90861576 -2.00807008 0 0 Z " fill="#D3AE67" transform="translate(154,247)"/>
<path d="M0 0 C0.66 0 1.32 0 2 0 C2.76931472 9.69336545 -0.04196755 17.89348582 -3 27 C-5.66666667 27 -8.33333333 27 -11 27 C-12.24546405 29.49092811 -11.7767578 30.41080733 -11 33 C-11.99 33.66 -12.98 34.32 -14 35 C-14 34.34 -14 33.68 -14 33 C-14.66 33 -15.32 33 -16 33 C-15.38574623 27.2073537 -13.84466956 22.05390934 -11.9375 16.5625 C-11.65583984 15.73556641 -11.37417969 14.90863281 -11.08398438 14.05664062 C-10.39482208 12.03587662 -9.6981769 10.01766718 -9 8 C-8.34 8 -7.68 8 -7 8 C-7 7.01 -7 6.02 -7 5 C-2.77777778 2 -2.77777778 2 0 2 C0 1.34 0 0.68 0 0 Z M-11 30 C-9 31 -9 31 -9 31 Z " fill="#D0A554" transform="translate(143,270)"/>
<path d="M0 0 C5.67010309 15.98969072 5.67010309 15.98969072 4 21 C2.66666667 22.33333333 1.33333333 23.66666667 0 25 C-2.625 24.625 -2.625 24.625 -5 24 C-7.61177122 15.9081731 -9.71240023 8.58838053 -9 0 C-5.93109813 -1.53445094 -3.29905734 -0.54984289 0 0 Z " fill="#CC9E4F" transform="translate(303,294)"/>
<path d="M0 0 C0.92987975 2.9587083 1.25353282 4.44819327 -0.0625 7.3125 C-2.53123473 10.73687398 -5.42534308 13.16531091 -8.6875 15.8125 C-9.29400391 16.31458984 -9.90050781 16.81667969 -10.52539062 17.33398438 C-12.01146384 18.56262758 -13.504994 19.7822419 -15 21 C-15.12375 20.360625 -15.2475 19.72125 -15.375 19.0625 C-15.58125 18.381875 -15.7875 17.70125 -16 17 C-16.66 16.67 -17.32 16.34 -18 16 C-17.67 14.68 -17.34 13.36 -17 12 C-18.32 11.34 -19.64 10.68 -21 10 C-19.09026054 8.34549301 -17.1729739 6.70149985 -15.25 5.0625 C-14.71117187 4.59392578 -14.17234375 4.12535156 -13.6171875 3.64257812 C-8.72115125 -0.50711114 -6.18727123 -1.54681781 0 0 Z " fill="#E1BF75" transform="translate(305,219)"/>
<path d="M0 0 C2.79786144 2.79786144 3.4933049 6.11804187 4.625 9.8125 C4.85445313 10.52470703 5.08390625 11.23691406 5.3203125 11.97070312 C6.49564842 15.75206661 7.29925001 18.99162489 7 23 C6.01 22.67 5.02 22.34 4 22 C3.67 23.65 3.34 25.3 3 27 C1.68 26.67 0.36 26.34 -1 26 C-1 25.01 -1 24.02 -1 23 C-1.66 23 -2.32 23 -3 23 C-3.83887056 20.56427941 -4.67126529 18.12666783 -5.5 15.6875 C-5.85771484 14.65206055 -5.85771484 14.65206055 -6.22265625 13.59570312 C-7.23208263 10.61068511 -8 8.17341086 -8 5 C-5.36 4.67 -2.72 4.34 0 4 C0 2.68 0 1.36 0 0 Z " fill="#DDB86B" transform="translate(259,234)"/>
<path d="M0 0 C0.66 0 1.32 0 2 0 C2 0.66 2 1.32 2 2 C2.66 2 3.32 2 4 2 C6.45657845 5.68486768 6.07631341 7.65013547 6 12 C6.31674575 13.33737094 6.64270064 14.67288808 7 16 C6.67 16.33 6.34 16.66 6 17 C6.99 17.33 7.98 17.66 9 18 C9.33 20.64 9.66 23.28 10 26 C9.01 26 8.02 26 7 26 C6.67 25.34 6.34 24.68 6 24 C5.34 24.99 4.68 25.98 4 27 C0.24617226 24.49744817 -0.37601353 21.9133716 -1.6875 17.8125 C-1.91244141 17.16474609 -2.13738281 16.51699219 -2.36914062 15.84960938 C-3.81259646 11.45781823 -4.22414002 7.67059343 -4 3 C-3.34 3 -2.68 3 -2 3 C-1.34 2.01 -0.68 1.02 0 0 Z " fill="#D3A653" transform="translate(268,274)"/>
<path d="M0 0 C1.98 0 3.96 0 6 0 C5.35346673 6.95023264 3.13972752 13.38177303 1 20 C-0.1446875 20.2165625 -0.1446875 20.2165625 -1.3125 20.4375 C-4.08172908 20.9632594 -4.08172908 20.9632594 -7 22 C-7.66 21.67 -8.32 21.34 -9 21 C-8.505 19.515 -8.505 19.515 -8 18 C-7.34 18 -6.68 18 -6 18 C-6 17.01 -6 16.02 -6 15 C-6.66 15 -7.32 15 -8 15 C-7.67 12.36 -7.34 9.72 -7 7 C-6.01 6.67 -5.02 6.34 -4 6 C-3.26676204 3.98491642 -3.26676204 3.98491642 -3 2 C-3 2.99 -3 3.98 -3 5 C-2.34 5 -1.68 5 -1 5 C-0.67 3.35 -0.34 1.7 0 0 Z " fill="#D4A958" transform="translate(117,271)"/>
<path d="M0 0 C2.46938403 3.70407605 3.45182375 7.32036359 4.6875 11.5625 C4.92533203 12.34302734 5.16316406 13.12355469 5.40820312 13.92773438 C7.12262357 19.75475285 7.12262357 19.75475285 6 22 C5.071875 21.360625 4.14375 20.72125 3.1875 20.0625 C0.31767262 18.20555287 -1.70444428 17.16072684 -5.078125 16.7421875 C-7 16 -7 16 -8.046875 13.8203125 C-8.27890625 12.93085938 -8.5109375 12.04140625 -8.75 11.125 C-8.99234375 10.24070312 -9.2346875 9.35640625 -9.484375 8.4453125 C-10 6 -10 6 -10 3 C-7.1875 2.375 -7.1875 2.375 -4 2 C-3.01 2.66 -2.02 3.32 -1 4 C-0.67 2.68 -0.34 1.36 0 0 Z " fill="#D7AE62" transform="translate(291,257)"/>
<path d="M0 0 C1.953125 0.18359375 1.953125 0.18359375 4 1 C7.071913 6.23829941 7.32232069 12.0907873 7 18 C6.01 17.67 5.02 17.34 4 17 C2.68 17 1.36 17 0 17 C-2.125 16.875 -2.125 16.875 -4 16 C-5.64003656 12.39191957 -6.72565353 8.93926202 -6 5 C-3.5625 2.75 -3.5625 2.75 -1 1 C-0.67 0.67 -0.34 0.34 0 0 Z " fill="#DCB569" transform="translate(284,244)"/>
<path d="M0 0 C-0.5859375 6.15234375 -0.5859375 6.15234375 -1 8 C-3 9 -3 9 -4 9 C-4 10.32 -4 11.64 -4 13 C-4.66 13 -5.32 13 -6 13 C-6 13.66 -6 14.32 -6 15 C-6.99 15.33 -7.98 15.66 -9 16 C-9 15.34 -9 14.68 -9 14 C-10.65 15.32 -12.3 16.64 -14 18 C-13.7159949 15.93643105 -13.42246648 13.8741715 -13.125 11.8125 C-12.96257812 10.66394531 -12.80015625 9.51539063 -12.6328125 8.33203125 C-11.24456791 1.02232364 -11.24456791 1.02232364 -8.25 -1.4375 C-5.05264724 -2.23683819 -2.98787111 -1.22231091 0 0 Z " fill="#DDB567" transform="translate(154,247)"/>
<path d="M0 0 C0.474375 0.969375 0.94875 1.93875 1.4375 2.9375 C2.70193947 5.80477437 2.70193947 5.80477437 4 7 C3.53480475 14.21052632 3.53480475 14.21052632 1.6875 16.9375 C-0.19509709 18.12283891 -1.81513517 18.62329917 -4 19 C-6.58242936 15.7977876 -7.24546267 13.51020952 -6.9375 9.5 C-6.32468464 5.4213733 -4.88825537 0 0 0 Z " fill="#DEB666" transform="translate(125,244)"/>
<path d="M0 0 C0.66 0 1.32 0 2 0 C2.02698189 1.62490954 2.04638757 3.24994633 2.0625 4.875 C2.07410156 5.77992188 2.08570313 6.68484375 2.09765625 7.6171875 C2 10 2 10 1 12 C0.34 12 -0.32 12 -1 12 C-1 13.32 -1 14.64 -1 16 C-5 16 -5 16 -6.8125 15 C-8.44049687 12.25811054 -8.156388 9.9558997 -7.65234375 6.875 C-7 5 -7 5 -4.5625 3 C-2 2 -2 2 0 2 C0 1.34 0 0.68 0 0 Z " fill="#D7AA58" transform="translate(143,270)"/>
<path d="M0 0 C1.32 0 2.64 0 4 0 C4.50833591 1.24663331 5.00631145 2.49749387 5.5 3.75 C5.7784375 4.44609375 6.056875 5.1421875 6.34375 5.859375 C7 8 7 8 7 12 C6.34 12 5.68 12 5 12 C4.67 10.02 4.34 8.04 4 6 C1.43435673 7.28282164 1.11526567 8.39771344 0 11 C-0.36784131 12.3242287 -0.71202981 13.65613912 -1 15 C-1.66 15 -2.32 15 -3 15 C-3.67031719 13.0429132 -4.33614683 11.08428887 -5 9.125 C-5.37125 8.03445313 -5.7425 6.94390625 -6.125 5.8203125 C-7 3 -7 3 -7 1 C-5 1 -5 1 -3.375 2.5 C-2.92125 2.995 -2.4675 3.49 -2 4 C-1.34 2.68 -0.68 1.36 0 0 Z " fill="#D1AF6B" transform="translate(263,256)"/>
<path d="M0 0 C0.99 0 1.98 0 3 0 C4.0257259 4.41062136 4.03684712 6.92630576 2 11 C1.01 11 0.02 11 -1 11 C-1 10.34 -1 9.68 -1 9 C-1.99 9 -2.98 9 -4 9 C-4 6.69 -4 4.38 -4 2 C-3.01 2 -2.02 2 -1 2 C-0.67 1.34 -0.34 0.68 0 0 Z " fill="#CF9F4A" transform="translate(108,302)"/>
<path d="M0 0 C0.66 0.33 1.32 0.66 2 1 C1.34 1.94875 0.68 2.8975 0 3.875 C-2.17968457 6.66238955 -2.17968457 6.66238955 -2 9 C-3.98 9.33 -5.96 9.66 -8 10 C-8.33 12.31 -8.66 14.62 -9 17 C-9.33 17 -9.66 17 -10 17 C-10.59007919 13.75456448 -10.87019102 12.11733136 -10 9 C-6.99358874 5.57691069 -3.60141605 2.77823524 0 0 Z " fill="#D9BF7E" transform="translate(259,220)"/>
<path d="M0 0 C0.99 0.33 1.98 0.66 3 1 C4.1875 3.5625 4.1875 3.5625 5 6 C4.01 6 3.02 6 2 6 C2 5.34 2 4.68 2 4 C-0.02045442 4.60183749 -2.02111039 5.27306096 -4 6 C-4.33 6.66 -4.66 7.32 -5 8 C-5.66 8 -6.32 8 -7 8 C-7.33 8.66 -7.66 9.32 -8 10 C-8.99 9.34 -9.98 8.68 -11 8 C-9.23871656 6.63343543 -7.46563912 5.28205915 -5.6875 3.9375 C-4.70136719 3.18339844 -3.71523437 2.42929687 -2.69921875 1.65234375 C-1.80847656 1.10707031 -0.91773438 0.56179688 0 0 Z " fill="#CFA75D" transform="translate(172,283)"/>
<path d="M0 0 C0.8971875 0.309375 0.8971875 0.309375 1.8125 0.625 C2.4725 2.935 3.1325 5.245 3.8125 7.625 C3.1525 7.295 2.4925 6.965 1.8125 6.625 C1.8125 5.965 1.8125 5.305 1.8125 4.625 C1.1525 4.625 0.4925 4.625 -0.1875 4.625 C-0.1875 3.965 -0.1875 3.305 -0.1875 2.625 C-3.09552461 4.84428194 -5.14062762 6.55469143 -7.1875 9.625 C-7.8475 7.315 -8.5075 5.005 -9.1875 2.625 C-8.589375 2.50125 -7.99125 2.3775 -7.375 2.25 C-4.41425756 1.40407359 -3.14374593 -0.53892787 0 0 Z " fill="#CEA963" transform="translate(270.1875,271.375)"/>
<path d="M0 0 C1.89671385 3.54525953 3.25664542 7.22302128 4.625 11 C5.07101562 12.216875 5.51703125 13.43375 5.9765625 14.6875 C7 18 7 18 7 22 C6.01 21.67 5.02 21.34 4 21 C3.67 17.7 3.34 14.4 3 11 C1.68 10.67 0.36 10.34 -1 10 C-0.34 9.67 0.32 9.34 1 9 C0.649375 8.2575 0.29875 7.515 -0.0625 6.75 C-1.04509293 3.8677274 -1.0326802 2.78823655 0 0 Z " fill="#BF9E65" transform="translate(274,281)"/>
<path d="M0 0 C0.66 0.66 1.32 1.32 2 2 C-0.14335152 3.83630673 -2.28950298 5.66914181 -4.4375 7.5 C-5.35499023 8.28697266 -5.35499023 8.28697266 -6.29101562 9.08984375 C-10.88671875 13 -10.88671875 13 -12 13 C-12 11.35 -12 9.7 -12 8 C-10.88625 7.7525 -9.7725 7.505 -8.625 7.25 C-4.95384802 6.38994661 -4.95384802 6.38994661 -3.5625 3.875 C-3.376875 3.25625 -3.19125 2.6375 -3 2 C-2.34 2.33 -1.68 2.66 -1 3 C-0.67 2.01 -0.34 1.02 0 0 Z " fill="#DCC689" transform="translate(341,194)"/>
<path d="M0 0 C0.66 0.33 1.32 0.66 2 1 C0.73046875 2.49739583 -0.5390625 3.99479167 -1.80859375 5.4921875 C-3.0878152 7.00594079 -3.0878152 7.00594079 -4 9 C-4.804375 9.309375 -5.60875 9.61875 -6.4375 9.9375 C-9.29863959 10.84547289 -9.29863959 10.84547289 -11 14 C-11.66 13.01 -12.32 12.02 -13 11 C-12.22914063 10.37351563 -11.45828125 9.74703125 -10.6640625 9.1015625 C-9.15972656 7.87566406 -9.15972656 7.87566406 -7.625 6.625 C-6.62726563 5.81289062 -5.62953125 5.00078125 -4.6015625 4.1640625 C-2.03639494 2.09734084 -2.03639494 2.09734084 0 0 Z " fill="#DFC98D" transform="translate(338,184)"/>
<path d="M0 0 C0.79560764 2.91499943 1.25322499 5.74561419 1.5625 8.75 C1.64628906 9.54921875 1.73007813 10.3484375 1.81640625 11.171875 C1.87699219 11.77515625 1.93757812 12.3784375 2 13 C1.01 13.66 0.02 14.32 -1 15 C-1 14.34 -1 13.68 -1 13 C-1.66 13 -2.32 13 -3 13 C-2.45144652 8.428721 -1.58255197 4.32564205 0 0 Z M2 10 C4 11 4 11 4 11 Z " fill="#C2A260" transform="translate(130,290)"/>
<path d="M0 0 C1.32 0 2.64 0 4 0 C4.59732819 2.76264289 5 5.16032769 5 8 C4.34 8 3.68 8 3 8 C2.67 8.99 2.34 9.98 2 11 C1.87625 10.195625 1.7525 9.39125 1.625 8.5625 C1.315625 7.2940625 1.315625 7.2940625 1 6 C0.34 5.67 -0.32 5.34 -1 5 C-0.67 3.35 -0.34 1.7 0 0 Z " fill="#DBB15F" transform="translate(203,265)"/>
<path d="M0 0 C2.3125 -0.3125 2.3125 -0.3125 5 0 C6.81883009 2.3832946 8 3.95818337 8 7 C8.66 7 9.32 7 10 7 C9.67 7.66 9.34 8.32 9 9 C7.491987 8.07544441 5.99375083 7.1349253 4.5 6.1875 C3.6646875 5.66542969 2.829375 5.14335937 1.96875 4.60546875 C0.99421875 3.81076172 0.99421875 3.81076172 0 3 C0 2.01 0 1.02 0 0 Z " fill="#C4A15C" transform="translate(234,293)"/>
<path d="M0 0 C0.33 0 0.66 0 1 0 C1 1.65 1 3.3 1 5 C1.99 5.33 2.98 5.66 4 6 C3.6875 7.9375 3.6875 7.9375 3 10 C2.01 10.33 1.02 10.66 0 11 C-0.33 10.34 -0.66 9.68 -1 9 C-1.99 9.495 -1.99 9.495 -3 10 C-2.01 6.7 -1.02 3.4 0 0 Z " fill="#C9A764" transform="translate(134,278)"/>
<path d="M0 0 C0.33 0 0.66 0 1 0 C0.96744792 2.01822917 0.93489583 4.03645833 0.90234375 6.0546875 C0.87350758 8.08185404 0.87350758 8.08185404 2 10 C1.34 10.66 0.68 11.32 0 12 C-0.33 12.66 -0.66 13.32 -1 14 C-1.66 14 -2.32 14 -3 14 C-2.48594831 9.03083364 -1.76615118 4.70973649 0 0 Z " fill="#D0B373" transform="translate(118,251)"/>
<path d="M0 0 C0.66 0.99 1.32 1.98 2 3 C1.34 3 0.68 3 0 3 C0.66 4.65 1.32 6.3 2 8 C1.34 7.67 0.68 7.34 0 7 C-0.08886184 10.19902639 0.08941469 12.92677456 1 16 C0.34 16 -0.32 16 -1 16 C-3.31323995 12.53014008 -3.03975162 11.01711296 -2.42578125 7.0078125 C-1.89999623 4.52842261 -1.07459989 2.29247976 0 0 Z " fill="#BA9A5F" transform="translate(124,310)"/>
<path d="M0 0 C-0.33 0.66 -0.66 1.32 -1 2 C-1.66 1.67 -2.32 1.34 -3 1 C-3.33 2.32 -3.66 3.64 -4 5 C-3.01 5 -2.02 5 -1 5 C-1.33 5.99 -1.66 6.98 -2 8 C-4.31 6.35 -6.62 4.7 -9 3 C-7.01532024 -0.96935951 -3.9567243 -1.41311582 0 0 Z " fill="#CCA865" transform="translate(218,276)"/>
<path d="M0 0 C1 4 1 4 0 7 C0.66 7 1.32 7 2 7 C2 7.99 2 8.98 2 10 C2.66 10.33 3.32 10.66 4 11 C1 12 1 12 -1 12 C-1.99 12.495 -1.99 12.495 -3 13 C-2.01 8.71 -1.02 4.42 0 0 Z " fill="#C5A567" transform="translate(109,279)"/>
<path d="M0 0 C0.99 0 1.98 0 3 0 C5.5654594 2.5654594 5.54046087 4.47686668 6 8 C4.02 7.34 2.04 6.68 0 6 C-0.38218767 4.34385343 -0.71395102 2.67542976 -1 1 C-0.67 0.67 -0.34 0.34 0 0 Z " fill="#D2B16F" transform="translate(260,246)"/>
<path d="M0 0 C0 3.9478088 -1.33724565 5.18508826 -4 8 C-4.99 8 -5.98 8 -7 8 C-7 8.66 -7 9.32 -7 10 C-8.65 10.66 -10.3 11.32 -12 12 C-8.57833482 7.29521038 -4.42094803 3.72346836 0 0 Z " fill="#5188BD" transform="translate(389,156)"/>
<path d="M0 0 C0.66 0 1.32 0 2 0 C2.99 3.63 3.98 7.26 5 11 C4.34 11 3.68 11 3 11 C-1.08529742 5.98092031 -1.08529742 5.98092031 -0.75 2.125 C-0.5025 1.42375 -0.255 0.7225 0 0 Z " fill="#5088BF" transform="translate(203,106)"/>
<path d="M0 0 C3.43301724 0.77907956 6.75410038 1.62425447 10 3 C11.625 5.6875 11.625 5.6875 12 8 C7.44328408 6.48109469 3.68276708 4.04597738 0 1 C0 0.67 0 0.34 0 0 Z " fill="#BB9757" transform="translate(238,326)"/>
<path d="M0 0 C0.598125 0.20625 1.19625 0.4125 1.8125 0.625 C-0.67702921 3.29235273 -2.82158134 5.18246343 -6.1875 6.625 C-5.875 4.25 -5.875 4.25 -5.1875 1.625 C-2.1875 -0.375 -2.1875 -0.375 0 0 Z " fill="#4A83C3" transform="translate(128.1875,338.375)"/>
<path d="M0 0 C0.66 0.33 1.32 0.66 2 1 C0.78395887 2.32467011 -0.44845222 3.63432405 -1.6875 4.9375 C-2.37199219 5.66839844 -3.05648438 6.39929688 -3.76171875 7.15234375 C-6.23537632 9.19429843 -7.85043641 9.65249999 -11 10 C-7.50640535 6.40365256 -3.88901869 3.16548033 0 0 Z " fill="#5285BC" transform="translate(272,223)"/>
<path d="M0 0 C4.62 0 9.24 0 14 0 C12.35 1.65 10.7 3.3 9 5 C8.67 4.01 8.34 3.02 8 2 C5.36 1.67 2.72 1.34 0 1 C0 0.67 0 0.34 0 0 Z " fill="#5686B6" transform="translate(294,180)"/>
<path d="M0 0 C1.25127906 3.54667178 0.72285053 5.72253438 -0.4375 9.25 C-0.72496094 10.14203125 -1.01242188 11.0340625 -1.30859375 11.953125 C-1.53675781 12.62859375 -1.76492187 13.3040625 -2 14 C-3.18823797 10.43528609 -3.26274852 7.7441664 -3 4 C-1.5 1.5625 -1.5 1.5625 0 0 Z " fill="#C39D5C" transform="translate(114,297)"/>
<path d="M0 0 C0.66 0.33 1.32 0.66 2 1 C0.76446724 2.20254524 -0.48902339 3.38666232 -1.75 4.5625 C-2.79414063 5.55443359 -2.79414063 5.55443359 -3.859375 6.56640625 C-4.56578125 7.03949219 -5.2721875 7.51257813 -6 8 C-7.32 7.67 -8.64 7.34 -10 7 C-6.7 4.69 -3.4 2.38 0 0 Z " fill="#4B81BB" transform="translate(174,323)"/>
<path d="M0 0 C0.33 0.99 0.66 1.98 1 3 C1.66 3.33 2.32 3.66 3 4 C-0.75 7 -0.75 7 -3 7 C-2.625 4.0625 -2.625 4.0625 -2 1 C-1.34 0.67 -0.68 0.34 0 0 Z " fill="#5083BD" transform="translate(140,300)"/>
<path d="M0 0 C0.66 0 1.32 0 2 0 C1.44894091 3.9492568 0.61064629 7.34920174 -1 11 C-1.33 11 -1.66 11 -2 11 C-2.92817192 7.37169157 -3.26901295 5.58926645 -1.6875 2.125 C-0.8521875 1.073125 -0.8521875 1.073125 0 0 Z " fill="#CBAD71" transform="translate(125,261)"/>
<path d="M0 0 C2.97 0.495 2.97 0.495 6 1 C1.25 5.875 1.25 5.875 -1 7 C-0.67 4.69 -0.34 2.38 0 0 Z " fill="#D8BC7E" transform="translate(306,220)"/>
<path d="M0 0 C2.12046792 3.53411321 2.53199289 6.94393835 3 11 C1.68 10.67 0.36 10.34 -1 10 C-0.34 9.67 0.32 9.34 1 9 C0.649375 8.2575 0.29875 7.515 -0.0625 6.75 C-1.04509293 3.8677274 -1.0326802 2.78823655 0 0 Z " fill="#C8A362" transform="translate(274,281)"/>
<path d="M0 0 C0.66 0.33 1.32 0.66 2 1 C0.71937515 2.7074998 -0.61767557 4.37373596 -2 6 C-2.66 6 -3.32 6 -4 6 C-4.33 6.66 -4.66 7.32 -5 8 C-5.99 7.34 -6.98 6.68 -8 6 C-5.36 4.02 -2.72 2.04 0 0 Z " fill="#C5A566" transform="translate(169,285)"/>
<path d="M0 0 C2 0 2 0 3.625 1.5 C4.07875 1.995 4.5325 2.49 5 3 C4.34 5.31 3.68 7.62 3 10 C1.11608215 6.73454239 0.50712033 3.71888239 0 0 Z " fill="#4C83C1" transform="translate(287,241)"/>
<path d="M0 0 C1.46534385 3.80989402 0.55203911 6.3241179 -1 10 C-1.99 10.495 -1.99 10.495 -3 11 C-2.835 9.906875 -2.67 8.81375 -2.5 7.6875 C-1.93281816 4.12474127 -1.93281816 4.12474127 -2 1 C-1.34 0.67 -0.68 0.34 0 0 Z " fill="#D0B67E" transform="translate(122,238)"/>
<path d="M0 0 C1.32 0.33 2.64 0.66 4 1 C2.5459375 2.0828125 2.5459375 2.0828125 1.0625 3.1875 C-1.29913506 5.13237593 -1.93412331 5.7882535 -2.875 8.8125 C-2.91625 9.534375 -2.9575 10.25625 -3 11 C-3.33 11 -3.66 11 -4 11 C-4 8.69 -4 6.38 -4 4 C-3.34 4 -2.68 4 -2 4 C-1.34 2.68 -0.68 1.36 0 0 Z " fill="#5588BC" transform="translate(252,223)"/>
<path d="M0 0 C2.64 1.98 5.28 3.96 8 6 C5 7 5 7 2 7 C0.5393715 4.35261084 0 3.10551666 0 0 Z " fill="#D9BF82" transform="translate(110,218)"/>
<path d="M0 0 C0.33 0 0.66 0 1 0 C1.25 6.625 1.25 6.625 -1 10 C-1 9.01 -1 8.02 -1 7 C-1.66 6.67 -2.32 6.34 -3 6 C-2.01 4.02 -1.02 2.04 0 0 Z " fill="#DABC80" transform="translate(158,229)"/>
<path d="M0 0 C1.32 0 2.64 0 4 0 C2.63016497 3.16115776 2.0109362 3.9927092 -1 6 C-1.625 4.125 -1.625 4.125 -2 2 C-1.34 1.34 -0.68 0.68 0 0 Z " fill="#4B86C6" transform="translate(333,184)"/>
<path d="M0 0 C5.625 -0.25 5.625 -0.25 9 2 C9 2.66 9 3.32 9 4 C7.35 4.33 5.7 4.66 4 5 C4 4.01 4 3.02 4 2 C2.68 1.34 1.36 0.68 0 0 Z " fill="#E5D8A8" transform="translate(201,22)"/>
<path d="M0 0 C0.33 0.66 0.66 1.32 1 2 C-0.26239712 2.86658615 -1.53527501 3.71792059 -2.8125 4.5625 C-3.87404297 5.27599609 -3.87404297 5.27599609 -4.95703125 6.00390625 C-7 7 -7 7 -10 6 C-6.7 4.02 -3.4 2.04 0 0 Z " fill="#B7985F" transform="translate(150,326)"/>
<path d="M0 0 C0.66 0.33 1.32 0.66 2 1 C-0.25 3.5625 -0.25 3.5625 -3 6 C-4.32 5.67 -5.64 5.34 -7 5 C-4.69 3.35 -2.38 1.7 0 0 Z " fill="#BD995F" transform="translate(158,320)"/>
<path d="M0 0 C3.465 1.98 3.465 1.98 7 4 C6.01 4.66 5.02 5.32 4 6 C2.68 5.34 1.36 4.68 0 4 C0 2.68 0 1.36 0 0 Z " fill="#C7A15F" transform="translate(258,299)"/>
<path d="M0 0 C2.02744797 3.04117196 3.06650449 5.48143999 4 9 C3.55078125 11.19140625 3.55078125 11.19140625 3 13 C2.30093058 11.40084119 1.61610532 9.79544955 0.9375 8.1875 C0.55464844 7.29417969 0.17179687 6.40085937 -0.22265625 5.48046875 C-1 3 -1 3 0 0 Z " fill="#B8A881" transform="translate(291,257)"/>
<path d="M0 0 C1 2 1 2 0.0625 5.125 C-0.288125 6.07375 -0.63875 7.0225 -1 8 C-2.32 6.68 -3.64 5.36 -5 4 C-3.74458443 1.48916886 -2.49936512 1.12874554 0 0 Z " fill="#D7B776" transform="translate(131,245)"/>
<path d="M0 0 C0.66 0.99 1.32 1.98 2 3 C0.625 6.6875 0.625 6.6875 -1 10 C-1.66 10 -2.32 10 -3 10 C-2.01 6.7 -1.02 3.4 0 0 Z " fill="#5088BE" transform="translate(201,48)"/>
<path d="M0 0 C1.125 1.75 1.125 1.75 2 4 C1.125 6.25 1.125 6.25 0 8 C-0.99 7.67 -1.98 7.34 -3 7 C-3 6.01 -3 5.02 -3 4 C-2.01 4 -1.02 4 0 4 C0 2.68 0 1.36 0 0 Z " fill="#D4A654" transform="translate(204,292)"/>
<path d="M0 0 C1 2 1 2 0.44140625 4.1640625 C0.15136719 4.97617187 -0.13867188 5.78828125 -0.4375 6.625 C-0.72496094 7.44226563 -1.01242188 8.25953125 -1.30859375 9.1015625 C-1.53675781 9.72804688 -1.76492187 10.35453125 -2 11 C-2.33 11 -2.66 11 -3 11 C-3.36923077 4.6 -3.36923077 4.6 -1.5 1.5625 C-1.005 1.046875 -0.51 0.53125 0 0 Z " fill="#5A88B6" transform="translate(115,259)"/>
<path d="M0 0 C3.465 1.98 3.465 1.98 7 4 C3.125 7 3.125 7 2 7 C2 5.35 2 3.7 2 2 C1.34 2 0.68 2 0 2 C0 1.34 0 0.68 0 0 Z " fill="#BD9955" transform="translate(247,319)"/>
<path d="M0 0 C0.33 0.99 0.66 1.98 1 3 C-1 5 -1 5 -3.625 5.125 C-4.40875 5.08375 -5.1925 5.0425 -6 5 C-2.25 1.125 -2.25 1.125 0 0 Z " fill="#C6A463" transform="translate(152,297)"/>
<path d="M0 0 C0.99 0 1.98 0 3 0 C2.67 2.97 2.34 5.94 2 9 C1.34 9 0.68 9 0 9 C-0.87890625 2.84765625 -0.87890625 2.84765625 -1 1 C-0.67 0.67 -0.34 0.34 0 0 Z " fill="#BA9E60" transform="translate(136,299)"/>
<path d="M0 0 C2.18975773 3.28463659 2.99806563 6.20696275 4 10 C2 8.375 2 8.375 0 6 C-0.25 2.75 -0.25 2.75 0 0 Z " fill="#5F8DB9" transform="translate(237,131)"/>
</svg>
